<svg width="100" height="100" viewBox="0 0 100 100" fill="none" xmlns="http://www.w3.org/2000/svg">
<g clip-path="url(#clip0_201_5426)">
<mask id="mask0_201_5426" style="mask-type:luminance" maskUnits="userSpaceOnUse" x="22" y="22" width="56" height="56">
<path d="M77.7778 22.2227H22.2222V77.5617H77.7778V22.2227Z" fill="white"/>
</mask>
<g mask="url(#mask0_201_5426)">
<path d="M30.6146 77.5617C29.329 77.5617 28.0449 77.5603 26.7593 77.5543C24.7904 77.5456 23.0586 76.2997 22.4504 74.4575C22.3886 74.269 22.3371 74.0775 22.284 73.8728C22.2635 73.7963 22.2428 73.7182 22.2222 73.6417V26.1649C22.2487 26.1 22.2811 26.0206 22.3032 25.9292C22.8643 23.576 24.5475 22.2256 26.9228 22.2256C34.7674 22.2242 42.6135 22.2227 50.4594 22.2227C58.3056 22.2227 65.5507 22.2227 73.0964 22.2256C75.806 22.2256 77.7733 24.1856 77.7749 26.8864C77.7807 42.3031 77.7793 57.7817 77.7704 72.8936C77.7704 73.3442 77.7144 73.7933 77.6085 74.1953C77.065 76.2688 75.295 77.5574 72.9874 77.5574C67.1206 77.5574 43.9535 77.5574 43.9535 77.5574H36.1265C35.2076 77.5574 34.2903 77.5574 33.3714 77.5588C32.4539 77.5588 31.535 77.5603 30.6161 77.5603L30.6146 77.5617ZM24.6461 72.602C24.6461 74.3545 25.4281 75.1349 27.1835 75.1349H72.8078C74.5675 75.1349 75.3524 74.3559 75.3524 72.6079V37.9118H24.6461V72.6006V72.602ZM26.9919 24.6481C25.5032 24.6481 24.6476 25.4992 24.6461 26.985C24.6447 28.7654 24.6461 30.5443 24.6461 32.3247V35.4231H75.3524V32.2409C75.3524 30.487 75.3524 28.7315 75.3524 26.9777C75.351 25.4978 74.4924 24.6495 72.9976 24.6495H50.0486L26.9919 24.6481Z" fill="#5D6DFD"/>
<path d="M45.0414 69.293C44.8779 69.293 44.7115 69.2562 44.5494 69.1826C43.8897 68.8882 43.6763 68.2004 44.0061 67.4303C47.2474 59.8596 50.5431 52.1726 53.8004 44.5812C54.0331 44.0379 54.4646 43.7139 54.9535 43.7139C55.0286 43.7139 55.1067 43.7212 55.1832 43.736C55.7457 43.8465 56.1374 44.3546 56.1699 45.0112C56.1639 45.0348 56.1565 45.0598 56.1492 45.0879C56.1139 45.2248 56.0653 45.4118 55.9946 45.5753C52.777 53.0973 49.4915 60.7682 46.2282 68.3741C45.9824 68.9485 45.5376 69.2901 45.0399 69.2901L45.0414 69.293Z" fill="#5D6DFD"/>
<path d="M40.2179 64.2643C39.8586 64.2643 39.5082 64.173 39.3256 64.0301C36.4819 61.8197 33.6854 59.5666 31.0657 57.449C30.755 57.1972 30.5826 56.8615 30.5826 56.5036C30.5826 56.1443 30.755 55.8086 31.0672 55.5568C33.4911 53.5981 36.099 51.5115 39.274 48.989C39.5317 48.7843 39.8203 48.6768 40.109 48.6768C40.4594 48.6768 40.7819 48.8372 41.0161 49.1273C41.4653 49.684 41.3607 50.4115 40.7599 50.8959C39.3713 52.018 37.9531 53.1505 36.5806 54.2447C35.9681 54.7336 35.3568 55.2209 34.7457 55.7113C34.6308 55.8027 34.519 55.8969 34.3908 56.003L33.7768 56.5109L34.7561 57.3004C35.1213 57.5948 35.4703 57.8776 35.8222 58.1588C36.4171 58.6359 37.0136 59.1116 37.6085 59.5873C38.6614 60.4281 39.7143 61.269 40.7643 62.1127C41.2104 62.4706 41.3651 62.8712 41.2547 63.3748C41.1869 63.6811 40.9851 64.2024 40.3947 64.2569C40.3388 64.2627 40.2799 64.2643 40.2194 64.2643H40.2179Z" fill="#407BFF"/>
<path d="M59.8683 64.3251C59.5193 64.3251 59.21 64.169 58.9758 63.8715C58.5224 63.2958 58.646 62.5889 59.2925 62.0691C60.634 60.9911 61.9785 59.9161 63.3231 58.8411L65.2654 57.2875C65.3714 57.2021 65.476 57.1152 65.6026 57.0107L66.2269 56.4953C66.2269 56.4953 62.871 53.8048 61.9742 53.0876C61.6678 52.8418 61.36 52.5973 61.0537 52.3529C60.4574 51.8772 59.861 51.4015 59.2689 50.9215C58.9421 50.6564 58.7418 50.3207 58.7079 49.979C58.6769 49.6771 58.7742 49.3797 58.9862 49.1204C59.2218 48.8333 59.5281 48.6816 59.8728 48.6816C60.1775 48.6816 60.4912 48.8023 60.7769 49.0307C63.7899 51.4296 66.4199 53.5323 68.8158 55.4586C69.2017 55.7677 69.4049 56.1286 69.4049 56.4997C69.4049 56.8737 69.1885 57.2537 68.7938 57.5689C66.2506 59.6114 63.6353 61.7023 60.796 63.9629C60.4971 64.2014 60.1746 64.3266 59.8624 64.3266L59.8683 64.3251Z" fill="#407BFF"/>
<path d="M62.0428 31.2614C61.3947 31.2614 60.7468 31.2614 60.0989 31.2584C59.2772 31.2555 58.7206 30.7739 58.7132 30.0582C58.7103 29.7298 58.8192 29.4457 59.0297 29.2336C59.2815 28.9789 59.6704 28.8389 60.1225 28.8375C61.7085 28.8375 63.2944 28.8359 64.8819 28.8359C66.4694 28.8359 68.0554 28.8359 69.6414 28.8375C70.0964 28.8375 70.4851 28.9773 70.7369 29.232C70.9461 29.4441 71.0551 29.7283 71.0536 30.0568C71.0478 30.7975 70.4969 31.2584 69.6164 31.2598C68.989 31.2598 68.3617 31.2598 67.7343 31.2598H64.8849H62.0442L62.0428 31.2614Z" fill="#407BFF"/>
<path d="M30.1543 31.2583C29.5049 31.2554 28.9526 30.7032 28.9497 30.0537C28.9482 29.7371 29.0749 29.4337 29.3075 29.2011C29.5401 28.9669 29.8421 28.8389 30.1601 28.8389H30.1851C30.8361 28.8536 31.3781 29.4132 31.3707 30.064C31.3618 30.7119 30.8081 31.2598 30.1617 31.2598H30.1572L30.1543 31.2583Z" fill="#407BFF"/>
<path d="M36.7575 31.2589C36.1081 31.25 35.5603 30.6933 35.5632 30.0425C35.5661 29.393 36.1183 28.8408 36.7678 28.8379C37.4201 28.8379 37.9739 29.3857 37.9826 30.0336C37.9871 30.3532 37.8604 30.658 37.6278 30.8936C37.3951 31.1293 37.0917 31.2589 36.7722 31.2589H36.7575Z" fill="#407BFF"/>
<path d="M43.3694 31.2589C42.72 31.25 42.1738 30.6919 42.1767 30.0409C42.1796 29.3901 42.7318 28.8394 43.3828 28.8379C44.0351 28.8379 44.5887 29.3857 44.5961 30.0336C44.5992 30.3532 44.4739 30.658 44.2413 30.8936C44.0086 31.1293 43.7053 31.2573 43.3857 31.2573H43.3694V31.2589Z" fill="#407BFF"/>
</g>
</g>
<defs>
<clipPath id="clip0_201_5426">
<rect width="100" height="100" fill="white"/>
</clipPath>
</defs>
</svg>
