<svg width="100" height="100" viewBox="0 0 100 100" fill="none" xmlns="http://www.w3.org/2000/svg">
<g clip-path="url(#clip0_201_5433)">
<mask id="mask0_201_5433" style="mask-type:luminance" maskUnits="userSpaceOnUse" x="22" y="22" width="56" height="56">
<path d="M77.7778 22.2227H22.2222V77.771H77.7778V22.2227Z" fill="white"/>
</mask>
<g mask="url(#mask0_201_5433)">
<path d="M22.2222 56.8335C22.2831 56.7076 22.3497 56.5844 22.4019 56.4569C22.8454 55.3699 23.6394 54.7555 24.8176 54.6541C24.9799 54.6396 25.1422 54.6381 25.3046 54.6367C26.6117 54.628 27.0928 54.2498 27.2869 52.9499C27.3275 52.676 27.1608 52.3253 26.9914 52.0776C26.7594 51.7384 26.4132 51.482 26.1508 51.1617C25.3451 50.1763 25.2843 48.7112 26.129 47.7649C27.1015 46.6752 28.1361 45.6303 29.2244 44.6564C30.2026 43.7812 31.6489 43.8435 32.6647 44.6812C32.9704 44.9333 33.2443 45.2245 33.5283 45.5028C33.8587 45.8274 34.2371 45.9187 34.6703 45.7463C34.9383 45.6405 35.2065 45.5317 35.4703 45.4159C35.8919 45.2303 36.1136 44.9101 36.1107 44.4406C36.1079 44.0971 36.1006 43.7523 36.1194 43.4102C36.205 41.9351 37.2918 40.8206 38.7671 40.7728C40.0857 40.7294 41.4074 40.7294 42.7246 40.7728C44.1796 40.8221 45.2549 41.922 45.3446 43.3696C45.3533 43.5146 45.3576 43.6581 45.3592 43.803C45.3707 45.1449 45.6881 45.5578 47.0314 45.7955C47.3025 45.8434 47.6589 45.6898 47.9053 45.5216C48.2589 45.281 48.5283 44.9188 48.8675 44.6508C49.9022 43.832 51.3325 43.8131 52.3078 44.6971C53.3511 45.6419 54.3496 46.6433 55.2988 47.6838C56.1958 48.6677 56.1711 50.1299 55.3263 51.1674C55.0654 51.4892 54.7611 51.7762 54.4728 52.0746C54.164 52.3934 54.0887 52.7587 54.2453 53.1716C54.3221 53.3745 54.425 53.5673 54.4901 53.773C54.6974 54.4252 55.1481 54.657 55.8132 54.6453C56.3132 54.6367 56.8349 54.6556 57.3117 54.786C58.4188 55.0888 59.1854 56.0641 59.2201 57.2148C59.2607 58.5509 59.2679 59.8898 59.2244 61.2259C59.1767 62.7012 58.0637 63.7851 56.5871 63.8764C56.461 63.8837 56.3335 63.8837 56.2074 63.8837C54.8394 63.8909 54.4669 64.1648 54.2047 65.5328C54.1511 65.8139 54.3206 66.1892 54.4944 66.4516C54.7206 66.792 55.0742 67.0456 55.3336 67.3674C56.1306 68.3571 56.2044 69.7788 55.3712 70.7206C54.38 71.8409 53.3106 72.9016 52.1933 73.8987C51.2875 74.7058 49.834 74.6449 48.8819 73.887C48.5443 73.6176 48.2429 73.3016 47.9299 73.0016C47.5967 72.6813 47.2257 72.5813 46.7908 72.7741C46.5431 72.8842 46.2953 72.9914 46.0417 73.0885C45.5779 73.2653 45.3678 73.6102 45.3592 74.0913C45.3533 74.3812 45.3635 74.6696 45.3533 74.9594C45.3056 76.2941 44.6389 77.1998 43.384 77.6476C43.3043 77.6766 43.2332 77.7287 43.1593 77.7708H38.3858C38.3062 77.7331 38.2279 77.6881 38.1453 77.6606C36.8585 77.2417 36.1368 76.2709 36.1093 74.913C36.1035 74.6058 36.1672 74.2827 36.0875 73.9971C36.0079 73.7088 35.8543 73.3624 35.6224 73.2103C34.4297 72.4277 34.0631 72.4858 33.0517 73.477C33.0125 73.5146 32.9762 73.5538 32.9357 73.5914C31.7025 74.742 30.1301 74.7652 28.9071 73.6117C28.0406 72.7944 27.2087 71.938 26.374 71.0873C25.6508 70.3512 25.3161 69.4367 25.6262 68.4614C25.8247 67.8413 26.2653 67.263 26.7044 66.7616C27.4 65.966 27.4594 65.8892 27.045 64.9024C27.0029 64.8024 26.9565 64.7053 26.9189 64.6038C26.7349 64.0981 26.374 63.8677 25.8378 63.8851C25.4958 63.8952 25.1494 63.9039 24.8089 63.8706C23.4119 63.7359 22.6324 62.8794 22.2222 61.607C22.2222 60.0159 22.2222 58.4248 22.2222 56.8335ZM54.1946 49.4851C54.0264 49.1792 53.9482 48.9242 53.7815 48.7517C52.9526 47.8938 52.1121 47.0462 51.2528 46.2187C50.8007 45.784 50.3311 45.8028 49.8543 46.2274C49.5718 46.4795 49.3038 46.7505 49.0342 47.0171C47.4372 48.6026 43.8781 47.0158 43.6057 45.1927C43.5607 44.8898 43.5318 44.5841 43.5115 44.2783C43.4956 44.0435 43.5158 43.8073 43.5043 43.5739C43.471 42.9653 43.1593 42.6219 42.5594 42.6117C41.3479 42.5914 40.1364 42.593 38.925 42.6117C38.3337 42.6205 38.0076 42.9683 37.9642 43.5696C37.9482 43.7856 37.9599 44.003 37.9583 44.2203C37.954 46.3085 35.9426 47.9837 33.8603 47.6635C32.9517 47.5244 32.3474 46.9548 31.7444 46.3448C31.1576 45.7535 30.6939 45.7491 30.1114 46.3201C29.3244 47.0926 28.5433 47.8721 27.7739 48.6619C27.2522 49.1966 27.2637 49.6734 27.7811 50.2212C28.0174 50.4705 28.271 50.7038 28.4956 50.9631C28.9767 51.5196 29.2751 52.1833 29.1549 52.9078C28.7839 55.1541 27.7854 56.622 25.4943 56.4902C25.3683 56.483 25.2408 56.4858 25.1147 56.4902C24.4525 56.5177 24.0917 56.838 24.08 57.4871C24.0597 58.6624 24.0611 59.8377 24.08 61.013C24.0901 61.6635 24.4496 62.0027 25.1017 62.0345C25.4262 62.0505 25.7537 62.0273 26.0783 62.0433C27.1362 62.0955 27.9478 62.5737 28.4492 63.5084C28.6868 63.9517 28.8868 64.4227 29.0375 64.9024C29.3476 65.8908 29.1462 66.7964 28.4665 67.5819C28.2072 67.8819 27.9014 68.1441 27.6478 68.447C27.3029 68.8585 27.2942 69.3338 27.6651 69.7194C28.5172 70.6048 29.3868 71.4742 30.2736 72.3263C30.6736 72.7103 31.159 72.6901 31.5894 72.3205C31.8358 72.1089 32.0692 71.8799 32.2865 71.638C33.9342 69.8092 37.6019 71.496 37.8556 73.2712C37.9236 73.7509 37.9454 74.2392 37.9583 74.7246C37.9831 75.5767 38.3004 75.9159 39.1424 75.9216C40.0278 75.9288 40.9146 75.9231 41.8 75.9231C43.3681 75.9231 43.4999 75.7941 43.5129 74.2377C43.5303 72.1351 45.7736 70.412 47.8386 70.8917C48.6661 71.0844 49.211 71.651 49.779 72.2103C50.2818 72.706 50.7847 72.748 51.2557 72.2959C52.1165 71.4699 52.9599 70.6251 53.7858 69.7642C54.225 69.3063 54.2003 68.8426 53.7743 68.3673C53.5685 68.1383 53.3526 67.9195 53.125 67.7137C51.3006 66.0631 52.9817 62.4113 54.7597 62.1403C55.0437 62.0969 55.3307 62.0592 55.6176 62.0419C55.906 62.0244 56.1972 62.0534 56.4842 62.0288C57.0479 61.978 57.384 61.6448 57.3928 61.0767C57.4101 59.8652 57.4117 58.6537 57.3928 57.4437C57.3826 56.8423 57.0421 56.5292 56.4349 56.4945C56.219 56.4814 56.0017 56.4902 55.7842 56.4902C53.6975 56.4801 52.015 54.4556 52.344 52.3789C52.4774 51.537 52.9772 50.9501 53.5468 50.3763C53.8018 50.1198 53.9829 49.7878 54.2003 49.4864L54.1946 49.4851Z" fill="#5D6DFD"/>
<path d="M52.8018 22.2286C53.6699 22.2286 54.5379 22.2199 55.406 22.2286C57.1361 22.2475 58.2969 23.3836 58.3375 25.1124C58.3578 25.9804 58.3593 26.8485 58.3361 27.715C58.3215 28.2831 58.5607 28.6309 59.081 28.8352C59.836 29.1322 60.5881 29.4424 61.3285 29.7714C61.8226 29.9917 62.2299 29.9206 62.6067 29.5366C63.2008 28.9295 63.8036 28.3295 64.4094 27.7339C65.7251 26.4442 67.3164 26.437 68.6322 27.7296C69.8567 28.9338 71.074 30.1467 72.2797 31.3697C73.5708 32.6797 73.5607 34.2753 72.2681 35.5911C71.6856 36.1838 71.1029 36.7779 70.5031 37.3547C70.0812 37.7604 70.0089 38.185 70.2553 38.7213C70.5871 39.4414 70.8754 40.182 71.1653 40.921C71.3594 41.4167 71.6826 41.6717 72.2333 41.66C73.0825 41.6427 73.9331 41.6485 74.7824 41.6572C76.6097 41.676 77.7632 42.8281 77.7719 44.6496C77.7792 46.3495 77.7776 48.0493 77.7719 49.7477C77.7661 51.6099 76.6401 52.7474 74.7693 52.7778C73.9562 52.7909 73.1419 52.7967 72.3289 52.775C71.7232 52.7591 71.3522 53.001 71.1407 53.5807C70.8754 54.3096 70.5726 55.0254 70.245 55.7284C69.9943 56.2674 70.0871 56.692 70.5031 57.0949C71.1 57.6731 71.6856 58.2657 72.2681 58.8585C73.5564 60.1728 73.5593 61.7668 72.2622 63.0797C71.0551 64.3014 69.8407 65.5157 68.6163 66.7214C67.3294 67.9895 65.731 67.9938 64.434 66.7315C63.5008 65.8245 62.5849 64.8985 61.6676 63.9739C61.1647 63.4667 61.1199 62.8885 61.53 62.4972C61.9314 62.1146 62.4661 62.1639 62.9646 62.6552C63.8529 63.5304 64.7311 64.4188 65.6151 65.297C66.3019 65.9795 66.7338 65.9839 67.4062 65.3129C68.5728 64.1521 69.7364 62.9885 70.8972 61.8234C71.5333 61.1843 71.5333 60.7496 70.9058 60.112C70.3218 59.5192 69.7262 58.9382 69.1451 58.3441C68.1757 57.3514 67.9931 56.3007 68.5394 55.0182C68.851 54.2878 69.1524 53.5532 69.4481 52.817C69.9379 51.5968 70.8276 50.9491 72.1478 50.9288C73.0158 50.9143 73.8839 50.9331 74.7519 50.92C75.5996 50.907 75.9199 50.5738 75.9228 49.7172C75.9271 48.0536 75.9271 46.39 75.9228 44.7264C75.9199 43.8497 75.5865 43.5164 74.7069 43.5078C73.8578 43.5004 73.0071 43.5121 72.1579 43.5034C70.861 43.4903 69.9711 42.8731 69.4771 41.676C69.1539 40.8921 68.835 40.1066 68.5032 39.327C67.9931 38.1285 68.2076 37.0663 69.1032 36.1403C69.706 35.5157 70.3321 34.9143 70.9392 34.2942C71.5232 33.6971 71.529 33.2493 70.945 32.6595C69.7494 31.4524 68.5467 30.2496 67.3396 29.054C66.7468 28.4671 66.3019 28.47 65.7049 29.0511C65.1093 29.6322 64.5297 30.2278 63.9369 30.8118C62.9182 31.8161 61.8706 32.0074 60.5707 31.4509C59.8417 31.1379 59.1056 30.8409 58.3694 30.5422C57.1158 30.0322 56.5043 29.1482 56.4885 27.786C56.4783 26.9368 56.4942 26.0863 56.484 25.237C56.4725 24.4227 56.1304 24.0763 55.3233 24.0734C53.6235 24.0661 51.9236 24.0661 50.2237 24.0734C49.4167 24.0763 49.0847 24.4139 49.0732 25.2399C49.0601 26.0717 49.079 26.9035 49.0674 27.7353C49.0457 29.1946 48.4342 30.0482 47.0778 30.5814C46.3386 30.8713 45.6097 31.1843 44.8779 31.4959C43.7012 31.9959 42.6492 31.7959 41.7304 30.9249C41.0885 30.3147 40.4769 29.6728 39.8436 29.054C39.2494 28.4729 38.8003 28.47 38.2104 29.0554C37.0033 30.2525 35.8006 31.4538 34.605 32.661C34.0297 33.2406 34.034 33.7057 34.6138 34.297C35.476 35.1738 36.3513 36.0374 37.2178 36.9099C37.3569 37.0504 37.4989 37.1953 37.6004 37.3634C37.8394 37.7575 37.7612 38.1416 37.4496 38.4517C37.1367 38.7632 36.7425 38.8314 36.3614 38.5836C36.1222 38.4285 35.9179 38.2154 35.7136 38.0127C34.8919 37.1982 34.0674 36.3853 33.2601 35.5563C32.0024 34.2636 32.0038 32.6595 33.2718 31.3741C34.4775 30.1496 35.6933 28.9367 36.9164 27.7296C38.2278 26.4354 39.8276 26.4397 41.1392 27.7296C41.7333 28.3121 42.3246 28.8961 42.9042 29.4931C43.3071 29.909 43.7331 30.0032 44.2707 29.7496C44.9069 29.4496 45.5604 29.1874 46.2154 28.9309C47.1096 28.5802 47.2082 28.4497 47.2154 27.502C47.2226 26.5992 47.1835 25.6906 47.2603 24.7921C47.3893 23.269 48.5008 22.2663 50.0354 22.2329C50.9571 22.2127 51.8801 22.2286 52.8018 22.2286Z" fill="#5D6DFD"/>
<path d="M52.8121 35.208C58.6289 35.2544 63.5531 39.2931 64.5833 45.0086C65.3094 49.0313 64.2211 52.5876 61.4112 55.5887C60.9707 56.0597 60.4301 56.1234 60.0258 55.7727C59.5997 55.4031 59.5896 54.838 60.0621 54.3425C61.5358 52.7962 62.4879 50.9906 62.8589 48.8836C63.6139 44.6043 61.5228 40.3452 57.6043 38.1861C53.9178 36.1543 49.0964 36.7673 45.9619 39.6641C45.8156 39.7988 45.6721 39.938 45.5112 40.054C45.0765 40.3669 44.5636 40.3206 44.2433 39.9554C43.9231 39.5887 43.9201 39.0468 44.3172 38.6875C44.9056 38.1555 45.5056 37.6237 46.1633 37.1876C48.1719 35.8572 50.3949 35.1979 52.8106 35.2095L52.8121 35.208Z" fill="#407BFF"/>
<path d="M40.7408 50.937C45.397 50.9862 49.1213 54.7134 49.0589 59.2941C48.9865 64.5414 45.1897 67.5035 40.7351 67.56C36.0081 67.6209 32.3635 63.7878 32.4171 59.0071C32.4663 54.5902 36.2833 50.8891 40.7408 50.937ZM47.1968 59.2332C47.1795 55.6335 44.271 52.7527 40.6944 52.7903C37.0644 52.8295 34.2386 55.7162 34.2589 59.3637C34.2792 62.8952 37.2021 65.7428 40.7931 65.7298C44.3363 65.7167 47.2142 62.7981 47.1968 59.2332Z" fill="#407BFF"/>
</g>
</g>
<defs>
<clipPath id="clip0_201_5433">
<rect width="100" height="100" fill="white"/>
</clipPath>
</defs>
</svg>
