<svg width="100" height="100" viewBox="0 0 100 100" fill="none" xmlns="http://www.w3.org/2000/svg">
<g clip-path="url(#clip0_201_5405)">
<mask id="mask0_201_5405" style="mask-type:luminance" maskUnits="userSpaceOnUse" x="22" y="22" width="55" height="56">
<path d="M76.9169 22.2227H22.2222V77.7782H76.9169V22.2227Z" fill="white"/>
</mask>
<g mask="url(#mask0_201_5405)">
<path d="M76.9151 48.0371C76.9122 47.2153 76.5459 46.8446 75.7269 46.836C75.5005 46.8331 75.2741 46.8331 75.0477 46.8331H74.1017C73.2697 42.3053 71.5783 38.3874 69.075 35.1847C66.664 32.1017 63.4223 29.584 59.4309 27.6936H61.3676C62.4345 27.6936 63.6963 27.6936 64.9552 27.7109C65.0461 27.7109 65.2263 27.8622 65.3129 28.0093C65.8319 28.8918 66.723 29.4182 67.6965 29.4182C67.9229 29.4182 68.1493 29.3893 68.3712 29.3331C69.6143 29.0145 70.4477 27.9459 70.442 26.6711C70.4376 25.4196 69.6143 24.3654 68.3958 24.0468C68.1651 23.9863 67.9286 23.956 67.692 23.956C66.6986 23.956 65.7987 24.4938 65.3416 25.3604C65.1945 25.6417 65.0533 25.6863 64.7663 25.6863C62.932 25.6806 61.0979 25.679 59.2637 25.679H53.9341C53.1468 23.4945 51.7177 22.302 49.8013 22.227C49.7349 22.224 49.6672 22.2227 49.6009 22.2227C48.7329 22.2227 47.9252 22.452 47.2029 22.9061C46.2137 23.5263 45.5445 24.4592 45.2115 25.679H41.879C39.4147 25.679 36.7744 25.679 34.1745 25.6647C34.1009 25.6647 33.9337 25.5378 33.8515 25.395C33.3251 24.4938 32.4311 23.9545 31.4593 23.9545C31.2256 23.9545 30.9891 23.9847 30.7569 24.0453C29.5356 24.3625 28.7108 25.4167 28.7036 26.6668C28.6977 27.9415 29.5284 29.0115 30.7729 29.3317C31.0036 29.3909 31.2386 29.4211 31.4693 29.4211C32.4586 29.4211 33.3468 28.8703 33.8429 27.9488C33.9509 27.747 34.0505 27.6892 34.297 27.6892C34.9791 27.695 35.6612 27.6964 36.3433 27.6964H38.5611L39.7118 27.695C35.7116 29.5927 32.4642 32.1161 30.0504 35.2035C27.547 38.4061 25.8599 42.3182 25.0337 46.8346H24.0776C23.8541 46.8331 23.6336 46.8346 23.4115 46.8346C22.6068 46.8432 22.2319 47.2081 22.2276 47.9838C22.2204 49.6767 22.2204 51.3292 22.2276 52.8953C22.2319 53.6364 22.6169 54.0171 23.3726 54.0272C23.6033 54.03 23.834 54.0315 24.0617 54.0315C24.2449 54.0315 24.8563 54.0286 24.9804 54.0286C26.1758 59.811 28.5463 64.5061 32.0244 67.9828C35.5026 71.4595 40.1948 73.8257 45.9713 75.0168C45.9713 75.1235 45.9743 75.2302 45.9758 75.3384C45.9815 75.6758 45.9887 76.0247 45.9627 76.3679C45.918 76.9809 46.117 77.4321 46.5712 77.7479L46.6087 77.7739H52.5281L52.5656 77.7479C53.0198 77.4307 53.2188 76.9793 53.1741 76.3679C53.1481 76.0118 53.1554 75.6571 53.1612 75.3153C53.1626 75.2143 53.164 75.1163 53.1655 75.0211C58.9508 73.8171 63.6459 71.4435 67.1211 67.9683C70.5948 64.4932 72.9611 59.8038 74.1551 54.0286H75.0433C75.264 54.0286 75.4874 54.0286 75.7095 54.0286C76.5373 54.0214 76.9065 53.6538 76.9093 52.839C76.9151 51.3004 76.9151 49.7286 76.9093 48.0357L76.9151 48.0371ZM74.8747 48.8764V51.9753H71.7715V48.8764H74.8747ZM53.1698 72.8278C53.1698 72.7485 53.1698 72.6678 53.1698 72.5885C53.1712 72.2957 53.1727 71.9943 53.1669 71.6959C53.1497 70.972 52.7661 70.587 52.058 70.5842C51.2361 70.5797 50.4156 70.577 49.5937 70.577C48.7718 70.577 47.9252 70.5797 47.0918 70.5842C46.3823 70.5885 45.9959 70.9692 45.9743 71.6872C45.9656 71.9468 45.9627 72.2078 45.9584 72.4674C45.9555 72.6043 45.9541 72.7399 45.9512 72.8768C41.1711 72.0982 36.9949 69.9814 33.5327 66.5883C30.134 63.2545 27.6509 58.3431 27.1765 54.0315C27.2573 54.0315 27.3366 54.0315 27.4159 54.0315C27.5486 54.0315 27.6812 54.0329 27.8138 54.0329C27.9797 54.0329 28.1441 54.0329 28.3099 54.0272C29.0323 54.0099 29.4159 53.6249 29.4188 52.9139C29.4274 51.2686 29.4288 49.5974 29.4188 47.9478C29.4144 47.2383 29.0309 46.8533 28.3099 46.8346C28.072 46.8288 27.8326 46.8274 27.5947 46.8258C27.4404 46.8258 27.2861 46.8258 27.1318 46.8231C27.1288 46.8231 27.1274 46.8215 27.1245 46.8202C27.9148 42.0961 29.9812 37.985 33.2688 34.5993C36.5552 31.2149 40.6072 29.0274 45.3152 28.0959C46.1531 30.1089 47.5836 31.1284 49.5677 31.1284H49.5937C51.572 31.1197 52.9938 30.0988 53.8216 28.0959C58.3494 28.9899 62.2745 31.0477 65.4887 34.2128C68.9755 37.6461 71.1716 41.8914 72.0195 46.8331C71.9244 46.8331 71.4672 46.8302 71.3361 46.8302C71.1687 46.8302 71.0044 46.8302 70.8399 46.8346C70.1131 46.8504 69.7281 47.2325 69.7238 47.939C69.7152 49.5325 69.7137 51.1561 69.7238 52.9053C69.7281 53.6206 70.1088 54.0085 70.8241 54.0257C70.9899 54.03 71.1543 54.0315 71.3201 54.0315C71.4529 54.0315 71.5855 54.0315 71.7195 54.03C71.7988 54.03 71.8781 54.03 71.9574 54.03C70.8111 63.4117 62.6076 71.6195 53.1698 72.8278ZM51.1165 72.6389V75.7378H48.0176V72.6389H51.1165ZM47.1279 26.6481C47.138 25.3446 48.2512 24.2429 49.5591 24.2429H49.5793C50.2368 24.2486 50.8526 24.5111 51.314 24.9811C51.774 25.4499 52.022 26.0685 52.0133 26.7217C51.9974 28.0497 50.9001 29.1283 49.5605 29.1283C48.9116 29.1254 48.3002 28.8688 47.8402 28.4031C47.3744 27.9329 47.122 27.3085 47.1265 26.6467L47.1279 26.6481ZM27.3712 48.8922V51.9911H24.2709V48.8922H27.3712ZM67.708 25.9718V25.8277L67.7166 25.9718C68.1045 25.9761 68.4202 26.2963 68.4218 26.6856C68.4218 27.0735 68.1073 27.395 67.7051 27.4022C67.5133 27.4022 67.3316 27.3245 67.1931 27.1817C67.0562 27.0403 66.9841 26.8572 66.9898 26.6654C67.0013 26.2818 67.323 25.9704 67.7065 25.9704L67.708 25.9718ZM31.4376 25.9704V25.8261L31.4405 25.9704C31.8226 25.9718 32.1499 26.2963 32.1543 26.677C32.1572 26.8659 32.0822 27.0475 31.9437 27.186C31.8052 27.3259 31.6265 27.4022 31.4361 27.4022H31.413C31.0309 27.3893 30.7151 27.0547 30.7223 26.6727C30.7295 26.292 31.0569 25.9704 31.4376 25.9704Z" fill="#5D6DFD"/>
<path d="M54.3946 38.2658C53.6939 36.6277 52.9916 34.9895 52.2923 33.3515C52.0673 32.8252 51.7039 32.5815 51.1488 32.5815H51.117C50.6312 32.5901 50.0644 32.5988 49.5107 32.5988C49.0146 32.5988 48.5705 32.5916 48.1567 32.5771C48.1307 32.5771 48.1048 32.5771 48.0788 32.5771C47.4487 32.5771 47.0506 32.854 46.7867 33.4741C44.3902 39.1035 41.8566 45.0187 39.2552 51.0548C39.0491 51.5335 39.0563 51.9647 39.2769 52.4535C40.4305 55.0015 41.3764 57.1284 42.2502 59.1473C42.3498 59.378 42.367 59.711 42.2921 59.9562C41.9849 60.9555 41.646 61.9634 41.3173 62.9396C41.1991 63.2915 41.0794 63.6434 40.9625 63.9966C40.765 64.5908 40.7664 64.9988 40.9698 65.2815C41.1702 65.5598 41.548 65.6895 42.158 65.6895C43.2539 65.6895 53.7805 65.6895 53.7805 65.6895C54.872 65.6895 55.9621 65.6895 57.0537 65.6895C57.593 65.6895 57.9666 65.5497 58.1641 65.2742C58.3631 64.9974 58.3774 64.5951 58.2045 64.0759C58.0646 63.6549 57.9219 63.2352 57.7805 62.8156C57.4676 61.8913 57.1431 60.9353 56.8519 59.9878C56.7712 59.7284 56.7899 59.3737 56.895 59.1285C57.3595 58.0513 57.8439 56.9598 58.3125 55.9042C58.8259 54.7477 59.3566 53.5523 59.8627 52.3699C59.9998 52.0527 60.0588 51.5451 59.9088 51.1917C58.0819 46.8788 56.2073 42.5009 54.3946 38.2672V38.2658ZM48.5431 34.6508V46.9394C47.1645 47.3228 46.1653 48.1233 45.5712 49.3172C45.0953 50.2733 44.9828 51.2941 45.2338 52.354C45.7009 54.3252 47.5352 55.7542 49.5944 55.7542C49.6678 55.7542 49.7414 55.7528 49.8164 55.7484C51.9606 55.6446 53.7199 53.9878 53.9996 51.8103C54.2346 49.9791 53.2685 47.6906 50.6037 46.9378V34.6867C50.67 34.7703 50.7306 34.8526 50.7667 34.9377C52.1942 38.2499 53.6391 41.6198 55.0378 44.8831C55.3146 45.5291 55.5916 46.1766 55.8684 46.824C56.4985 48.2977 57.1503 49.8219 57.7992 51.3173C57.9305 51.6215 57.9334 51.8363 57.8094 52.1103C56.973 53.9474 56.0919 55.9273 55.1142 58.1638C54.9989 58.4277 54.8937 58.4998 54.6167 58.4998C52.9455 58.4926 51.2439 58.4883 49.5598 58.4883C47.8755 58.4883 46.2042 58.4926 44.5214 58.4984C44.2474 58.4984 44.1407 58.4262 44.0269 58.1667C43.636 57.2727 43.2395 56.3815 42.843 55.489C42.3439 54.3656 41.8263 53.2034 41.3317 52.057C41.2495 51.8681 41.2495 51.5681 41.3317 51.3749C43.6532 45.917 45.985 40.4849 48.3687 34.9391C48.4105 34.841 48.4753 34.7488 48.546 34.6508H48.5431ZM43.3807 63.1141C43.6677 62.2431 43.9374 61.4213 44.2373 60.5921C44.282 60.559 44.4564 60.5128 44.6107 60.5128C46.5921 60.507 48.5734 60.5056 50.5562 60.5056H53.8799C54.4019 60.5056 54.6644 60.5056 54.8085 60.608C54.9527 60.7103 55.0392 60.9684 55.1964 61.4385C55.3738 61.9677 55.5498 62.497 55.7328 63.0478L55.9348 63.6563H43.202C43.2625 63.4746 43.3217 63.2944 43.3807 63.1141ZM51.2944 49.5724C51.7559 50.0353 52.0096 50.6481 52.0096 51.2985C52.0096 52.6323 50.9209 53.7267 49.5871 53.7369H49.5684C48.2244 53.7369 47.1271 52.6381 47.1227 51.287C47.1213 50.6467 47.3737 50.0367 47.835 49.5724C48.2966 49.1081 48.9037 48.8515 49.5438 48.8499L49.5496 48.7058V48.8499C50.2087 48.8499 50.83 49.1066 51.2944 49.5724Z" fill="#5D6DFD"/>
</g>
</g>
<defs>
<clipPath id="clip0_201_5405">
<rect width="100" height="100" fill="white"/>
</clipPath>
</defs>
</svg>
