<svg width="100" height="100" viewBox="0 0 100 100" fill="none" xmlns="http://www.w3.org/2000/svg">
<g clip-path="url(#clip0_201_5419)">
<mask id="mask0_201_5419" style="mask-type:luminance" maskUnits="userSpaceOnUse" x="22" y="22" width="56" height="56">
<path d="M77.7777 22.2227H22.2222V77.7689H77.7777V22.2227Z" fill="white"/>
</mask>
<g mask="url(#mask0_201_5419)">
<path d="M44.953 63.238C44.6345 66.4741 41.4758 68.5676 38.1485 67.108C38.0434 67.2689 37.9305 67.4389 37.8191 67.6121C36.1973 70.1198 34.6109 72.654 32.9412 75.1294C31.5217 77.2336 29.4778 78.1118 26.9823 77.648C24.5812 77.2012 23.0474 75.6937 22.4166 73.3421C21.7658 70.9146 22.7846 68.4207 24.9384 67.0153C27.3766 65.4258 29.8226 63.8519 32.2655 62.2703C32.4727 62.1357 32.6798 61.998 32.8808 61.8651C31.4569 58.6723 33.3802 55.4271 36.7678 55.0328C33.8858 49.4914 33.3694 43.7491 35.4613 37.8615C37.0924 33.2679 40.0658 29.6979 44.2263 27.1576C52.6512 22.0136 63.4509 23.5257 70.3019 30.7801C76.8976 37.7625 77.683 48.7803 72.2514 56.7273C66.6591 64.9079 55.1374 68.6975 44.953 63.2396V63.238ZM55.0508 26.4541C44.8309 26.4401 36.5667 34.6857 36.5281 44.9365C36.4895 55.1301 44.7566 63.4251 55.0013 63.473C65.2181 63.5211 73.5626 55.1921 73.5533 44.9566C73.5426 34.7212 65.2908 26.468 55.0508 26.4541ZM34.3852 63.651C31.5805 65.4707 28.782 67.2394 26.0345 69.084C24.4266 70.1632 24.0756 72.3154 25.1378 73.894C26.5758 76.0293 29.6045 75.9875 31.061 73.7796C32.8005 71.145 34.4981 68.4841 36.2127 65.8325C36.2621 65.7568 36.2916 65.6671 36.3256 65.5959C35.6777 64.9465 35.0531 64.3219 34.3837 63.651H34.3852ZM39.9821 65.3037C41.233 65.2589 41.9458 64.8569 42.3633 64.0297C42.7884 63.184 42.776 62.2887 42.1376 61.5946C40.9531 60.3066 39.7146 59.0604 38.4206 57.8839C37.5238 57.0675 36.106 57.2654 35.3037 58.1729C34.4934 59.0898 34.5321 60.4287 35.401 61.3039C36.5003 62.4109 37.5764 63.5426 38.7221 64.5971C39.1334 64.9759 39.7194 65.1615 39.9806 65.3037H39.9821Z" fill="#5D6DFD"/>
<path d="M67.938 25.6909C67.001 25.6864 66.2155 24.9009 66.211 23.964C66.2062 23.0039 67.0226 22.2029 67.9812 22.223C68.9197 22.2432 69.6912 23.0409 69.6789 23.9794C69.6665 24.9179 68.875 25.6957 67.938 25.6925V25.6909Z" fill="#5D6DFD"/>
<path d="M26.8569 36.6889C26.8569 37.6274 26.0745 38.4143 25.136 38.4221C24.1774 38.4299 23.3719 37.6181 23.3888 36.6579C23.4044 35.721 24.2006 34.9449 25.1376 34.9542C26.076 34.9618 26.8569 35.7504 26.8569 36.6889Z" fill="#407BFF"/>
<path d="M54.0474 70.8321C54.9844 70.8275 55.7776 71.6068 55.7899 72.5437C55.8023 73.5039 54.9952 74.3125 54.0351 74.3001C53.0981 74.2877 52.319 73.4961 52.322 72.5591C52.3251 71.6222 53.1105 70.8368 54.0474 70.8321Z" fill="#407BFF"/>
<path d="M32.6573 23.3828C33.2743 23.3874 33.7907 23.8992 33.8015 24.5162C33.8123 25.1547 33.2773 25.6942 32.6389 25.6897C32.0003 25.6834 31.4746 25.1362 31.4947 24.4976C31.5148 23.8806 32.0404 23.3781 32.6558 23.3828H32.6573Z" fill="#407BFF"/>
<path d="M76.6321 32.6334C75.9935 32.6365 75.46 32.0969 75.4724 31.4583C75.4847 30.8415 76.0013 30.3312 76.6181 30.3282C77.2582 30.3234 77.79 30.8647 77.7777 31.5032C77.7653 32.1201 77.2474 32.6302 76.6304 32.635L76.6321 32.6334Z" fill="#407BFF"/>
<path d="M26.8804 51.1512C26.2417 51.1636 25.7022 50.6302 25.7052 49.9916C25.7083 49.3747 26.2185 48.8583 26.8355 48.8459C27.474 48.8336 28.0152 49.367 28.0105 50.0055C28.0059 50.6224 27.4956 51.1404 26.8788 51.1527L26.8804 51.1512Z" fill="#407BFF"/>
<path d="M75.4607 72.0086C75.4484 72.6472 74.8934 73.1697 74.2578 73.1404C73.6425 73.1125 73.1446 72.5807 73.1554 71.9653C73.1678 71.3268 73.7213 70.8057 74.3584 70.8352C74.9736 70.863 75.4731 71.3948 75.4607 72.0086Z" fill="#407BFF"/>
<path d="M54.9423 32.3887C55.5112 31.8893 56.306 31.529 57.2275 31.4872C57.9711 31.4533 58.5123 31.8954 58.5618 32.5541C58.6112 33.2065 58.1428 33.7059 57.3944 33.7957C56.5596 33.8961 56.1468 34.2564 56.0076 35.0109C59.1276 35.8272 60.5053 37.8975 60.329 40.8923C60.9228 41.2047 61.5953 41.35 61.8705 41.7614C62.1628 42.2004 62.0761 42.89 62.1565 43.4698C63.1105 43.2394 63.9872 42.1602 64.1279 41.0315C64.1511 40.8398 64.1526 40.6465 64.1851 40.4564C64.2964 39.7776 64.7943 39.3586 65.4158 39.408C66.0466 39.4591 66.464 39.9415 66.4718 40.6296C66.4965 42.8266 65.0385 44.9293 62.9389 45.7255C62.3565 45.9462 62.0715 46.3714 62.0839 47.0011C62.0869 47.1341 62.1025 47.2655 62.1148 47.4232C63.4691 47.7789 64.601 48.4654 65.4235 49.6094C66.0326 50.4583 66.3976 51.3983 66.4564 52.4466C66.5104 53.4098 66.1486 53.9557 65.4173 54.0221C64.7061 54.0855 64.2346 53.5659 64.1511 52.6229C64.0412 51.3844 63.4073 50.5047 62.3128 49.9419C62.2462 49.9079 62.1689 49.8955 62.0437 49.8568C61.6679 51.9179 60.6676 53.5707 58.8989 54.7055C57.679 55.4879 56.3339 55.8341 54.8882 55.7801C51.7496 55.6626 49.6808 53.7994 48.3667 49.914C47.3446 50.1475 46.4355 51.2468 46.2994 52.4141C46.2825 52.5672 46.2808 52.7218 46.2608 52.8748C46.1648 53.6 45.681 54.0576 45.0516 54.0252C44.3853 53.9912 43.954 53.4701 43.9616 52.7157C43.9896 50.4072 45.5341 48.2875 47.7853 47.6057C48.3558 47.4325 48.3526 47.1309 48.3573 46.6904C48.3604 46.259 48.3465 45.9807 47.8039 45.8152C45.5541 45.1319 44.0312 43.0833 43.9647 40.7796C43.9415 39.9693 44.3497 39.4452 45.0362 39.4034C45.7119 39.3633 46.2097 39.8364 46.2639 40.648C46.3458 41.8865 46.9117 42.8002 47.9878 43.4064C48.0682 43.4512 48.1594 43.4775 48.2661 43.5193C48.345 42.9116 48.3248 42.2994 48.5182 41.7644C48.7593 41.095 49.4643 41.1568 50.0673 41.1475C50.1044 40.475 50.0797 39.8533 50.1848 39.255C50.4972 37.4769 51.5005 36.189 53.1442 35.4562C53.6575 35.2273 53.6575 34.98 53.4394 34.5857C53.1782 34.1111 52.77 33.8605 52.235 33.7972C51.3769 33.6936 50.9178 33.2143 50.9919 32.5186C51.0693 31.8026 51.6861 31.3265 52.5211 31.5166C53.308 31.6959 54.0533 32.0577 54.9423 32.3871V32.3887ZM56.3694 53.2614C58.2371 52.9121 59.7183 51.0365 59.7523 49.0343C59.7723 47.8793 59.7617 46.7229 59.7647 45.5664C59.7647 44.8829 59.7647 44.1996 59.7647 43.5193H50.6704C50.6704 45.0823 50.6564 46.6177 50.6765 48.153C50.6858 48.8039 50.6843 49.4734 50.8326 50.0996C51.21 51.6952 52.6711 53.0836 54.0548 53.2351C54.0548 53.0404 54.0548 52.8501 54.0548 52.66C54.0548 50.7334 54.0518 48.8055 54.0564 46.879C54.0579 46.1198 54.4522 45.6375 55.0891 45.5787C55.8468 45.5091 56.3632 46.0147 56.3662 46.8636C56.374 48.9818 56.3694 51.1 56.3694 53.2614ZM52.4576 41.0764H57.9665C58.1258 39.7096 57.9186 38.5159 56.6879 37.7491C55.7185 37.1446 54.6996 37.1554 53.7347 37.7491C52.501 38.5098 52.2953 39.708 52.4576 41.0748V41.0764Z" fill="#407BFF"/>
</g>
</g>
<defs>
<clipPath id="clip0_201_5419">
<rect width="100" height="100" fill="white"/>
</clipPath>
</defs>
</svg>
