<svg width="201" height="30" viewBox="0 0 201 30" fill="none" xmlns="http://www.w3.org/2000/svg">
<g clip-path="url(#clip0_415_1065)">
<path d="M6.23223 15.9821V8.55219L3.98105 9.56536C3.98105 9.56536 3.4012 10.8487 3.50352 12.7062C3.57175 14.1584 4.39036 15.8807 5.03843 16.6238L6.23223 15.9821ZM12.8494 0.683284C13.3951 0.717056 14.2819 0.987234 14.9299 1.56136C15.6462 2.2368 15.7827 3.24997 15.5439 4.19559C15.3393 5.00612 15.0664 5.44516 14.2136 6.01928C13.361 6.59341 12.3036 6.55964 12.3036 6.55964V10.1395L14.0773 11.558L12.3036 12.9764V17.8733C12.3036 17.8733 14.0773 16.8601 15.1688 14.6312C15.1688 14.6312 15.2028 14.4961 15.3052 14.2935C15.4075 14.9014 15.3393 16.1172 14.6571 17.6706C14.1796 18.7852 13.2246 19.8997 12.0649 20.5751C9.98419 21.7233 8.41519 21.8247 6.70975 21.487C4.73144 21.0816 2.95779 20.0009 1.72987 18.0759C0.877151 16.725 0.501954 15.1716 0.536062 13.4829C0.60428 10.1733 3.09422 7.3364 5.95936 6.25569C6.30044 6.1206 6.43688 6.05306 6.94851 5.98551C6.70975 6.15437 6.47099 6.32324 6.1299 6.55964C5.20896 7.16753 4.42447 8.34957 4.08337 9.2614L9.64311 6.79604V14.4961L5.14075 16.725C5.65238 17.4343 7.22139 18.4812 8.51751 18.6501C10.7687 18.8865 12.0989 17.9071 12.0989 17.9071V12.9088L10.3594 11.4904L12.0989 10.0719V6.55964C11.1439 6.45832 9.98419 6.15437 9.30202 5.98551C8.34698 5.71533 5.00431 4.80348 4.49268 4.70217C3.98105 4.63463 3.33299 4.63463 2.92368 5.00612C2.54848 5.34384 2.27561 5.95174 2.44616 6.52587C2.54848 6.82982 2.75313 7.03245 2.92368 7.20131C2.92368 7.20131 2.71903 7.20131 2.37793 6.96491C1.76398 6.59341 1.28646 5.85043 1.21824 4.97235C1.15002 3.79032 1.66165 2.70961 2.65081 2.0004C3.50352 1.46004 4.45857 1.12232 5.58416 1.25741C7.22139 1.49382 9.43846 2.40566 11.3826 2.87847C12.1331 3.04734 12.747 3.11488 13.2586 2.81093C13.4974 2.64207 13.9408 2.16926 13.5997 1.56136C13.1904 0.852145 12.3718 0.852145 11.6897 0.750829C12.2695 0.649512 12.4059 0.649512 12.8494 0.683284Z" fill="#9BA2B2"/>
<path d="M34.4732 14.057L31.9492 15.8807V9.76796L34.4732 14.057ZM34.405 8.18066C34.405 8.18066 32.6996 9.19383 31.5399 9.86927C30.3802 10.5447 28.8453 11.2877 28.8453 11.2877V18.3799L27.822 19.1904L27.9585 19.3592L28.9476 18.5487L32.0856 21.3518L37.5431 17.0627L37.4066 16.8938L34.405 19.2241L31.9151 16.9277V16.0833L36.895 12.4697L34.405 8.18066Z" fill="#9BA2B2"/>
<path d="M20.147 24.0535C20.8633 24.2224 22.1254 24.3238 23.6603 23.5807C25.3316 22.7364 26.1843 20.9802 26.1843 19.1566L26.2526 16.5898V10.95L27.344 10.1394L27.2076 9.97055L26.1161 10.7473L23.6603 8.04553L20.5222 10.7135V1.6626L16.5997 4.66832C16.7703 4.76963 17.316 4.87095 17.3502 5.64771V18.3461L15.7129 19.5618L15.8152 19.7307L16.6339 19.1227L18.8509 21.1829L22.3641 18.4473L22.2277 18.2785L21.4091 18.9201L20.5222 18.0759V11.0175L21.5456 10.1394L23.0804 12.0306C23.0804 12.0306 23.0804 16.6237 23.0804 18.1434C23.0804 19.7645 23.0804 21.7908 22.1936 22.7702C21.375 23.7158 20.9998 23.7833 20.147 24.0535Z" fill="#9BA2B2"/>
<path d="M44.5352 23.4118C43.1368 23.2429 42.5569 22.3986 42.5569 21.757C42.5569 21.3179 42.9663 20.5074 43.819 20.3723C44.6716 20.2709 45.5585 20.6425 46.2748 21.5205L49.5151 17.9745L49.3446 17.8394L48.4578 18.8188C47.571 17.8056 46.3089 17.1977 45.081 16.9951V6.18799L53.5059 21.3854C53.5059 21.3854 53.5741 21.5543 53.9493 21.5543C54.2562 21.5543 54.188 21.3179 54.188 21.3179V6.01912C54.8703 5.98535 55.9276 5.61385 56.4392 5.10727C58.0764 3.45244 57.3942 1.66251 57.2237 1.49365C57.1214 2.27041 56.5074 3.08094 55.4842 3.08094C54.154 3.08094 53.3353 2.10155 53.3353 2.10155L50.0609 5.71518L50.2314 5.85026L51.1523 4.80333C52.278 5.85026 53.1306 5.9178 53.9834 5.98535V14.8674L47.7073 3.6213C47.1275 2.70945 46.2748 1.86515 44.9445 1.86515C43.3755 1.86515 42.284 3.21603 42.1476 4.36429C42.0112 5.68139 42.1476 5.98535 42.1476 5.98535C42.1476 5.98535 42.3864 4.53314 43.3073 4.53314C44.126 4.53314 44.5694 5.30991 44.8763 5.85026V9.09239C44.0236 9.15993 41.8066 9.26125 41.6701 11.524C41.6701 12.3683 42.1818 13.2464 42.6593 13.5503C43.2732 13.9556 43.7166 13.9218 43.7166 13.9218C43.7166 13.9218 43.0003 13.5503 43.205 12.8073C43.4097 12.1319 44.8081 12.0306 44.8423 12.3008V16.8938C44.16 16.8938 42.0112 16.9613 41.0221 18.785C40.4422 19.8995 40.4763 21.1491 41.0903 22.0271C41.6701 22.8038 42.7274 23.7157 44.5352 23.4118Z" fill="#9BA2B2"/>
<path d="M62.3761 14.057L59.8521 15.8807V9.76796L62.3761 14.057ZM62.3079 8.18066C62.3079 8.18066 60.6024 9.19383 59.4427 9.86927C58.283 10.5447 56.7482 11.2877 56.7482 11.2877V18.3799L55.7249 19.1904L55.8613 19.3592L56.8505 18.5487L59.9885 21.3518L65.4459 17.0627L65.3094 16.8938L62.3079 19.2241L59.8179 16.9277V16.0833L64.7978 12.4697L62.3079 8.18066Z" fill="#9BA2B2"/>
<path d="M69.9474 21.4195L67.2869 19.2244L66.1273 20.0687L66.025 19.8998L67.2187 19.0217V12.9089C67.2869 10.376 64.8653 11.0177 65.0016 8.31594C65.0698 7.13392 66.1955 6.25584 66.8094 5.9519C67.4234 5.64795 68.1055 5.64795 68.1055 5.64795C68.1055 5.64795 67.0141 6.32338 67.2869 7.30278C67.6963 8.78875 70.2886 8.92385 70.3226 10.9502V17.8735L72.2328 19.3933L72.7444 18.9879V11.4567L71.7211 10.4436L74.3816 8.11331L76.8033 10.241L75.8824 11.2204V17.9072L78.1677 19.7647L78.5769 19.4945V11.4905L77.5537 10.5449L80.2142 8.14708L82.7042 10.1734L83.6933 9.29533L83.8297 9.4642L81.5785 11.423V17.9748L75.8483 21.4533L72.9149 19.1568L69.9474 21.4195Z" fill="#9BA2B2"/>
<path d="M187.044 14.057L184.52 15.8807V9.76796L187.044 14.057ZM186.975 8.18066C186.975 8.18066 185.27 9.19383 184.11 9.86927C182.95 10.5447 181.416 11.2877 181.416 11.2877V18.3799L180.393 19.1904L180.529 19.3592L181.518 18.5487L184.655 21.3518L190.113 17.0627L189.976 16.8938L186.975 19.2241L184.485 16.9277V16.0833L189.499 12.5035L186.975 8.18066Z" fill="#9BA2B2"/>
<path d="M161.393 11.1525L161.53 11.3214L162.553 10.4433L164.088 12.1319V18.0083L163.338 18.6837L165.725 21.318L168.147 18.9539L167.157 17.907V10.8486L167.772 10.342L169.443 12.3008V18.1433L168.796 18.7851L171.046 21.2504L173.434 18.8863L172.547 17.9745V10.8486L173.195 10.342L174.935 12.267V18.0758L174.355 18.65L176.811 21.318L180.153 18.2784L179.983 18.1433L179.198 18.8526L177.971 17.5017V10.8823L179.164 9.97051L179.028 9.80165L177.834 10.7135L175.582 8.21436L172.343 10.7135L170.091 8.28191L166.987 10.7135L164.702 8.31568L161.393 11.1525Z" fill="#9BA2B2"/>
<path d="M154.674 10.9836L154.81 11.1186L155.663 10.3757L157.027 11.963V18.6837L156.072 19.4942L156.209 19.6631L157.198 18.8187L159.381 21.3178L162.553 18.5147L162.417 18.3459L161.496 19.1565L160.166 17.6705V11.1186L161.291 10.1731L161.155 10.038L160.097 10.916L157.812 8.24805L154.674 10.9836Z" fill="#9BA2B2"/>
<path d="M155.56 5.41094L157.947 3.24951L159.892 5.37717L157.503 7.53858L155.56 5.41094Z" fill="#9BA2B2"/>
<path d="M145.77 15.9821V8.55223L143.518 9.56539C143.518 9.56539 142.938 10.8487 143.041 12.7062C143.109 14.1584 143.928 15.8808 144.576 16.6238L145.77 15.9821ZM152.386 0.683313C152.933 0.717085 153.82 0.987263 154.467 1.56139C155.183 2.23684 155.32 3.25 155.081 4.19562C154.877 5.00615 154.603 5.44518 153.751 6.01931C152.898 6.59344 151.841 6.55966 151.841 6.55966V10.1395L153.615 11.558L151.841 12.9764V17.8733C151.841 17.8733 153.615 16.8601 154.706 14.6312C154.706 14.6312 154.74 14.4961 154.842 14.2935C154.945 14.9014 154.877 16.1172 154.195 17.6707C153.683 18.8527 152.728 19.9672 151.568 20.6089C149.487 21.7572 147.919 21.8584 146.247 21.5207C144.268 21.1154 142.495 20.0348 141.267 18.1097C140.414 16.7589 140.039 15.2053 140.074 13.5167C140.142 10.2071 142.631 7.3702 145.497 6.28949C145.838 6.1544 145.974 6.08685 146.485 6.01931C146.247 6.18818 146.008 6.35703 145.667 6.59344C144.746 7.20134 143.962 8.38336 143.621 9.29521L149.181 6.82984V14.5299L144.712 16.7589C145.223 17.468 146.793 18.515 148.089 18.6839C150.341 18.9203 151.671 17.9408 151.671 17.9408V12.9426L149.931 11.5242L151.671 10.1057V6.55966C150.716 6.45835 149.556 6.15441 148.874 5.98554C147.884 5.74914 144.542 4.80352 144.03 4.73597C143.518 4.66843 142.87 4.66843 142.461 5.03992C142.086 5.37764 141.813 5.98554 141.983 6.55966C142.086 6.86361 142.291 7.06625 142.461 7.23511C142.461 7.23511 142.256 7.23511 141.916 6.9987C141.301 6.62721 140.824 5.88422 140.756 5.00615C140.687 3.82412 141.164 2.77719 142.154 2.0342C143.006 1.49384 143.962 1.15612 145.087 1.29121C146.725 1.52762 148.942 2.43946 150.886 2.91228C151.636 3.08113 152.25 3.14868 152.761 2.84473C153.001 2.67587 153.444 2.20305 153.103 1.59516C152.693 0.885946 151.875 0.885946 151.193 0.78463C151.806 0.649541 151.943 0.649541 152.386 0.683313Z" fill="#9BA2B2"/>
<path d="M194.068 9.56498V13.0773L195.263 14.0905C195.263 14.0905 197.82 12.0641 198.775 10.1729C198.775 10.1729 197.615 11.7264 196.047 11.2536C194.751 10.8483 194.068 9.56498 194.068 9.56498ZM191.204 18.8861C191.204 18.8861 192.329 17.0286 194.273 17.4339C196.115 17.8054 196.763 19.7642 196.763 19.7642V15.3062L195.467 14.1917C194.035 15.6102 191.511 17.6365 191.204 18.8861ZM193.046 22.2971C192.67 22.3984 191.101 22.0269 190.726 20.4059C190.351 18.8523 191.476 17.7716 193.113 16.1168L191.135 14.3268V10.9497C191.135 10.9497 192.568 10.2404 193.693 9.53121C194.818 8.822 195.978 8.07901 195.978 8.07901C195.978 8.07901 196.832 9.12595 197.787 9.0584C199.287 8.92331 199.219 7.77506 199.151 7.50488C199.389 7.94392 200.072 9.29481 197.48 12.3005L199.629 14.0229V18.4133C199.629 18.4133 197.138 19.6966 194.818 21.3852C194.818 21.3852 193.523 19.7642 192.363 20.541C191.613 21.0138 191.954 21.8918 193.046 22.2971Z" fill="#9BA2B2"/>
<path d="M107.262 17.2992L110.025 19.7646V12.1996L107.262 9.66671V17.2992ZM112.925 11.1189L113.88 10.2408L114.015 10.4097L113.095 11.254V18.2448C113.095 18.2448 111.321 19.1904 110.059 19.8659C108.831 20.5751 107.501 21.3856 107.501 21.3856L104.227 18.6501L103.373 19.3931L103.238 19.2243L104.158 18.4475V10.9501C104.158 10.9501 105.693 10.2746 106.989 9.53163C108.149 8.88996 109.446 8.14697 109.446 8.14697L112.925 11.1189Z" fill="#9BA2B2"/>
<path d="M119.339 10.4093L121.42 8.31543C121.42 8.31543 121.692 8.55183 121.965 8.68691C122.102 8.75447 122.75 9.09218 123.33 8.75447C123.637 8.5856 123.67 8.55183 124.012 8.21411C124.08 9.83517 123.295 10.9835 122.306 11.4563C121.897 11.6589 120.738 12.0303 119.476 10.5444V18.0756L120.771 19.2238L121.863 18.312L122 18.4808L118.554 21.3177L115.962 18.9536L115.007 19.8317L114.837 19.6629L116.269 18.3796V11.8615L115.177 10.4093L114.222 11.2198L114.086 11.0847L117.394 8.11279L119.339 10.4093Z" fill="#9BA2B2"/>
<path d="M128.07 13.5504L131.89 8.04549C131.89 8.04549 132.402 8.65339 133.289 8.85603C134.483 9.15997 135.541 8.01172 135.541 8.01172C135.336 9.4977 134.585 11.1525 133.016 11.4227C131.652 11.6591 130.355 10.5784 130.355 10.5784L130.117 10.9499L135.438 18.9201L136.495 18.0083L136.631 18.1771L132.982 21.3517L128.07 13.5504Z" fill="#9BA2B2"/>
<path d="M124.93 6.18814C124.93 5.00612 124.452 4.26313 123.805 4.33067L128 1.42627V17.8733L129.091 19.0215L129.944 18.3124L130.081 18.4812L126.704 21.3856L124.419 19.258L123.498 20.0685L123.362 19.8997L124.964 18.515V6.18814" fill="#9BA2B2"/>
<path d="M98.0868 10.8149C98.0868 10.8149 97.6093 11.3214 96.893 11.3214C96.1767 11.3214 95.6992 10.8149 95.6992 10.8149V13.0776C95.6992 13.0776 96.1767 12.571 96.893 12.571C97.6093 12.571 98.0868 13.0776 98.0868 13.0776V10.8149ZM98.0868 5.98544L96.4837 4.56702L95.6992 5.17492V10.4434C95.6992 10.4434 96.1767 11.0512 96.893 11.0512C97.6093 11.0512 98.0868 10.4771 98.0868 10.4771V5.98544ZM95.6992 20.9465C95.6992 20.9465 96.6883 21.2167 97.3706 20.6425C98.155 20.0009 98.0868 19.0891 98.0868 19.0891V13.3815C98.0868 13.3815 97.6434 12.8075 96.893 12.8075C96.1767 12.8075 95.6992 13.4154 95.6992 13.4154V20.9465ZM89.9689 5.9179C89.9689 4.80342 89.5255 4.19552 88.7752 4.16175C87.7178 4.12798 87.4449 5.61396 87.4449 5.61396C87.4449 5.61396 87.2402 4.4657 88.2294 3.41876C88.7752 2.84464 89.7984 2.0341 91.3673 2.4056C93.0046 2.81086 93.4822 4.06043 93.4822 5.17492V20.4737C93.4822 20.4737 94.0961 20.5413 94.5395 20.6425C95.017 20.7439 95.4946 20.879 95.4946 20.879V2.43937H95.6992V4.93851L99.0419 2.27051L101.498 4.43192L102.658 3.45253L102.794 3.6214L101.601 4.63456V18.8526C101.532 19.7645 101.396 20.7101 100.509 21.2842C98.5303 22.4325 96.1427 21.1153 94.0279 20.8114C92.4589 20.575 89.9689 20.2711 89.355 21.7232C89.1503 22.1961 89.1503 22.9053 89.8666 23.3781C91.2991 24.3237 97.6775 21.7908 99.8605 22.804C101.873 23.7158 101.839 25.168 101.532 26.1812C101.021 28.0725 98.6326 28.3764 98.6326 28.3764C98.6326 28.3764 99.7922 27.7009 99.4853 26.5864C99.3147 26.0124 98.9395 25.8773 97.6775 26.0124C94.9488 26.3162 91.6744 27.6334 89.4573 26.7215C88.3317 26.2487 87.5131 24.8641 87.6155 23.4794C87.6836 21.4869 89.9689 20.7101 89.9689 20.7101V13.3815C89.9007 13.0776 88.6728 13.1789 88.3999 13.7192C87.9907 14.5298 88.9115 14.9013 88.9115 14.9013C88.9115 14.9013 88.1612 15.0027 87.5131 14.2934C87.2061 13.9219 86.5581 12.6724 87.4108 11.5241C88.0929 10.5784 88.9457 10.4096 90.0031 10.3083V5.9179H89.9689Z" fill="#9BA2B2"/>
</g>
<defs>
<clipPath id="clip0_415_1065">
<rect width="199.932" height="28.7031" fill="white" transform="translate(0.533936 0.648438)"/>
</clipPath>
</defs>
</svg>
