<svg width="66" height="48" viewBox="0 0 66 48" fill="none" xmlns="http://www.w3.org/2000/svg">
<g clip-path="url(#clip0_201_6280)">
<path fill-rule="evenodd" clip-rule="evenodd" d="M11.0808 14.8408V34.7488C11.0808 35.2882 11.0209 35.5579 11.2007 35.8275C11.2906 36.0079 11.4704 36.0972 11.6204 36.0972C11.8301 36.0972 12.0102 36.0079 12.1299 35.7982C12.3098 35.5282 12.28 35.2579 12.28 34.6888V14.8408H13.2094V35.1382C13.2094 36.5169 12.6997 37.2066 11.6204 37.2066C11.1705 37.2066 10.7809 37.0572 10.4811 36.7275C10.1812 36.3972 10.0312 35.8875 10.0312 35.1685V14.8408H11.0808Z" fill="#9BA2B2"/>
<path fill-rule="evenodd" clip-rule="evenodd" d="M21.0078 37.0869L19.5087 23.4155V37.0869H18.6992V14.8408H19.7785L21.3074 27.6729V14.8408H21.9972V37.0869H21.0078Z" fill="#9BA2B2"/>
<path fill-rule="evenodd" clip-rule="evenodd" d="M30.0892 24.8545V25.6342H28.6201V36.1579H30.299V37.0869H27.3008V14.8408H30.0892V15.8003H28.6201V24.8545H30.0892Z" fill="#9BA2B2"/>
<path fill-rule="evenodd" clip-rule="evenodd" d="M59.2037 11.6924V13.5517H6.82617V11.6924H59.2037Z" fill="#9BA2B2"/>
<path fill-rule="evenodd" clip-rule="evenodd" d="M59.2037 38.7358V40.5943H6.82617V38.7358H59.2037Z" fill="#9BA2B2"/>
<path fill-rule="evenodd" clip-rule="evenodd" d="M62.0784 42.4834V44.3428H3.46484V42.4834H62.0784Z" fill="#9BA2B2"/>
<path fill-rule="evenodd" clip-rule="evenodd" d="M65.0198 46.1118V48.0005H0.5V46.1118H65.0198Z" fill="#9BA2B2"/>
<path fill-rule="evenodd" clip-rule="evenodd" d="M32.7646 0L59.0878 7.49559V9.47425L32.5247 2.24874L6.71094 9.59394V7.61535L32.7646 0Z" fill="#9BA2B2"/>
<path fill-rule="evenodd" clip-rule="evenodd" d="M53.1131 9.59378H47.6859L32.9654 5.60646L18.2749 9.47409L12.668 9.59378L33.0251 3.74756L53.1131 9.59378Z" fill="#9BA2B2"/>
<path fill-rule="evenodd" clip-rule="evenodd" d="M37.5573 21.2566H38.6967V16.9391C38.6967 16.9391 38.6664 15.6799 38.3664 15.3204C38.067 14.9904 37.7073 14.6904 36.9276 14.6904C36.1783 14.7207 35.998 14.9306 35.7283 15.2602C35.4283 15.5901 35.3086 16.1595 35.3086 16.7596C35.3086 17.3589 35.3389 20.0274 35.4283 20.9266C35.5183 21.7964 36.358 25.3338 36.8376 27.0432C37.2876 28.7819 37.4973 29.6516 37.5276 30.1313C37.5573 30.6404 37.617 32.3497 37.5573 33.1891C37.5276 34.0285 37.5573 35.1975 37.5573 35.1975C37.5573 35.1975 37.617 36.1272 37.0776 36.1272C36.508 36.1272 36.5677 35.1975 36.5677 35.1975V29.9213H35.4283V35.1681C35.4283 35.1681 35.1289 37.0866 36.9276 37.0866C38.7567 37.0866 38.7567 35.3778 38.7567 35.3778V30.5807C38.7567 30.5807 38.6664 28.9916 38.3664 27.8826C38.067 26.8029 37.1073 23.3553 36.8973 22.3956C36.658 21.3767 36.5677 19.8772 36.5677 18.5283C36.5677 17.1793 36.598 16.3398 36.598 16.3398C36.598 16.3398 36.5677 15.7102 37.0776 15.7102C37.5573 15.7102 37.5276 16.3697 37.5276 16.3697L37.5573 21.2566Z" fill="#9BA2B2"/>
<path fill-rule="evenodd" clip-rule="evenodd" d="M46.2818 21.3168H47.2711V16.13C47.2711 15.3208 46.8218 14.5112 45.7118 14.5112C44.693 14.5112 44.0938 15.2606 44.0938 16.1599V35.6482C44.0938 36.517 44.693 37.2673 45.7118 37.2673C46.8218 37.2673 47.2711 36.4876 47.2711 35.6776V29.8317H46.2818V35.6482C46.2818 35.9482 46.3121 36.3073 45.7118 36.3073C45.0824 36.3073 45.1431 35.7679 45.1431 35.5579V16.2201C45.1431 16.0103 45.0824 15.4704 45.7118 15.4704C46.3121 15.4704 46.2818 15.8603 46.2818 16.1599V21.3168Z" fill="#9BA2B2"/>
<path fill-rule="evenodd" clip-rule="evenodd" d="M54.5551 14.5112C53.5361 14.5112 52.8164 15.2606 52.8164 16.1599V35.6482C52.8164 36.517 53.5361 37.2673 54.5551 37.2673C55.6642 37.2673 56.2342 36.4876 56.2342 35.6776V16.13C56.2342 15.3208 55.6642 14.5112 54.5551 14.5112ZM55.2445 35.6482C55.2445 35.9482 55.1551 36.3073 54.5551 36.3073C53.9255 36.3073 53.8658 35.7679 53.8658 35.5579V16.2201C53.8658 16.0103 53.9255 15.4704 54.5551 15.4704C55.1551 15.4704 55.2445 15.8603 55.2445 16.1599V35.6482Z" fill="#9BA2B2"/>
</g>
<defs>
<clipPath id="clip0_201_6280">
<rect width="65" height="48" fill="white" transform="translate(0.5)"/>
</clipPath>
</defs>
</svg>
