<svg width="66" height="57" viewBox="0 0 66 57" fill="none" xmlns="http://www.w3.org/2000/svg">
<path d="M5.31635 18.5977C5.31635 19.0329 5.14361 19.4503 4.83613 19.758C4.52864 20.0657 4.11161 20.2386 3.67676 20.2386C4.11161 20.2386 4.52864 20.4115 4.83613 20.7193C5.14361 21.027 5.31635 21.4444 5.31635 21.8796C5.31587 21.664 5.35795 21.4504 5.44018 21.2511C5.52241 21.0517 5.64316 20.8707 5.79551 20.7182C5.94785 20.5657 6.12879 20.4449 6.32793 20.3626C6.52707 20.2803 6.7405 20.2381 6.95595 20.2386C6.7405 20.2391 6.52707 20.197 6.32793 20.1147C6.12879 20.0324 5.94785 19.9115 5.79551 19.7591C5.64316 19.6066 5.52241 19.4255 5.44018 19.2262C5.35795 19.0269 5.31587 18.8133 5.31635 18.5977Z" fill="white"/>
<path d="M36.2871 5.46991C36.2871 5.90512 36.1143 6.32251 35.8068 6.63025C35.4993 6.93799 35.0823 7.11088 34.6475 7.11088C35.0823 7.11088 35.4993 7.28377 35.8068 7.59151C36.1143 7.89925 36.2871 8.31664 36.2871 8.75185C36.2866 8.53622 36.3287 8.32262 36.4109 8.12331C36.4931 7.924 36.6139 7.74291 36.7662 7.59044C36.9186 7.43796 37.0995 7.31711 37.2986 7.23481C37.4978 7.15252 37.7112 7.1104 37.9267 7.11088C37.7112 7.11136 37.4978 7.06924 37.2986 6.98695C37.0995 6.90465 36.9186 6.7838 36.7662 6.63132C36.6139 6.47885 36.4931 6.29776 36.4109 6.09845C36.3287 5.89914 36.2866 5.68554 36.2871 5.46991Z" fill="white"/>
<path d="M46.4892 3.28194C46.4887 3.06631 46.5308 2.85271 46.613 2.6534C46.6953 2.45409 46.816 2.273 46.9684 2.12053C47.1207 1.96805 47.3016 1.8472 47.5008 1.7649C47.6999 1.68261 47.9133 1.64049 48.1288 1.64097C47.9133 1.64145 47.6999 1.59933 47.5008 1.51704C47.3016 1.43474 47.1207 1.31389 46.9684 1.16141C46.816 1.00894 46.6953 0.827849 46.613 0.62854C46.5308 0.429232 46.4887 0.21563 46.4892 0V0C46.4892 0.435212 46.3165 0.8526 46.009 1.16034C45.7015 1.46808 45.2845 1.64097 44.8496 1.64097C45.2845 1.64097 45.7015 1.81386 46.009 2.1216C46.3165 2.42934 46.4892 2.84673 46.4892 3.28194Z" fill="white"/>
<path d="M61.4277 20.421C61.4277 20.8562 61.2549 21.2736 60.9475 21.5813C60.64 21.889 60.2229 22.0619 59.7881 22.0619C60.2229 22.0619 60.64 22.2348 60.9475 22.5426C61.2549 22.8503 61.4277 23.2677 61.4277 23.7029C61.4272 23.4873 61.4693 23.2737 61.5515 23.0744C61.6337 22.8751 61.7545 22.694 61.9068 22.5415C62.0592 22.389 62.2401 22.2682 62.4393 22.1859C62.6384 22.1036 62.8518 22.0614 63.0673 22.0619C62.8518 22.0624 62.6384 22.0203 62.4393 21.938C62.2401 21.8557 62.0592 21.7348 61.9068 21.5824C61.7545 21.4299 61.6337 21.2488 61.5515 21.0495C61.4693 20.8502 61.4272 20.6366 61.4277 20.421Z" fill="white"/>
<path d="M16.0652 11.4868C18.5805 11.4868 20.6196 9.446 20.6196 6.92855C20.6196 4.4111 18.5805 2.3703 16.0652 2.3703C13.5498 2.3703 11.5107 4.4111 11.5107 6.92855C11.5107 9.446 13.5498 11.4868 16.0652 11.4868Z" fill="white"/>
<path d="M61.9155 6.78996C61.8699 6.65148 61.7911 6.52628 61.686 6.4253C61.6337 6.37563 61.5763 6.33162 61.5147 6.29402C61.4676 6.26804 61.4189 6.2449 61.369 6.22473L61.2342 6.18098L61.1139 6.16274C61.0183 6.15238 60.9218 6.15238 60.8261 6.16274H60.7423C60.4313 6.19841 60.1255 6.27062 59.8314 6.37789L59.7549 6.40342C59.1843 6.6029 58.6248 6.83297 58.0789 7.09263C56.9494 7.61774 55.8636 8.20848 54.9527 8.71536C51.7136 10.5387 48.4854 12.5334 45.1406 14.8125C46.5361 14.1196 47.9207 13.4158 49.2797 12.7303C51.2946 11.7092 53.375 10.6517 55.4337 9.65254C56.6688 9.06544 57.6671 8.60961 58.578 8.21943C58.6239 8.19744 58.6714 8.17914 58.7201 8.16473L58.8732 8.12097L59.0335 8.09179H59.1901H59.3505H59.5071C59.5581 8.09179 59.6092 8.09179 59.6602 8.11367H59.7185H59.7658C59.7658 8.11367 59.7913 8.11367 59.7877 8.1392C59.7773 8.16043 59.7624 8.17911 59.744 8.1939L59.6893 8.25589C59.3614 8.62055 58.997 8.98521 58.5015 9.47386C57.7728 10.174 56.9639 10.9143 55.951 11.8077C55.4883 12.2234 55.0219 12.6318 54.5556 13.0402C53.9942 12.6139 53.3044 12.3919 52.5999 12.4109C51.8955 12.43 51.2186 12.6888 50.681 13.1448C50.1435 13.6009 49.7773 14.2267 49.6431 14.9191C49.5089 15.6114 49.6146 16.3289 49.9428 16.953C48.5729 18.0944 47.1628 19.2139 45.7965 20.3006L45.6945 20.3808C42.5829 16.6103 37.5293 13.8571 32.2789 13.8571C27.8172 13.8568 23.5356 15.6184 20.3641 18.7592C17.1925 21.8999 15.3871 26.1662 15.3401 30.6314H3.31641V32.4547H61.6131V30.6314H49.2251C49.1961 27.4208 48.2532 24.2849 46.507 21.5915L46.1135 21.8614C41.9744 24.713 39.0231 26.5108 35.0152 28.4435C35.3432 28.2684 35.7075 28.0788 36.0719 27.8782C39.1616 26.1607 42.8926 23.6482 45.9094 21.5587C46.037 21.4675 46.1681 21.3837 46.2956 21.2888C47.7531 20.2751 49.2105 19.1993 50.8064 17.9631C51.3598 18.3876 52.0404 18.6124 52.7375 18.6012C53.4347 18.59 54.1077 18.3433 54.6472 17.9013C55.1867 17.4592 55.5612 16.8477 55.7099 16.1659C55.8587 15.4841 55.7729 14.772 55.4664 14.1452C55.9523 13.7294 56.4381 13.3113 56.9239 12.8907C57.9513 11.9681 58.7675 11.2023 59.4962 10.4803C59.8423 10.1375 60.2941 9.68171 60.735 9.18577C60.9718 8.91593 61.154 8.69713 61.3253 8.45645L61.3471 8.43093C61.5612 8.15799 61.7377 7.8575 61.8718 7.53751C61.9231 7.40311 61.9538 7.26173 61.9629 7.11815C61.9635 7.007 61.9475 6.89638 61.9155 6.78996Z" fill="white"/>
<path d="M2.80286 43.9598H0.000976562V52.6496H2.80286V43.9598Z" fill="white"/>
<path d="M2.58413 41.6989C2.59597 42.0101 2.48417 42.3134 2.27318 42.5423C2.06218 42.7712 1.76918 42.9072 1.45827 42.9205H1.13035C0.818797 42.9082 0.524866 42.7726 0.313096 42.5435C0.101326 42.3145 -0.0109739 42.0107 0.000853612 41.6989C-0.0109905 41.3876 0.100813 41.0844 0.311804 40.8555C0.522796 40.6265 0.815798 40.4905 1.12671 40.4773H1.45827C1.76918 40.4905 2.06218 40.6265 2.27318 40.8555C2.48417 41.0844 2.59597 41.3876 2.58413 41.6989Z" fill="white"/>
<path d="M12.9571 44.4484C13.6306 45.2434 13.9735 46.2667 13.9154 47.3074V52.6496H11.1317V47.6866C11.1644 47.1679 10.9946 46.6567 10.6581 46.2608C10.4933 46.09 10.2939 45.9564 10.0734 45.869C9.85279 45.7816 9.61612 45.7423 9.37917 45.7539C9.1428 45.7426 8.90676 45.782 8.68683 45.8694C8.4669 45.9568 8.26817 46.0903 8.10393 46.2608C7.76741 46.6567 7.59759 47.1679 7.63027 47.6866V52.6496H4.83203V43.5076H7.63027V44.7219C7.92154 44.3069 8.31586 43.9751 8.77434 43.7592C9.27921 43.5134 9.83431 43.3886 10.3957 43.3946C10.8734 43.3748 11.3496 43.4588 11.7918 43.6407C12.2339 43.8226 12.6315 44.0982 12.9571 44.4484Z" fill="white"/>
<path d="M18.6632 39.7953V52.6496H15.8613V39.7953H18.6632Z" fill="white"/>
<path d="M29.2512 48.7514H22.9187C22.9282 49.2393 23.1237 49.705 23.4653 50.0532C23.7875 50.3522 24.2138 50.5131 24.6531 50.5018C24.9578 50.5262 25.2625 50.4542 25.524 50.2958C25.7855 50.1374 25.9907 49.9008 26.1105 49.6193H29.0909C28.9398 50.2153 28.6572 50.7698 28.2638 51.242C27.8557 51.7265 27.3439 52.1129 26.7663 52.3725C26.1314 52.6506 25.4445 52.7899 24.7514 52.7809C23.9192 52.7949 23.097 52.5979 22.3613 52.2084C21.6688 51.8313 21.1005 51.2613 20.7253 50.5674C20.3395 49.7946 20.1387 48.9425 20.1387 48.0786C20.1387 47.2147 20.3395 46.3626 20.7253 45.5898C21.0955 44.8946 21.6619 44.3239 22.354 43.9488C23.0943 43.5576 23.9217 43.3606 24.7587 43.3763C25.5789 43.361 26.3897 43.5529 27.1161 43.9342C27.7954 44.2969 28.3549 44.8493 28.7265 45.5241C29.1287 46.2612 29.3298 47.0913 29.3095 47.9309C29.3058 48.2053 29.2863 48.4792 29.2512 48.7514ZM26.4384 47.1943C26.4466 46.9783 26.4067 46.7632 26.3216 46.5646C26.2365 46.3659 26.1084 46.1886 25.9465 46.0456C25.603 45.7584 25.166 45.6079 24.7186 45.6226C24.2862 45.6093 23.8638 45.7545 23.5309 46.031C23.1948 46.3315 22.9819 46.7459 22.9333 47.1943H26.4384Z" fill="white"/>
<path d="M35.864 50.2757V52.6496H34.443C33.5886 52.706 32.7432 52.4465 32.0674 51.9203C31.499 51.4207 31.2184 50.6112 31.2184 49.4844V45.8378H30.1035V43.5112H31.2184V41.2795H34.0167V43.5076H35.8385V45.8341H34.0167V49.5026C34.0065 49.6093 34.0188 49.717 34.0527 49.8188C34.0866 49.9205 34.1413 50.014 34.2134 50.0933C34.401 50.2325 34.6332 50.2974 34.8656 50.2757H35.864Z" fill="white"/>
<path d="M39.0083 52.3724C38.4339 52.13 37.9319 51.7431 37.5509 51.2493C37.1948 50.7888 36.9831 50.233 36.9424 49.6521H39.7151C39.7288 49.8046 39.7753 49.9523 39.8514 50.0851C39.9275 50.2179 40.0314 50.3327 40.156 50.4215C40.4362 50.6244 40.7759 50.7283 41.1215 50.7169C41.4057 50.7339 41.6883 50.6626 41.9304 50.5127C42.0194 50.4555 42.0924 50.3766 42.1427 50.2835C42.1931 50.1904 42.219 50.0861 42.2182 49.9803C42.2189 49.8527 42.18 49.7281 42.1069 49.6236C42.0338 49.5191 41.9301 49.4398 41.8102 49.3968C41.38 49.2228 40.9364 49.0838 40.4839 48.9811C39.9277 48.8587 39.381 48.6966 38.848 48.4961C38.4102 48.3277 38.0218 48.0518 37.7185 47.6939C37.3827 47.2746 37.2128 46.7463 37.2412 46.2097C37.2393 45.6994 37.3903 45.2002 37.6747 44.7766C37.9953 44.3205 38.4388 43.9651 38.9536 43.7519C39.589 43.492 40.2715 43.3678 40.9576 43.3872C41.935 43.3307 42.8992 43.6343 43.6684 44.2405C44.3318 44.8135 44.7407 45.6268 44.8052 46.5014H42.2182C42.2032 46.3537 42.1583 46.2106 42.0863 46.0809C42.0143 45.9511 41.9166 45.8374 41.7992 45.7466C41.5322 45.5524 41.2072 45.4547 40.8774 45.4694C40.6129 45.4526 40.3496 45.5175 40.1232 45.6554C40.0396 45.7128 39.9718 45.7903 39.926 45.8808C39.8801 45.9713 39.8577 46.0718 39.8609 46.1732C39.8616 46.3029 39.9022 46.4291 39.9772 46.5348C40.0522 46.6405 40.1578 46.7205 40.2799 46.764C40.699 46.938 41.1349 47.0688 41.5806 47.1542C42.1416 47.2943 42.694 47.4672 43.2348 47.672C43.6701 47.848 44.0545 48.13 44.3534 48.4925C44.6951 48.921 44.8722 49.4579 44.8525 50.0058C44.8597 50.5191 44.7026 51.0213 44.4044 51.4389C44.0735 51.8832 43.6256 52.2267 43.1109 52.4308C42.4902 52.6841 41.8245 52.8082 41.1543 52.7955C40.4174 52.8053 39.6865 52.6612 39.0083 52.3724Z" fill="white"/>
<path d="M52.1366 52.6496L49.3529 48.817V52.6496H46.5547V40.5247H49.3529V47.2271L52.1184 43.5076H55.5725L51.7759 48.095L55.6053 52.6496H52.1366Z" fill="white"/>
<path d="M65.9999 43.5076L60.2723 57H57.2591L59.3541 52.3506L55.6377 43.5185H58.7639L60.8771 49.2364L62.9721 43.5185L65.9999 43.5076Z" fill="white"/>
</svg>
