<svg width="19" height="19" viewBox="0 0 19 19" fill="none" xmlns="http://www.w3.org/2000/svg">
<g clip-path="url(#clip0_414_1007)">
<path d="M9.48198 6.46747C7.82937 6.46747 6.48074 7.81613 6.48074 9.46875C6.48074 11.1214 7.82937 12.47 9.48198 12.47C11.1345 12.47 12.4832 11.1214 12.4832 9.46875C12.4832 7.81613 11.1345 6.46747 9.48198 6.46747ZM18.4834 9.46875C18.4834 8.22592 18.4946 6.99433 18.4248 5.75374C18.355 4.31277 18.0264 3.0339 16.9726 1.98019C15.9167 0.924226 14.6401 0.597757 13.1991 0.527959C11.9563 0.458162 10.7248 0.46942 9.48422 0.46942C8.2414 0.46942 7.00983 0.458162 5.76927 0.527959C4.32832 0.597757 3.04948 0.926479 1.99579 1.98019C0.939843 3.03616 0.613379 4.31277 0.543583 5.75374C0.473787 6.99658 0.485045 8.22818 0.485045 9.46875C0.485045 10.7093 0.473787 11.9432 0.543583 13.1837C0.613379 14.6247 0.942095 15.9036 1.99579 16.9573C3.05173 18.0133 4.32832 18.3398 5.76927 18.4096C7.01208 18.4793 8.24365 18.4681 9.48422 18.4681C10.727 18.4681 11.9585 18.4793 13.1991 18.4096C14.6401 18.3398 15.9189 18.011 16.9726 16.9573C18.0286 15.9013 18.355 14.6247 18.4248 13.1837C18.4969 11.9432 18.4834 10.7116 18.4834 9.46875ZM9.48198 14.0866C6.92653 14.0866 4.86417 12.0242 4.86417 9.46875C4.86417 6.91327 6.92653 4.85088 9.48198 4.85088C12.0374 4.85088 14.0997 6.91327 14.0997 9.46875C14.0997 12.0242 12.0374 14.0866 9.48198 14.0866ZM14.2889 5.74023C13.6923 5.74023 13.2104 5.25841 13.2104 4.66175C13.2104 4.0651 13.6923 3.58327 14.2889 3.58327C14.8855 3.58327 15.3673 4.0651 15.3673 4.66175C15.3675 4.80343 15.3397 4.94375 15.2856 5.07468C15.2315 5.20561 15.1521 5.32456 15.0518 5.42475C14.9516 5.52493 14.8327 5.60436 14.7017 5.6585C14.5709 5.71264 14.4305 5.74041 14.2889 5.74023Z" fill="#8E9CA1"/>
</g>
<defs>
<clipPath id="clip0_414_1007">
<rect width="18" height="18" fill="white" transform="translate(0.484375 0.46875)"/>
</clipPath>
</defs>
</svg>
