<svg width="107" height="93" viewBox="0 0 107 93" fill="none" xmlns="http://www.w3.org/2000/svg">
<g filter="url(#filter0_d_201_3644)">
<path d="M11.975 27.7334C11.975 28.3824 11.7159 29.0048 11.2547 29.4637C10.7935 29.9226 10.1679 30.1805 9.51562 30.1805C10.1679 30.1805 10.7935 30.4383 11.2547 30.8972C11.7159 31.3561 11.975 31.9785 11.975 32.6275C11.9743 32.306 12.0374 31.9874 12.1608 31.6902C12.2841 31.393 12.4652 31.123 12.6937 30.8956C12.9223 30.6682 13.1937 30.488 13.4924 30.3653C13.7911 30.2425 14.1112 30.1797 14.4344 30.1805C14.1112 30.1812 13.7911 30.1184 13.4924 29.9956C13.1937 29.8729 12.9223 29.6927 12.6937 29.4653C12.4652 29.238 12.2841 28.9679 12.1608 28.6707C12.0374 28.3735 11.9743 28.055 11.975 27.7334Z" fill="white"/>
<path d="M58.4301 8.15723C58.4301 8.80623 58.171 9.42865 57.7098 9.88756C57.2485 10.3465 56.623 10.6043 55.9707 10.6043C56.623 10.6043 57.2485 10.8621 57.7098 11.321C58.171 11.7799 58.4301 12.4023 58.4301 13.0513C58.4294 12.7298 58.4925 12.4113 58.6158 12.1141C58.7392 11.8168 58.9203 11.5468 59.1488 11.3194C59.3774 11.092 59.6488 10.9118 59.9475 10.7891C60.2462 10.6664 60.5663 10.6036 60.8895 10.6043C60.5663 10.605 60.2462 10.5422 59.9475 10.4195C59.6488 10.2968 59.3774 10.1165 59.1488 9.88916C58.9203 9.66179 58.7392 9.39174 58.6158 9.09452C58.4925 8.79731 58.4294 8.47878 58.4301 8.15723Z" fill="white"/>
<path d="M73.7328 4.89412C73.7321 4.57257 73.7952 4.25404 73.9186 3.95682C74.0419 3.65961 74.223 3.38956 74.4516 3.16219C74.6801 2.93482 74.9515 2.75459 75.2502 2.63187C75.5489 2.50915 75.869 2.44634 76.1922 2.44706C75.869 2.44778 75.5489 2.38497 75.2502 2.26225C74.9515 2.13953 74.6801 1.95931 74.4516 1.73193C74.223 1.50456 74.0419 1.23451 73.9186 0.937297C73.7952 0.640082 73.7321 0.321554 73.7328 0V0C73.7328 0.649001 73.4737 1.27142 73.0125 1.73033C72.5513 2.18925 71.9257 2.44706 71.2734 2.44706C71.9257 2.44706 72.5513 2.70487 73.0125 3.16379C73.4737 3.6227 73.7328 4.24512 73.7328 4.89412Z" fill="white"/>
<path d="M96.141 30.4521C96.141 31.1011 95.8819 31.7236 95.4207 32.1825C94.9595 32.6414 94.3339 32.8992 93.6816 32.8992C94.3339 32.8992 94.9595 33.157 95.4207 33.6159C95.8819 34.0748 96.141 34.6973 96.141 35.3463C96.1403 35.0247 96.2034 34.7062 96.3268 34.409C96.4501 34.1118 96.6312 33.8417 96.8598 33.6143C97.0883 33.387 97.3597 33.2067 97.6584 33.084C97.9571 32.9613 98.2772 32.8985 98.6004 32.8992C98.2772 32.8999 97.9571 32.8371 97.6584 32.7144C97.3597 32.5917 97.0883 32.4115 96.8598 32.1841C96.6312 31.9567 96.4501 31.6867 96.3268 31.3894C96.2034 31.0922 96.1403 30.7737 96.141 30.4521Z" fill="white"/>
<path d="M28.0982 17.129C31.8713 17.129 34.9299 14.0857 34.9299 10.3316C34.9299 6.57747 31.8713 3.53418 28.0982 3.53418C24.3252 3.53418 21.2666 6.57747 21.2666 10.3316C21.2666 14.0857 24.3252 17.129 28.0982 17.129Z" fill="white"/>
<path d="M96.8733 10.1256C96.8048 9.91912 96.6866 9.73242 96.529 9.58183C96.4505 9.50776 96.3644 9.44214 96.2721 9.38607C96.2013 9.34733 96.1283 9.31283 96.0535 9.28275L95.8512 9.21749L95.6709 9.1903C95.5274 9.17485 95.3826 9.17485 95.2391 9.1903H95.1134C94.6469 9.24349 94.1883 9.35118 93.7471 9.51114L93.6323 9.54921C92.7764 9.84668 91.9372 10.1898 91.1183 10.577C89.424 11.36 87.7954 12.241 86.4291 12.9968C81.5704 15.7158 76.7281 18.6903 71.711 22.089C73.8042 21.0558 75.881 20.0063 77.9196 18.984C80.9419 17.4614 84.0626 15.8844 87.1505 14.3944C89.0032 13.5189 90.5007 12.8391 91.867 12.2573C91.9358 12.2245 92.0071 12.1972 92.0802 12.1757L92.3097 12.1105L92.5502 12.067H92.7852H93.0257H93.2607C93.3372 12.067 93.4137 12.067 93.4902 12.0996H93.5777H93.6487C93.6487 12.0996 93.687 12.0996 93.6815 12.1377C93.666 12.1693 93.6436 12.1972 93.6159 12.2192L93.534 12.3117C93.0421 12.8555 92.4956 13.3992 91.7523 14.1279C90.6592 15.172 89.4459 16.2759 87.9265 17.6082C87.2325 18.2281 86.5329 18.8372 85.8333 19.4462C84.9913 18.8104 83.9565 18.4794 82.8999 18.5078C81.8432 18.5361 80.8279 18.9222 80.0215 19.6022C79.2152 20.2822 78.666 21.2155 78.4647 22.248C78.2634 23.2805 78.422 24.3504 78.9143 25.2811C76.8593 26.9832 74.7442 28.6526 72.6947 30.2731L72.5417 30.3927C67.8743 24.7699 60.2939 20.6643 52.4184 20.6643C45.7259 20.6639 39.3034 23.2908 34.5461 27.9744C29.7887 32.658 27.0807 39.0201 27.0101 45.6787H8.97461V48.3976H96.4196V45.6787H77.8376C77.7942 40.8909 76.3798 36.2146 73.7605 32.1981L73.1702 32.6005C66.9616 36.853 62.5347 39.5339 56.5229 42.4159C57.0147 42.1549 57.5613 41.8722 58.1078 41.5731C62.7424 39.0118 68.3389 35.2651 72.8641 32.1492C73.0554 32.0132 73.2522 31.8881 73.4435 31.7468C75.6296 30.235 77.8157 28.6308 80.2095 26.7874C81.0397 27.4203 82.0605 27.7556 83.1063 27.7389C84.1521 27.7221 85.1615 27.3543 85.9708 26.6951C86.7801 26.0359 87.3419 25.124 87.5649 24.1073C87.788 23.0906 87.6593 22.0287 87.1997 21.0939C87.9284 20.474 88.6571 19.8504 89.3858 19.2233C90.927 17.8475 92.1512 16.7055 93.2443 15.6288C93.7635 15.1176 94.4412 14.4379 95.1025 13.6983C95.4577 13.2959 95.731 12.9697 95.9879 12.6108L96.0207 12.5727C96.3418 12.1657 96.6065 11.7176 96.8077 11.2404C96.8846 11.04 96.9307 10.8291 96.9443 10.615C96.9453 10.4493 96.9213 10.2843 96.8733 10.1256Z" fill="white"/>
<path d="M8.2038 65.5537H4.00098V78.5123H8.2038V65.5537Z" fill="white"/>
<path d="M7.87619 62.1821C7.89395 62.6462 7.72625 63.0984 7.40976 63.4398C7.09328 63.7812 6.65377 63.984 6.18741 64.0038H5.69553C5.2282 63.9854 4.7873 63.7832 4.46964 63.4416C4.15199 63.1001 3.98354 62.6471 4.00128 62.1821C3.98351 61.7179 4.15122 61.2657 4.46771 60.9243C4.78419 60.5829 5.2237 60.3801 5.69006 60.3604H6.18741C6.65377 60.3801 7.09328 60.5829 7.40976 60.9243C7.72625 61.2657 7.89395 61.7179 7.87619 62.1821Z" fill="white"/>
<path d="M23.4357 66.2828C24.4458 67.4683 24.9603 68.9943 24.8731 70.5461V78.5127H20.6976V71.1117C20.7466 70.3381 20.4919 69.5758 19.9871 68.9854C19.7399 68.7308 19.4409 68.5316 19.11 68.4012C18.7792 68.2708 18.4242 68.2123 18.0688 68.2296C17.7142 68.2128 17.3601 68.2715 17.0302 68.4019C16.7004 68.5322 16.4023 68.7312 16.1559 68.9854C15.6511 69.5758 15.3964 70.3381 15.4454 71.1117V78.5127H11.248V64.8798H15.4454V66.6906C15.8823 66.0718 16.4738 65.577 17.1615 65.255C17.9188 64.8885 18.7515 64.7023 19.5936 64.7112C20.31 64.6818 21.0244 64.807 21.6877 65.0783C22.3509 65.3496 22.9472 65.7605 23.4357 66.2828Z" fill="white"/>
<path d="M31.9948 59.3438V78.5124H27.792V59.3438H31.9948Z" fill="white"/>
<path d="M47.8768 72.6994H38.3781C38.3922 73.4269 38.6855 74.1215 39.1979 74.6407C39.6813 75.0865 40.3207 75.3266 40.9796 75.3096C41.4367 75.3461 41.8937 75.2386 42.286 75.0025C42.6783 74.7663 42.9861 74.4134 43.1657 73.9936H47.6364C47.4098 74.8824 46.9858 75.7093 46.3957 76.4135C45.7836 77.136 45.0159 77.7121 44.1495 78.0992C43.1971 78.514 42.1667 78.7217 41.1272 78.7083C39.8788 78.7292 38.6455 78.4355 37.5419 77.8545C36.5032 77.2923 35.6508 76.4422 35.088 75.4075C34.5093 74.255 34.208 72.9844 34.208 71.6961C34.208 70.4078 34.5093 69.1372 35.088 67.9847C35.6432 66.9481 36.4928 66.097 37.531 65.5377C38.6415 64.9542 39.8825 64.6605 41.1381 64.6839C42.3683 64.6611 43.5845 64.9472 44.6742 65.5159C45.6932 66.0568 46.5324 66.8804 47.0898 67.8868C47.6931 68.986 47.9947 70.2239 47.9643 71.4759C47.9587 71.885 47.9295 72.2936 47.8768 72.6994ZM43.6576 70.3774C43.6698 70.0553 43.61 69.7346 43.4824 69.4383C43.3548 69.1421 43.1626 68.8778 42.9198 68.6645C42.4046 68.2362 41.7489 68.0117 41.078 68.0337C40.4293 68.0138 39.7957 68.2304 39.2963 68.6427C38.7922 69.0908 38.4728 69.7088 38.4 70.3774H43.6576Z" fill="white"/>
<path d="M57.7959 74.9729V78.513H55.6645C54.3829 78.5972 53.1148 78.2102 52.1011 77.4254C51.2485 76.6805 50.8277 75.4732 50.8277 73.7929V68.355H49.1553V64.8856H50.8277V61.5576H55.025V64.8802H57.7577V68.3496H55.025V73.8201C55.0098 73.9793 55.0282 74.1399 55.079 74.2916C55.1298 74.4433 55.212 74.5828 55.3201 74.7011C55.6014 74.9085 55.9498 75.0053 56.2984 74.9729H57.7959Z" fill="white"/>
<path d="M62.5129 78.0994C61.6513 77.7378 60.8983 77.1609 60.3268 76.4245C59.7927 75.7378 59.4751 74.9089 59.4141 74.0427H63.5732C63.5937 74.2701 63.6634 74.4904 63.7776 74.6885C63.8917 74.8865 64.0476 75.0576 64.2345 75.1901C64.6548 75.4927 65.1643 75.6476 65.6828 75.6306C66.1091 75.656 66.5329 75.5496 66.8961 75.3261C67.0295 75.2407 67.1391 75.1232 67.2146 74.9844C67.2901 74.8455 67.329 74.69 67.3278 74.5321C67.3289 74.3419 67.2705 74.156 67.1609 74.0002C67.0513 73.8444 66.8957 73.7262 66.7157 73.6621C66.0704 73.4026 65.4051 73.1952 64.7263 73.0421C63.8921 72.8595 63.072 72.6178 62.2724 72.3189C61.6158 72.0677 61.0332 71.6563 60.5782 71.1226C60.0745 70.4973 59.8196 69.7095 59.8622 68.9093C59.8594 68.1483 60.086 67.4039 60.5126 66.7722C60.9934 66.0921 61.6587 65.5622 62.4309 65.2442C63.3839 64.8567 64.4077 64.6715 65.4368 64.7004C66.9029 64.6162 68.3493 65.0688 69.503 65.9729C70.4982 66.8273 71.1116 68.04 71.2082 69.3444H67.3278C67.3053 69.1241 67.238 68.9107 67.1299 68.7172C67.0219 68.5237 66.8754 68.3541 66.6993 68.2187C66.2988 67.9291 65.8113 67.7834 65.3166 67.8054C64.9198 67.7804 64.5249 67.8772 64.1853 68.0828C64.0599 68.1684 63.9582 68.2839 63.8894 68.4188C63.8207 68.5538 63.7871 68.7037 63.7918 68.8549C63.7929 69.0482 63.8538 69.2365 63.9663 69.3941C64.0787 69.5518 64.2373 69.6711 64.4203 69.7359C65.0491 69.9954 65.7028 70.1904 66.3714 70.3177C67.2129 70.5267 68.0415 70.7845 68.8527 71.0899C69.5056 71.3524 70.0823 71.773 70.5305 72.3135C71.0432 72.9525 71.3088 73.7531 71.2793 74.5702C71.29 75.3357 71.0544 76.0845 70.607 76.7073C70.1107 77.3699 69.439 77.882 68.6668 78.1864C67.7358 78.5642 66.7372 78.7492 65.732 78.7302C64.6265 78.7449 63.5302 78.53 62.5129 78.0994Z" fill="white"/>
<path d="M82.2049 78.5127L78.0294 72.7975V78.5127H73.832V60.4316H78.0294V70.4265L82.1776 64.8799H87.3587L81.6638 71.7207L87.4079 78.5127H82.2049Z" fill="white"/>
<path d="M103 64.8799L94.4089 85.0002H89.8891L93.0317 78.0668L87.457 64.8962H92.1463L95.3162 73.4228L98.4587 64.8962L103 64.8799Z" fill="white"/>
</g>
<defs>
<filter id="filter0_d_201_3644" x="0" y="0" width="107" height="93" filterUnits="userSpaceOnUse" color-interpolation-filters="sRGB">
<feFlood flood-opacity="0" result="BackgroundImageFix"/>
<feColorMatrix in="SourceAlpha" type="matrix" values="0 0 0 0 0 0 0 0 0 0 0 0 0 0 0 0 0 0 127 0" result="hardAlpha"/>
<feOffset dy="4"/>
<feGaussianBlur stdDeviation="2"/>
<feComposite in2="hardAlpha" operator="out"/>
<feColorMatrix type="matrix" values="0 0 0 0 0 0 0 0 0 0 0 0 0 0 0 0 0 0 0.25 0"/>
<feBlend mode="normal" in2="BackgroundImageFix" result="effect1_dropShadow_201_3644"/>
<feBlend mode="normal" in="SourceGraphic" in2="effect1_dropShadow_201_3644" result="shape"/>
</filter>
</defs>
</svg>
