<svg width="117" height="10" viewBox="0 0 117 10" fill="none" xmlns="http://www.w3.org/2000/svg">
<path d="M0.274858 9.58691V0.859641H5.95099V2.18493H1.85582V4.55424H5.65696V5.87953H1.85582V8.26163H5.98509V9.58691H0.274858ZM9.48494 0.859641L11.4068 4.05566H11.475L13.4054 0.859641H15.208L12.519 5.22328L15.2506 9.58691H13.4182L11.475 6.4122H11.4068L9.46364 9.58691H7.63977L10.3969 5.22328L7.67386 0.859641H9.48494ZM17.0491 9.58691V0.859641H20.3218C20.9923 0.859641 21.5548 0.984641 22.0093 1.23464C22.4667 1.48464 22.8119 1.82839 23.0448 2.26589C23.2806 2.70055 23.3985 3.19487 23.3985 3.74885C23.3985 4.3085 23.2806 4.80566 23.0448 5.24032C22.809 5.67498 22.461 6.01731 22.0008 6.26731C21.5406 6.51447 20.9738 6.63805 20.3005 6.63805H18.1315V5.33833H20.0874C20.4795 5.33833 20.8005 5.27015 21.0505 5.13379C21.3005 4.99743 21.4852 4.80993 21.6045 4.57129C21.7266 4.33265 21.7877 4.0585 21.7877 3.74885C21.7877 3.43919 21.7266 3.16646 21.6045 2.93066C21.4852 2.69487 21.2991 2.51163 21.0462 2.38095C20.7962 2.24743 20.4738 2.18066 20.0789 2.18066H18.63V9.58691H17.0491ZM25.3717 9.58691V0.859641H26.9527V8.26163H30.7964V9.58691H25.3717ZM40.2271 5.22328C40.2271 6.16362 40.0509 6.96902 39.6987 7.63947C39.3492 8.30708 38.8719 8.81845 38.2668 9.17356C37.6646 9.52868 36.9813 9.70623 36.2171 9.70623C35.4529 9.70623 34.7683 9.52868 34.1631 9.17356C33.5609 8.81561 33.0836 8.30282 32.7313 7.63521C32.3819 6.96475 32.2072 6.16078 32.2072 5.22328C32.2072 4.28294 32.3819 3.47896 32.7313 2.81135C33.0836 2.14089 33.5609 1.62811 34.1631 1.27299C34.7683 0.91788 35.4529 0.740323 36.2171 0.740323C36.9813 0.740323 37.6646 0.91788 38.2668 1.27299C38.8719 1.62811 39.3492 2.14089 39.6987 2.81135C40.0509 3.47896 40.2271 4.28294 40.2271 5.22328ZM38.6376 5.22328C38.6376 4.56135 38.5339 4.00311 38.3265 3.54856C38.1219 3.09118 37.8379 2.74601 37.4742 2.51305C37.1106 2.27726 36.6916 2.15936 36.2171 2.15936C35.7427 2.15936 35.3237 2.27726 34.96 2.51305C34.5964 2.74601 34.3109 3.09118 34.1035 3.54856C33.8989 4.00311 33.7967 4.56135 33.7967 5.22328C33.7967 5.88521 33.8989 6.44487 34.1035 6.90225C34.3109 7.3568 34.5964 7.70197 34.96 7.93777C35.3237 8.17072 35.7427 8.2872 36.2171 8.2872C36.6916 8.2872 37.1106 8.17072 37.4742 7.93777C37.8379 7.70197 38.1219 7.3568 38.3265 6.90225C38.5339 6.44487 38.6376 5.88521 38.6376 5.22328ZM42.3217 9.58691V0.859641H45.5945C46.2649 0.859641 46.8274 0.976118 47.282 1.20907C47.7393 1.44203 48.0845 1.76873 48.3175 2.18919C48.5533 2.6068 48.6712 3.09402 48.6712 3.65083C48.6712 4.21049 48.5518 4.69629 48.3132 5.10822C48.0774 5.51731 47.7294 5.83407 47.2692 6.0585C46.8089 6.2801 46.2436 6.39089 45.5732 6.39089H43.2422V5.07839H45.3601C45.7521 5.07839 46.0732 5.02441 46.3232 4.91646C46.5732 4.80566 46.7578 4.64515 46.8771 4.43493C46.9993 4.22186 47.0604 3.96049 47.0604 3.65083C47.0604 3.34118 46.9993 3.07697 46.8771 2.85822C46.755 2.63663 46.5689 2.46902 46.3189 2.35538C46.0689 2.2389 45.7464 2.18066 45.3516 2.18066H43.9027V9.58691H42.3217ZM46.8303 5.63237L48.9908 9.58691H47.2266L45.1044 5.63237H46.8303ZM50.7264 9.58691V0.859641H56.4026V2.18493H52.3074V4.55424H56.1085V5.87953H52.3074V8.26163H56.4366V9.58691H50.7264ZM62.192 0.859641H64.1267L66.7176 7.1835H66.8199L69.4108 0.859641H71.3455V9.58691H69.8284V3.59118H69.7474L67.3355 9.56135H66.202L63.7901 3.57839H63.7091V9.58691H62.192V0.859641ZM81.4653 5.22328C81.4653 6.16362 81.2892 6.96902 80.9369 7.63947C80.5875 8.30708 80.1102 8.81845 79.5051 9.17356C78.9028 9.52868 78.2196 9.70623 77.4554 9.70623C76.6912 9.70623 76.0065 9.52868 75.4014 9.17356C74.7991 8.81561 74.3219 8.30282 73.9696 7.63521C73.6202 6.96475 73.4455 6.16078 73.4455 5.22328C73.4455 4.28294 73.6202 3.47896 73.9696 2.81135C74.3219 2.14089 74.7991 1.62811 75.4014 1.27299C76.0065 0.91788 76.6912 0.740323 77.4554 0.740323C78.2196 0.740323 78.9028 0.91788 79.5051 1.27299C80.1102 1.62811 80.5875 2.14089 80.9369 2.81135C81.2892 3.47896 81.4653 4.28294 81.4653 5.22328ZM79.8759 5.22328C79.8759 4.56135 79.7722 4.00311 79.5648 3.54856C79.3602 3.09118 79.0761 2.74601 78.7125 2.51305C78.3489 2.27726 77.9298 2.15936 77.4554 2.15936C76.981 2.15936 76.5619 2.27726 76.1983 2.51305C75.8347 2.74601 75.5491 3.09118 75.3418 3.54856C75.1372 4.00311 75.0349 4.56135 75.0349 5.22328C75.0349 5.88521 75.1372 6.44487 75.3418 6.90225C75.5491 7.3568 75.8347 7.70197 76.1983 7.93777C76.5619 8.17072 76.981 8.2872 77.4554 8.2872C77.9298 8.2872 78.3489 8.17072 78.7125 7.93777C79.0761 7.70197 79.3602 7.3568 79.5648 6.90225C79.7722 6.44487 79.8759 5.88521 79.8759 5.22328ZM83.56 9.58691V0.859641H86.8327C87.5032 0.859641 88.0657 0.976118 88.5202 1.20907C88.9776 1.44203 89.3228 1.76873 89.5558 2.18919C89.7915 2.6068 89.9094 3.09402 89.9094 3.65083C89.9094 4.21049 89.7901 4.69629 89.5515 5.10822C89.3157 5.51731 88.9677 5.83407 88.5075 6.0585C88.0472 6.2801 87.4819 6.39089 86.8114 6.39089H84.4805V5.07839H86.5984C86.9904 5.07839 87.3114 5.02441 87.5614 4.91646C87.8114 4.80566 87.9961 4.64515 88.1154 4.43493C88.2376 4.22186 88.2987 3.96049 88.2987 3.65083C88.2987 3.34118 88.2376 3.07697 88.1154 2.85822C87.9933 2.63663 87.8072 2.46902 87.5572 2.35538C87.3072 2.2389 86.9847 2.18066 86.5898 2.18066H85.141V9.58691H83.56ZM88.0685 5.63237L90.229 9.58691H88.4648L86.3427 5.63237H88.0685ZM91.9647 9.58691V0.859641H97.6408V2.18493H93.5457V4.55424H97.3468V5.87953H93.5457V8.26163H97.6749V9.58691H91.9647ZM112.282 9.3568L111.405 8.48748L114.034 5.85822H107.646V4.58833H114.034L111.405 1.96333L112.282 1.08975L116.416 5.22328L112.282 9.3568Z" fill="#E03F3F"/>
</svg>
