<svg width="100" height="100" viewBox="0 0 100 100" fill="none" xmlns="http://www.w3.org/2000/svg">
<g clip-path="url(#clip0_414_1010)">
<mask id="mask0_414_1010" style="mask-type:luminance" maskUnits="userSpaceOnUse" x="22" y="22" width="55" height="56">
<path d="M76.4268 22.2227H22.2222V77.7782H76.4268V22.2227Z" fill="white"/>
</mask>
<g mask="url(#mask0_414_1010)">
<path d="M32.1066 31.5604C32.1066 30.9083 32.1066 30.3383 32.1066 29.7672C32.1066 27.6008 32.1043 25.4332 32.1066 23.2666C32.1077 22.5212 32.2866 22.3357 33.0131 22.3357C43.9011 22.3334 54.7903 22.3334 65.6782 22.3357C66.3638 22.3357 66.5538 22.5357 66.5549 23.24C66.5571 25.722 66.556 28.2029 66.556 30.685C66.556 30.9427 66.556 31.2016 66.556 31.5281C66.7816 31.5393 66.976 31.5582 67.1704 31.5582C69.1335 31.5593 71.0956 31.5559 73.0588 31.5582C75.0831 31.5593 76.3118 32.7826 76.313 34.8102C76.3152 45.2005 76.3152 55.5897 76.313 65.98C76.313 67.9176 75.0075 69.2163 73.0654 69.2175C67.7692 69.2208 62.4729 69.2175 57.1767 69.2175C56.9189 69.2175 56.6602 69.2175 56.3568 69.2175V76.2913C56.9223 76.2913 57.4878 76.2913 58.0534 76.2913C58.8677 76.2913 59.6832 76.288 60.4975 76.2924C61.1609 76.2958 61.442 76.4958 61.4564 76.9545C61.472 77.439 61.172 77.6656 60.4886 77.6656C53.2482 77.6668 46.0077 77.6656 38.7671 77.6656C38.5449 77.6656 38.3227 77.669 38.1004 77.6656C37.4961 77.6579 37.215 77.4468 37.2017 76.9968C37.1884 76.528 37.4784 76.2958 38.1193 76.2924C39.3227 76.2858 40.527 76.2891 41.7302 76.288C41.9113 76.288 42.0924 76.288 42.3102 76.288V69.2163C42.0924 69.2163 41.8624 69.2163 41.6324 69.2163C36.3173 69.2163 31.0032 69.2163 25.6881 69.2152C23.5995 69.2152 22.3473 67.9519 22.3473 65.8522C22.3473 55.5363 22.3661 45.2205 22.3306 34.9047C22.3239 32.9004 23.8073 31.4572 25.6892 31.5404C27.5924 31.6248 29.5034 31.5593 31.4099 31.5582C31.611 31.5582 31.8121 31.5582 32.1021 31.5582L32.1066 31.5604ZM33.4086 29.4718V60.5515H65.2439V29.4718H33.4086ZM23.6406 61.9113C23.6406 63.2879 23.6406 64.6 23.6406 65.9133C23.6417 67.2165 24.3527 67.9243 25.6692 67.9254C30.1878 67.9276 34.7063 67.9265 39.2249 67.9276C50.4839 67.9276 61.7431 67.9287 73.0021 67.9276C74.2564 67.9276 74.9275 67.2643 74.9409 66.02C74.9486 65.2055 74.942 64.3901 74.942 63.5756C74.942 63.0279 74.942 62.4813 74.942 61.9125L23.6406 61.9113ZM32.0688 60.5704V32.8148C31.8143 32.8148 31.5954 32.8148 31.3777 32.8148C29.4711 32.8148 27.5646 32.8104 25.6592 32.8148C24.306 32.8182 23.6428 33.4791 23.6417 34.8236C23.6406 43.2084 23.6417 51.5933 23.6417 59.9781C23.6417 60.1726 23.6417 60.367 23.6417 60.5704H32.0688ZM66.596 32.8148V60.5559H75.0231C75.0231 60.3315 75.0231 60.1493 75.0231 59.967C75.0231 51.5822 75.0231 43.1973 75.0231 34.8125C75.0231 33.4725 74.3575 32.8182 72.9966 32.8148C71.22 32.8115 69.4435 32.8148 67.667 32.8148C67.3203 32.8148 66.9727 32.8148 66.596 32.8148ZM33.3664 23.5877C33.3664 25.0009 33.3864 26.3297 33.3553 27.6575C33.3442 28.1251 33.5253 28.2062 33.9375 28.2018C35.5663 28.1829 37.195 28.1929 38.8238 28.194C47.4298 28.194 56.0368 28.1906 64.6428 28.2084C65.1984 28.2095 65.3273 28.0318 65.3084 27.513C65.2706 26.4408 65.2706 25.3654 65.3084 24.2933C65.3273 23.7511 65.195 23.5722 64.6095 23.5733C55.4113 23.5933 46.2121 23.5877 37.0139 23.5877C35.8318 23.5877 34.6485 23.5877 33.3664 23.5877ZM55.0959 69.1608H43.68V76.1813H55.0959V69.1608Z" fill="#5D6DFD"/>
<path d="M35.7205 39.982C35.7283 35.9723 38.7802 32.5392 42.701 32.1292C46.8728 31.6927 50.5392 34.3224 51.3959 38.3799C51.4948 38.8477 51.5148 39.3331 51.5559 39.8109C51.5959 40.2831 51.4159 40.6176 50.9059 40.6631C50.4892 40.7009 50.2437 40.3954 50.2148 39.8498C50.0592 36.9056 48.2583 34.4736 45.5552 33.657C42.9587 32.8715 40.6556 33.4826 38.7924 35.4202C36.9103 37.3788 36.3803 39.7431 37.3459 42.2974C38.3046 44.8305 40.2123 46.2704 42.9221 46.5992C43.142 46.6259 43.3653 46.6304 43.5865 46.6537C43.9987 46.697 44.2331 46.9204 44.2198 47.3448C44.2065 47.7736 43.9287 48.0291 43.5387 47.9869C42.7166 47.8958 41.8677 47.8313 41.0923 47.5704C37.8346 46.4748 35.7127 43.4295 35.7205 39.982Z" fill="#5D6DFD"/>
<path d="M41.809 39.0648C41.8067 38.5159 42.2722 38.2381 42.7988 38.4459C44.072 38.9459 45.3409 39.4569 46.6119 39.9635C48.3462 40.6558 50.0794 41.3501 51.8137 42.0401C52.1681 42.1812 52.5324 42.3256 52.5013 42.791C52.4702 43.2555 52.087 43.3477 51.7215 43.4522C50.6372 43.7622 49.5605 44.0988 48.4706 44.3877C48.084 44.4899 47.8873 44.672 47.7884 45.0631C47.5084 46.1742 47.1852 47.2741 46.8863 48.3806C46.7908 48.7328 46.6908 49.0906 46.2508 49.1095C45.8174 49.1284 45.6741 48.794 45.5374 48.4517C44.3387 45.4465 43.1344 42.4445 41.9323 39.4402C41.8779 39.3035 41.8401 39.1615 41.8079 39.0637L41.809 39.0648ZM43.6266 40.0624C44.4776 42.2012 45.2765 44.2099 46.1386 46.3763C46.3041 45.8009 46.4797 45.4076 46.523 44.9998C46.643 43.8599 47.2429 43.2633 48.3762 43.1133C48.8617 43.0488 49.3283 42.8433 49.9516 42.659C47.7729 41.7645 45.7641 40.9402 43.6266 40.0624Z" fill="#5D6DFD"/>
<path d="M54.2217 54.9913C51.372 54.9913 48.521 54.9913 45.6713 54.988C45.4891 54.988 45.2524 55.0147 45.1357 54.9169C44.9435 54.7547 44.7114 54.498 44.7159 54.2858C44.7203 54.077 44.9657 53.8259 45.1691 53.6848C45.3124 53.5848 45.5613 53.6192 45.7635 53.6181C51.3531 53.6148 56.9427 53.6148 62.5321 53.6159C63.3832 53.6159 63.7021 53.8037 63.7066 54.2936C63.711 54.7947 63.3799 54.9924 62.551 54.9924C59.7746 54.9924 56.9982 54.9913 54.2217 54.9913Z" fill="#5D6DFD"/>
<path d="M57.2746 48.5912C55.4237 48.5912 53.5727 48.5946 51.7228 48.589C51.1328 48.5879 50.7796 48.2146 50.9206 47.7469C51.0506 47.3125 51.395 47.2391 51.7984 47.2402C54.5003 47.2469 57.2024 47.2425 59.9044 47.2425C60.8666 47.2425 61.8287 47.2402 62.792 47.2447C63.3641 47.2469 63.6874 47.488 63.7019 47.9114C63.7174 48.3546 63.4319 48.589 62.8275 48.5901C60.9766 48.5957 59.1256 48.5923 57.2757 48.5923L57.2746 48.5912Z" fill="#5D6DFD"/>
<path d="M59.394 40.8723C60.5395 40.8723 61.6849 40.8679 62.8315 40.8735C63.437 40.8768 63.7093 41.0979 63.7048 41.5522C63.7004 41.9944 63.407 42.2233 62.8126 42.2244C60.484 42.2278 58.1563 42.2289 55.8276 42.2244C55.3222 42.2244 54.9444 41.9044 54.9711 41.4868C55.0044 40.9835 55.3566 40.869 55.7909 40.8701C56.992 40.8735 58.193 40.8712 59.394 40.8701V40.8723Z" fill="#5D6DFD"/>
<path d="M60.4596 34.572C61.2529 34.572 62.0474 34.582 62.8406 34.5687C63.3072 34.5609 63.6739 34.6931 63.6906 35.2109C63.7072 35.7285 63.3139 35.8352 62.8928 35.8363C61.2685 35.8408 59.6442 35.8374 58.0199 35.8396C57.5776 35.8396 57.2243 35.6796 57.221 35.1976C57.2176 34.702 57.5843 34.5698 58.0232 34.572C58.8353 34.5765 59.6475 34.572 60.4596 34.572Z" fill="#5D6DFD"/>
<path d="M49.3556 62.3439C50.849 62.3595 51.9166 63.4617 51.8955 64.9693C51.8755 66.4258 50.769 67.489 49.2901 67.4735C47.8413 67.4579 46.7415 66.297 46.767 64.8104C46.7915 63.3983 47.9136 62.3295 49.3556 62.3439ZM50.6368 64.916C50.6456 64.2304 50.0145 63.5994 49.3212 63.5994C48.6302 63.5994 48.0447 64.1682 48.0225 64.8615C48.0013 65.5503 48.6147 66.1981 49.3023 66.2136C49.9901 66.2292 50.6279 65.6092 50.6368 64.916Z" fill="#5D6DFD"/>
<path d="M40.7166 25.0946C41.0477 25.0946 41.3799 25.0879 41.711 25.0957C42.1486 25.1068 42.4164 25.3368 42.4142 25.7746C42.412 26.1835 42.1509 26.4257 41.7466 26.4368C41.0288 26.4568 40.3099 26.4568 39.5922 26.4368C39.1545 26.4257 38.9011 26.1535 38.9167 25.7257C38.9311 25.3201 39.1978 25.1013 39.6122 25.0946C39.98 25.089 40.3488 25.0946 40.7166 25.0946Z" fill="#5D6DFD"/>
<path d="M45.3305 25.0928C45.6626 25.0928 45.996 25.0928 46.3282 25.0928C46.8115 25.0928 47.0615 25.3872 47.0626 25.8183C47.0626 26.2249 46.7637 26.4371 46.3571 26.4426C45.6737 26.4504 44.9894 26.4571 44.305 26.4415C43.8383 26.4304 43.5285 26.1226 43.5696 25.7239C43.6151 25.2794 43.8994 25.0906 44.3317 25.095C44.6639 25.0983 44.9972 25.095 45.3294 25.095L45.3305 25.0928Z" fill="#5D6DFD"/>
<path d="M76.4257 34.8096C76.4257 32.7364 75.1358 31.4477 73.0615 31.4465H71.995H68.1119H67.1719C67.0441 31.4465 66.9141 31.4377 66.7765 31.4288C66.7409 31.4265 66.7054 31.4243 66.6676 31.4221V28.5546C66.6676 26.7825 66.6676 25.0104 66.6665 23.2395C66.6665 22.4706 66.4254 22.2239 65.6787 22.2239C60.058 22.2228 54.4375 22.2217 48.8157 22.2217C43.5483 22.2217 38.2798 22.2217 33.0125 22.2228C32.2236 22.2228 31.9959 22.4561 31.9948 23.265C31.9926 24.8215 31.9926 26.3781 31.9937 27.9346V31.4477H31.4126C30.8304 31.4477 30.2394 31.4543 29.6672 31.4599C29.095 31.4654 28.504 31.4721 27.9218 31.4721C27.0629 31.4721 26.3552 31.4588 25.6952 31.4299C25.6419 31.4277 25.5886 31.4265 25.5364 31.4265C24.6465 31.4265 23.8209 31.7632 23.2122 32.3742C22.5711 33.0197 22.2189 33.9185 22.2222 34.9063C22.2489 42.449 22.2455 50.1172 22.2411 57.5333C22.24 60.3064 22.2389 63.0796 22.2389 65.8527C22.2389 68.027 23.5298 69.3257 25.6908 69.3268C28.6927 69.3279 31.6937 69.3279 34.6946 69.3279H42.2018V76.1774H40.1564C39.4775 76.1774 38.7998 76.1774 38.1209 76.1818C37.7243 76.184 37.4487 76.2696 37.28 76.4452C37.1489 76.5807 37.0866 76.7674 37.0933 77.0007C37.1077 77.515 37.4376 77.7695 38.1009 77.7784C38.1743 77.7784 38.2465 77.7795 38.3198 77.7795H38.7698L49.2479 77.7784C52.9952 77.7784 56.7439 77.7784 60.4914 77.7784C60.918 77.7784 61.2102 77.6917 61.3836 77.5128C61.5147 77.3772 61.5769 77.1896 61.5702 76.9529C61.5491 76.2752 60.9869 76.1852 60.5002 76.1829C60.1669 76.1807 59.8326 76.1807 59.4993 76.1807H58.055L56.4694 76.1818V69.3302C56.4694 69.3302 65.7476 69.3324 67.8008 69.3324C69.5562 69.3324 71.3116 69.3324 73.0659 69.3313C75.0747 69.3313 76.4234 67.9847 76.4245 65.9827C76.4268 55.9357 76.4268 45.4488 76.4245 34.8129L76.4257 34.8096ZM33.4802 24.7815C33.4791 24.4249 33.4769 24.0649 33.4769 23.6982H47.3836C52.5254 23.6982 58.5937 23.6982 64.6166 23.6838C64.8733 23.6838 65.0233 23.7193 65.1009 23.8004C65.1776 23.8804 65.2065 24.026 65.1976 24.2882C65.1598 25.3492 65.1598 26.4358 65.1976 27.5157C65.2065 27.7679 65.1787 27.9079 65.1043 27.9846C65.0311 28.0613 64.8866 28.0957 64.6433 28.0957C58.2293 28.0824 51.8132 28.0813 45.257 28.0813H38.8232C38.3954 28.0813 37.9676 28.0813 37.5409 28.079C37.1011 28.079 36.6611 28.0779 36.2211 28.0779C35.309 28.0779 34.6046 28.0813 33.9368 28.089H33.9057C33.7102 28.089 33.6025 28.0646 33.5447 28.0068C33.488 27.949 33.4625 27.8357 33.4669 27.659C33.4891 26.7103 33.4858 25.7725 33.4814 24.7804L33.4802 24.7815ZM65.1309 29.5833V60.4397H33.5191V29.5822H65.132L65.1309 29.5833ZM23.7521 34.8229C23.7521 33.532 24.3576 32.9286 25.6586 32.9253C26.3464 32.9242 27.0351 32.9231 27.7229 32.9231C28.374 32.9231 31.9571 32.9253 31.9571 32.9253V60.4586H23.7509V53.3103C23.7509 47.1486 23.7521 40.9857 23.7521 34.8229ZM54.984 76.0685H43.7905V69.2702H54.984V76.0685ZM74.8291 66.0182C74.8169 67.2114 74.2025 67.8158 73.0015 67.8158C68.5873 67.8158 64.1733 67.8158 59.7593 67.8158H37.9476H34.8957C31.8204 67.8158 28.745 67.8158 25.6697 67.8136C24.4165 67.8136 23.7532 67.1558 23.7521 65.9127C23.7521 65.0028 23.7521 64.0917 23.7521 63.1607V62.0218H74.8302V63.5739C74.8302 63.825 74.8302 64.0761 74.8314 64.3261C74.8325 64.8806 74.8347 65.4538 74.828 66.0171L74.8291 66.0182ZM74.9125 60.4442H66.7076V32.9253H70.9394C71.625 32.9253 72.3104 32.9253 72.9959 32.9253C74.3025 32.9275 74.9114 33.5275 74.9125 34.8118C74.9125 41.1813 74.9125 47.5497 74.9125 53.9192V60.4442Z" fill="#5D6DFD"/>
<path d="M41.0572 47.674C41.7505 47.9074 42.5004 47.9863 43.227 48.0639C43.327 48.075 43.4281 48.085 43.527 48.0961C43.5592 48.0994 43.5915 48.1017 43.6226 48.1017C44.0313 48.1017 44.3158 47.7985 44.3302 47.3474C44.3458 46.8796 44.0847 46.5929 43.597 46.5418C43.4948 46.5307 43.3915 46.524 43.2881 46.5174C43.1715 46.5096 43.0515 46.5018 42.9348 46.4874C40.2329 46.1597 38.3863 44.7364 37.4485 42.2567C36.5109 39.7779 37.003 37.4404 38.8706 35.4961C40.1851 34.1285 41.716 33.434 43.4204 33.434C44.0935 33.434 44.8002 33.544 45.5202 33.7618C48.1499 34.5572 49.9487 36.9482 50.1009 39.8546C50.132 40.4401 50.3998 40.7757 50.8354 40.7757C50.8609 40.7757 50.8865 40.7746 50.913 40.7724C51.4463 40.7246 51.713 40.379 51.6641 39.8001C51.6563 39.7024 51.6485 39.6046 51.6408 39.5057C51.6119 39.1258 51.5819 38.7336 51.5019 38.3547C50.7087 34.595 47.4577 31.9697 43.5981 31.9697C43.297 31.9697 42.9904 31.9853 42.687 32.0175C38.7251 32.432 35.6153 35.9293 35.6065 39.9801C35.5998 43.4832 37.7885 46.5751 41.0549 47.674H41.0572Z" fill="#5D6DFD"/>
<path d="M45.7033 39.4812C44.7646 39.1058 43.7935 38.7169 42.8358 38.3413C42.7069 38.2902 42.5792 38.2646 42.4536 38.2646C42.2436 38.2646 42.0514 38.3402 41.9147 38.478C41.7692 38.6235 41.6925 38.8269 41.6936 39.0646V39.0824L41.6992 39.0991C41.7081 39.1269 41.7181 39.158 41.7281 39.1924C41.7536 39.2767 41.7858 39.3812 41.8258 39.4823C42.2558 40.5578 42.6869 41.6333 43.1169 42.7076C43.889 44.6352 44.6613 46.564 45.43 48.4927C45.56 48.8172 45.7211 49.2216 46.2111 49.2216C46.2244 49.2216 46.2378 49.2216 46.2511 49.2216C46.7754 49.1983 46.8943 48.7616 46.9888 48.4105C47.0954 48.0138 47.2065 47.6184 47.3165 47.2228C47.511 46.5262 47.7121 45.8052 47.8921 45.0908C47.9788 44.7463 48.1365 44.5908 48.4953 44.4952C49.2031 44.3076 49.9164 44.0976 50.6063 43.8931C50.9863 43.7809 51.3674 43.6687 51.7485 43.5598L51.7885 43.5487C52.1383 43.4487 52.5728 43.3253 52.6083 42.7998C52.645 42.2533 52.205 42.0788 51.8518 41.9377C50.6951 41.4777 49.5386 41.0155 48.3832 40.5534L45.7033 39.4812ZM49.3397 42.7353C48.9819 42.8553 48.6719 42.9598 48.3576 43.0009C47.1699 43.1576 46.5322 43.8076 46.4089 44.9863C46.3822 45.2452 46.2956 45.5074 46.1944 45.8119C46.1711 45.883 46.1456 45.9585 46.1211 46.0385L43.8235 40.2623L49.6208 42.6421C49.5242 42.6733 49.4308 42.7042 49.3397 42.7353Z" fill="#5D6DFD"/>
<path d="M62.5335 53.5053H56.8819C53.1766 53.5053 49.4702 53.5053 45.7638 53.5075C45.7249 53.5075 45.6838 53.5064 45.6427 53.5053C45.5971 53.5042 45.5516 53.502 45.506 53.502C45.3738 53.502 45.2227 53.5131 45.1071 53.5942C44.8805 53.7531 44.6128 54.0297 44.6073 54.2842C44.6006 54.5763 44.926 54.884 45.066 55.0029C45.1705 55.0918 45.3271 55.104 45.4649 55.104C45.5016 55.104 45.5383 55.104 45.5749 55.1018C45.6083 55.1018 45.6394 55.1007 45.6727 55.1007C47.787 55.1029 49.9013 55.1029 52.0144 55.104H57.6195C59.2638 55.104 60.9081 55.104 62.5524 55.1051H62.5546C63.108 55.1051 63.4402 55.0185 63.6324 54.8251C63.7602 54.6963 63.8213 54.5229 63.8191 54.2942C63.8124 53.602 63.198 53.5053 62.5335 53.5053Z" fill="#5D6DFD"/>
<path d="M51.72 48.7009C52.5545 48.7031 53.3877 48.7042 54.2221 48.7042H57.0429H60.4227C61.2238 48.7042 62.0247 48.7042 62.8259 48.7009C63.1959 48.7009 63.4657 48.6131 63.6291 48.4431C63.7568 48.3097 63.8179 48.1288 63.8102 47.9065C63.7924 47.4177 63.4203 47.1354 62.7892 47.1332C62.3047 47.131 61.8203 47.131 61.3349 47.131L55.4786 47.1332C54.251 47.1332 53.0234 47.1332 51.7878 47.1299C51.3923 47.1299 50.9657 47.1999 50.8113 47.7166C50.7413 47.9499 50.7757 48.1765 50.9091 48.3553C51.0724 48.5753 51.3678 48.702 51.72 48.7031V48.7009Z" fill="#407BFF"/>
<path d="M55.824 42.3353C56.8483 42.3364 57.8727 42.3375 58.897 42.3375C60.2013 42.3375 61.5058 42.3364 62.8101 42.3342C63.6322 42.3331 63.8088 41.9086 63.8133 41.5532C63.8155 41.3232 63.7522 41.1399 63.6233 41.0099C63.4611 40.8455 63.2012 40.7643 62.829 40.7621C62.3612 40.7599 61.8934 40.7588 61.4258 40.7588C61.0758 40.7588 57.3216 40.761 57.3216 40.761C56.8105 40.761 56.2995 40.761 55.7806 40.7588C55.564 40.7588 54.904 40.7588 54.8573 41.4799C54.844 41.6843 54.9151 41.8798 55.0573 42.0331C55.2373 42.2253 55.5162 42.3342 55.824 42.3353Z" fill="#407BFF"/>
<path d="M58.0203 35.9492H60.6101C61.3723 35.9492 62.1333 35.9492 62.8955 35.9459C63.2499 35.9459 63.4842 35.8715 63.6342 35.7159C63.7531 35.5927 63.8109 35.4205 63.8031 35.2061C63.7876 34.7083 63.4764 34.4561 62.881 34.4561H62.8399C62.5544 34.4616 62.2455 34.4638 61.8699 34.4638C61.6355 34.4638 61.4012 34.4638 61.1656 34.4616C60.9301 34.4616 60.6956 34.4594 60.4612 34.4594H59.0246C58.6913 34.4605 58.358 34.4594 58.0259 34.4583H58.0126C57.6815 34.4583 57.4481 34.5327 57.2959 34.6849C57.1726 34.8083 57.1115 34.9805 57.1126 35.1961C57.1159 35.6815 57.4381 35.9492 58.0203 35.9492Z" fill="#407BFF"/>
<path d="M49.3581 62.2324H49.3282C47.8305 62.2324 46.6829 63.3391 46.6584 64.8078C46.6451 65.569 46.9162 66.2744 47.4205 66.7933C47.9083 67.2955 48.5727 67.5753 49.2904 67.5831H49.3248C50.858 67.5831 51.9869 66.4844 52.008 64.9701C52.018 64.2067 51.7558 63.5113 51.2669 63.0113C50.7837 62.5169 50.1059 62.2402 49.3581 62.2324ZM49.3293 66.1021H49.307C49.0083 66.0955 48.7072 65.9533 48.4794 65.7133C48.2516 65.4734 48.1261 65.1634 48.135 64.8645C48.155 64.2278 48.6872 63.7091 49.3215 63.7091C49.627 63.7091 49.9359 63.8456 50.1704 64.0834C50.4004 64.3167 50.5304 64.619 50.527 64.9134C50.5193 65.5356 49.9482 66.1021 49.3293 66.1021Z" fill="#407BFF"/>
<path d="M39.5916 26.5492C39.9516 26.5581 40.3138 26.5637 40.6671 26.5637C41.0203 26.5637 41.3959 26.5581 41.7514 26.5492C42.2281 26.5359 42.5246 26.2403 42.528 25.7759C42.5302 25.2937 42.227 24.9982 41.7159 24.9849C41.5892 24.9816 41.4614 24.9805 41.3348 24.9805C41.2281 24.9805 41.1203 24.9805 41.0137 24.9816C40.9159 24.9816 40.817 24.9827 40.7194 24.9827H40.0494C39.9038 24.9816 39.7583 24.9827 39.6127 24.9838C39.126 24.9905 38.8251 25.267 38.8084 25.7214C38.7995 25.9614 38.8673 26.1659 39.0051 26.3126C39.1438 26.4603 39.3471 26.5426 39.5916 26.5492Z" fill="#407BFF"/>
<path d="M44.3002 26.5514C44.5845 26.5581 44.8878 26.5614 45.2267 26.5614C45.6034 26.5614 45.9789 26.557 46.3555 26.5526C46.851 26.547 47.171 26.2581 47.171 25.817C47.171 25.3014 46.8466 24.9816 46.3255 24.9805H45.3278L45.2167 24.9827H44.7134C44.5856 24.9827 44.4578 24.9827 44.3301 24.9827H44.3158C43.8102 24.9827 43.5046 25.2414 43.4557 25.7114C43.4346 25.9192 43.4958 26.1159 43.628 26.267C43.7835 26.4437 44.0213 26.5448 44.298 26.5514H44.3002Z" fill="#407BFF"/>
<path d="M34.9383 26.5516C35.0661 26.556 35.2028 26.5594 35.3683 26.5594C35.4839 26.5594 35.5983 26.5582 35.7139 26.5571C35.825 26.5571 35.9361 26.5549 36.0528 26.5549C36.1583 26.5549 36.2637 26.5571 36.3693 26.5582C36.476 26.5605 36.5826 26.5616 36.6893 26.5616C36.8493 26.5616 36.9804 26.5582 37.1026 26.5494C37.5793 26.5171 37.866 26.226 37.8682 25.7716C37.8704 25.3017 37.5793 25.0028 37.1093 24.9917C36.776 24.9839 36.4215 24.9795 36.0272 24.9795C35.6694 24.9795 35.3105 24.9828 34.9528 24.9873C34.6994 24.9906 34.4907 25.0695 34.3507 25.215C34.2151 25.3562 34.1473 25.5549 34.1529 25.7905C34.1651 26.2416 34.4651 26.5338 34.9383 26.5516Z" fill="#407BFF"/>
<path d="M36.051 26.444C35.6832 26.444 35.3145 26.4551 34.9467 26.4418C34.5356 26.4262 34.2767 26.1885 34.2667 25.7885C34.2556 25.3573 34.5145 25.1042 34.9567 25.0986C35.6743 25.0897 36.3921 25.0853 37.1099 25.103C37.522 25.113 37.7631 25.3585 37.7609 25.7718C37.7586 26.1873 37.5009 26.4129 37.0999 26.4396C36.7521 26.4629 36.401 26.4429 36.051 26.444Z" fill="#407BFF"/>
</g>
</g>
<defs>
<clipPath id="clip0_414_1010">
<rect width="100" height="100" fill="white"/>
</clipPath>
</defs>
</svg>
