<svg width="100" height="100" viewBox="0 0 100 100" fill="none" xmlns="http://www.w3.org/2000/svg">
<g clip-path="url(#clip0_414_1013)">
<mask id="mask0_414_1013" style="mask-type:luminance" maskUnits="userSpaceOnUse" x="22" y="26" width="56" height="49">
<path d="M77.7777 26.3887H22.2222V74.513H77.7777V26.3887Z" fill="white"/>
</mask>
<g mask="url(#mask0_414_1013)">
<path d="M72.5877 74.5135C63.9751 74.5105 55.3595 74.5105 46.7469 74.5105H27.3886C27.202 74.5105 27.0126 74.5002 26.8127 74.4883C24.8143 74.3744 23.1637 73.1353 22.5049 71.2538C22.428 71.0346 22.3643 70.8096 22.2962 70.5713C22.2724 70.4855 22.2473 70.4012 22.2222 70.3167V64.7891H25.5662V35.9774H50.7187L50.843 35.5526C50.8519 35.5244 50.8592 35.5037 50.8637 35.4859C50.8844 35.4267 50.9141 35.3363 50.9141 35.2164C50.9141 34.7398 50.9141 34.2616 50.9141 33.7835C50.9141 32.6939 50.9126 31.5674 50.9304 30.4631C50.9392 29.9405 50.9924 29.5098 51.0976 29.1427C51.592 27.4048 53.0369 26.4055 55.0605 26.401C57.1699 26.3981 59.2809 26.3966 61.3904 26.3966C63.343 26.3966 65.2955 26.3966 67.2495 26.3981H69.3916C69.8194 26.3981 70.2473 26.3966 70.6751 26.3937C71.0999 26.3907 71.5262 26.3877 71.9511 26.3877C72.7934 26.3877 73.4729 26.3996 74.0902 26.4248C76.213 26.5106 77.7615 28.1271 77.7704 30.2677C77.7837 33.8131 77.7851 37.6709 77.7704 42.0616C77.7659 43.681 76.7844 45.0828 75.2701 45.6306C74.4958 45.9105 74.3981 46.4581 74.3981 46.9037C74.4055 50.9421 74.4055 55.0485 74.4055 59.0203V63.6316C74.4055 63.7737 74.4173 63.9069 74.4292 64.0476C74.4351 64.1112 74.4395 64.1777 74.444 64.2488L74.4811 64.801H77.7466C77.7466 65.1681 77.7495 65.5323 77.7511 65.8964C77.7584 67.3827 77.7644 68.786 77.7244 70.2146C77.7126 70.6306 77.5705 71.1309 77.3129 71.6638C76.3862 73.5794 74.8422 74.512 72.5906 74.512H72.5877V74.5135ZM24.3805 67.553C24.3805 67.8031 24.3745 68.0519 24.3687 68.2976C24.3554 68.8556 24.342 69.4314 24.3983 70.0059C24.5419 71.4639 25.7218 72.3699 27.4759 72.3699H45.8054C54.7097 72.3699 63.6109 72.3699 72.5151 72.3699C72.7238 72.3699 72.9488 72.367 73.1813 72.3448C74.4929 72.2174 75.5129 71.2078 75.609 69.9466C75.6519 69.3901 75.6416 68.8289 75.6312 68.2858C75.6267 68.0444 75.6223 67.8002 75.6223 67.5544V66.9623H24.3805V67.553ZM42.2304 55.1773C40.6509 55.1773 39.1187 55.7339 37.6754 56.8294C35.4327 58.5333 34.4572 61.0262 34.7769 64.237L34.8302 64.7699H49.7445L49.7949 64.2326C50.1429 60.4991 48.8327 57.7901 45.8972 56.178C44.6863 55.5134 43.4531 55.1773 42.2304 55.1773ZM27.7365 64.7551H32.6392L32.6008 64.1274C32.3255 59.6228 34.0249 56.3631 37.7938 54.1619L38.3859 53.8155L37.9566 53.2795C35.708 50.4757 36.4245 47.188 38.2927 45.3894C39.3852 44.3382 40.8034 43.7595 42.2866 43.7595C43.5331 43.7595 44.7248 44.1637 45.7329 44.9274C46.8668 45.786 47.5877 46.9112 47.8749 48.2716C48.2613 50.0953 47.8467 51.7326 46.6077 53.2766L46.1799 53.811L46.7691 54.1574C50.5513 56.3809 52.2523 59.6405 51.968 64.1201L51.9281 64.7492H72.2265V45.977L71.6994 45.9178C71.664 45.9134 71.6313 45.9089 71.6017 45.9045C71.5204 45.8927 71.4359 45.8808 71.3368 45.8808H70.0815C69.3842 45.8794 68.6855 45.8778 67.9883 45.8778C66.4649 45.8778 65.2926 45.8823 64.1867 45.8896C63.7826 45.8927 63.4081 46.0866 63.1654 46.248C61.1949 47.5566 59.1965 48.8948 57.2647 50.1885L55.5801 51.3166V45.9312L54.8324 45.8882C54.7155 45.8807 54.6163 45.8749 54.5187 45.8705C52.6045 45.7713 50.9955 44.1399 50.9333 42.2333C50.9111 41.5596 50.9155 40.8684 50.9199 40.1992C50.9215 39.8869 50.9244 39.5731 50.923 39.2607V38.1387H27.7365V64.7506V64.7551ZM42.2852 45.8956C41.3377 45.8956 40.4051 46.2923 39.7243 46.9837C39.0388 47.6809 38.6702 48.5884 38.6849 49.5387C38.7176 51.4898 40.3326 53.0783 42.2852 53.0783H42.3088C44.2793 53.0649 45.878 51.4542 45.872 49.4855C45.8661 47.5106 44.2599 45.9001 42.2926 45.8956H42.2852ZM57.762 47.2842L58.6829 46.6684C59.0604 46.4152 59.4319 46.1664 59.7976 45.9208C60.8205 45.2339 61.7856 44.5855 62.7716 43.9519C62.9551 43.8335 63.2097 43.7566 63.4184 43.7551C65.4243 43.7433 67.4656 43.7417 69.3709 43.7417H71.9408C72.5315 43.7417 73.122 43.7417 73.7127 43.7417C74.9666 43.7417 75.6298 43.0845 75.6312 41.8455C75.6342 38.0617 75.6342 34.2231 75.6312 30.4394C75.6312 29.2196 74.9666 28.5476 73.763 28.546C70.6099 28.5431 67.4554 28.5402 64.3022 28.5402C61.1491 28.5402 58.0581 28.5416 54.9361 28.5446C53.7281 28.5446 53.0636 29.2166 53.062 30.432C53.0591 34.2351 53.0591 38.0364 53.062 41.8395C53.062 43.0801 53.7237 43.7373 54.9716 43.7433C55.4024 43.7446 55.8317 43.7462 56.2699 43.7462H57.7591V47.2856L57.762 47.2842Z" fill="#5D6DFD"/>
<path d="M65.3764 34.8691H63.3247V36.9119H65.3764V34.8691Z" fill="#5D6DFD"/>
<path d="M59.4569 34.8906H57.3948V36.9335H59.4569V34.8906Z" fill="#5D6DFD"/>
<path d="M71.3082 34.8721H69.249V36.915H71.3082V34.8721Z" fill="#5D6DFD"/>
</g>
</g>
<defs>
<clipPath id="clip0_414_1013">
<rect width="100" height="100" fill="white"/>
</clipPath>
</defs>
</svg>
