<svg width="100" height="100" viewBox="0 0 100 100" fill="none" xmlns="http://www.w3.org/2000/svg">
<g clip-path="url(#clip0_414_1008)">
<mask id="mask0_414_1008" style="mask-type:luminance" maskUnits="userSpaceOnUse" x="22" y="23" width="56" height="53">
<path d="M77.7777 23.6113H22.2222V75.1701H77.7777V23.6113Z" fill="white"/>
</mask>
<g mask="url(#mask0_414_1008)">
<path d="M22.2222 26.7267C22.4824 25.941 22.7763 25.1792 23.4205 24.6008C24.2491 23.8573 25.2338 23.6113 26.3173 23.6113C34.7061 23.6142 43.0949 23.6131 51.4831 23.6131C56.4369 23.6131 61.3901 23.6108 66.3438 23.6142C68.1511 23.6155 69.5162 24.4673 70.0927 25.934C70.3783 26.6601 70.4831 28.1202 70.3136 29.0916C70.2369 29.1051 70.1516 29.132 70.0662 29.1331C69.5804 29.1373 69.0945 29.1349 68.5251 29.1349C68.5251 28.6033 68.528 28.108 68.5251 27.612C68.5156 26.1765 67.7954 25.4545 66.3515 25.454C52.973 25.4522 39.5951 25.4516 26.2166 25.454C24.8068 25.454 24.0713 26.1863 24.0713 27.5792C24.0695 39.6763 24.0695 51.7734 24.0713 63.8705C24.0713 65.2312 24.8122 65.963 26.1843 65.9759C26.6877 65.9806 27.1912 65.9765 27.7312 65.9765V67.798C26.2343 67.8273 24.7497 67.979 23.5019 66.8969C22.8158 66.302 22.4895 65.524 22.2222 64.7001V26.7267Z" fill="#5D6DFD"/>
<path d="M53.6904 75.1697C46.9824 75.1697 40.2742 75.172 33.5668 75.1679C31.6435 75.1667 30.2283 74.145 29.7725 72.4114C29.6642 72.0003 29.6287 71.5595 29.6287 71.1321C29.6211 59.0877 29.6218 47.0433 29.6242 34.9989C29.6242 32.9989 30.6188 31.6089 32.4154 31.1288C32.8442 31.014 33.3076 30.9877 33.7551 30.9877C47.0624 30.9806 60.3701 30.98 73.6774 30.9836C76.2685 30.9842 77.7779 32.5006 77.7779 35.0792C77.7779 47.0696 77.7779 59.0602 77.7779 71.0507C77.7779 73.6754 76.2815 75.1697 73.6515 75.1703C66.9976 75.1708 60.3443 75.1697 53.6904 75.1697ZM53.6586 73.3324C60.3113 73.3324 66.9646 73.3324 73.6174 73.3324C75.2639 73.3324 75.9299 72.6772 75.9299 71.0565C75.9299 59.0672 75.9299 47.0785 75.9299 35.089C75.9299 33.4954 75.2633 32.8303 73.6574 32.8303C60.3514 32.829 47.0453 32.829 33.7393 32.8303C32.1433 32.8303 31.475 33.5029 31.475 35.1038C31.4744 47.0931 31.4744 59.0818 31.475 71.0711C31.475 72.6567 32.1581 73.3318 33.7535 73.3318C40.3885 73.3318 47.0235 73.3324 53.6586 73.3324Z" fill="#5D6DFD"/>
<path d="M27.736 27.335V29.1084H25.9546V27.335H27.736Z" fill="#5D6DFD"/>
<path d="M29.6602 27.3252H31.435V29.0894H29.6602V27.3252Z" fill="#5D6DFD"/>
<path d="M33.3584 29.1037C33.3461 28.934 33.3313 28.8116 33.329 28.6893C33.2995 27.1646 33.3001 27.1587 34.8319 27.3057C34.9561 27.3173 35.1574 27.4814 35.1645 27.5855C35.1999 28.0786 35.1805 28.5757 35.1805 29.1032L33.3584 29.1037Z" fill="#5D6DFD"/>
<path d="M49.9994 45.3607C49.9994 44.6183 49.9931 43.8817 50.0012 43.1457C50.0101 42.3917 50.344 42.0455 51.0889 42.0421C52.825 42.0339 54.561 42.0344 56.2971 42.0421C57.0561 42.045 57.3836 42.3729 57.3965 43.1264C57.4072 43.7553 57.4118 44.3853 57.3936 45.014C57.3854 45.2928 57.4719 45.4503 57.7517 45.5147C57.926 45.5551 58.0914 45.6347 58.2587 45.7021C58.8919 45.955 59.4562 45.8354 59.9518 45.3432C60.2586 45.038 60.5554 44.7219 60.8775 44.4333C61.3304 44.0275 61.7992 44.0087 62.2314 44.4297C63.5364 45.6997 64.8283 46.9843 66.1062 48.2812C66.5274 48.7086 66.5137 49.1858 66.1028 49.6278C65.6735 50.0899 65.2129 50.523 64.7665 50.9686C64.69 51.0454 64.5357 51.1437 64.5499 51.1958C64.7035 51.7444 64.8631 52.2936 65.0728 52.8224C65.1217 52.9453 65.3638 53.053 65.5221 53.0607C66.1175 53.0887 66.7151 53.066 67.3118 53.0735C68.1621 53.084 68.5167 53.4137 68.5225 54.2393C68.5337 55.929 68.5349 57.6193 68.5219 59.3097C68.516 60.0925 68.1786 60.4233 67.3965 60.4439C66.764 60.4603 66.1293 60.4268 65.4985 60.4632C65.3349 60.4725 65.18 60.6604 65.0257 60.7717C65.001 60.7893 65.0039 60.8408 64.9839 60.8694C64.286 61.8689 64.6275 62.5657 65.4956 63.321C66.7953 64.4522 66.7399 64.6307 65.5215 65.8422C64.4857 66.8721 63.4521 67.9043 62.4128 68.9301C61.7903 69.5443 61.3262 69.5396 60.6974 68.923C60.2857 68.519 59.8799 68.1086 59.4689 67.7035C59.38 67.6157 59.2486 67.4511 59.1892 67.4717C58.6303 67.663 58.0603 67.8464 57.5474 68.1286C57.406 68.2064 57.4154 68.6064 57.4054 68.8604C57.3854 69.399 57.4101 69.9394 57.3942 70.4782C57.376 71.1105 57.0521 71.4794 56.4354 71.4858C54.6093 71.5051 52.7826 71.5057 50.9564 71.4846C50.3499 71.4776 50.0189 71.0929 50.0036 70.4635C49.9883 69.8347 49.9847 69.2047 50.006 68.5758C50.0165 68.2644 49.9482 68.0623 49.6108 67.991C49.4189 67.9505 49.2351 67.8644 49.0519 67.7878C48.4869 67.5512 47.9829 67.6535 47.5397 68.0946C47.2204 68.4125 46.9083 68.7392 46.5786 69.0454C46.1039 69.4857 45.5899 69.5126 45.1358 69.07C43.8579 67.8235 42.5924 66.564 41.3404 65.2924C40.8569 64.8017 40.8817 64.3328 41.3717 63.8251C41.8221 63.3579 42.3056 62.9217 42.7396 62.4404C42.8468 62.3215 42.8904 62.0533 42.8344 61.9C42.6583 61.4164 42.5406 60.7735 42.1749 60.5357C41.8026 60.2939 41.1625 60.4521 40.6401 60.4503C38.9965 60.4455 38.8953 60.3467 38.8953 58.6943C38.8953 57.2382 38.8918 55.7815 38.8965 54.3253C38.9 53.378 39.2092 53.0787 40.1732 53.0735C40.7521 53.07 41.331 53.0794 41.9093 53.0676C42.0394 53.0647 42.2467 53.0343 42.285 52.954C42.524 52.4523 42.7385 51.9371 42.9251 51.4136C42.9546 51.3304 42.8232 51.1636 42.7314 51.0687C42.2921 50.6161 41.8339 50.1811 41.3946 49.7279C40.8664 49.1829 40.8581 48.7173 41.391 48.1811C42.6107 46.9526 43.8379 45.7319 45.0728 44.5187C45.6099 43.9912 46.0775 43.9994 46.6286 44.5258C47.0721 44.949 47.509 45.3794 47.9312 45.8244C48.1321 46.0364 48.3035 46.0996 48.5874 45.9579C49.0372 45.7343 49.5136 45.5621 49.9994 45.3607ZM43.2083 48.9943C43.6889 49.4504 44.1518 49.8755 44.5982 50.3164C45.1269 50.8386 45.1487 51.1372 44.8443 51.8076C44.5115 52.5412 44.2018 53.2872 43.9197 54.0419C43.6694 54.7105 43.4504 54.9037 42.7361 54.9114C42.0907 54.9185 41.4453 54.9126 40.791 54.9126V58.5994C41.4464 58.5994 42.0589 58.5936 42.6712 58.6007C43.4375 58.6094 43.6529 58.7828 43.9186 59.4712C44.2089 60.223 44.5162 60.9696 44.8449 61.705C45.1576 62.4047 45.1306 62.6875 44.5669 63.2379C44.1217 63.6729 43.6576 64.0897 43.279 64.4428C44.2189 65.3767 45.0669 66.2199 45.9656 67.1126C46.3707 66.6917 46.82 66.2257 47.2682 65.7585C47.6657 65.3433 48.0968 65.2683 48.6368 65.5172C49.4365 65.8861 50.2568 66.2133 51.0812 66.5254C51.6071 66.7246 51.8621 67.06 51.8504 67.6215C51.8362 68.2808 51.8468 68.9412 51.8468 69.6204H55.5451C55.5451 68.9418 55.5497 68.2978 55.5439 67.6537C55.5386 67.0817 55.7876 66.7233 56.3436 66.5178C57.1704 66.2128 57.9849 65.8708 58.7875 65.5072C59.304 65.273 59.7268 65.3375 60.1119 65.7385C60.5731 66.2186 61.0353 66.6982 61.4369 67.115C62.3415 66.2046 63.1965 65.3439 64.0964 64.4375C63.68 64.0405 63.2131 63.591 62.7414 63.1465C62.315 62.7449 62.2732 62.3051 62.5187 61.78C62.8532 61.0662 63.1665 60.3408 63.4421 59.603C63.7619 58.7476 63.931 58.6018 64.8631 58.5989C65.4508 58.5965 66.0379 58.5989 66.6339 58.5989V54.9114C65.9343 54.9114 65.27 54.9026 64.6069 54.9143C64.0417 54.9243 63.7131 54.6649 63.5164 54.1386C63.2154 53.3335 62.875 52.5425 62.5299 51.755C62.2561 51.1297 62.2808 50.8357 62.7719 50.3521C63.2312 49.9001 63.7142 49.4715 64.1547 49.0617C63.2189 48.1336 62.365 47.2876 61.4569 46.3876C61.0453 46.8151 60.5831 47.2922 60.1243 47.7729C59.7226 48.1939 59.2862 48.2467 58.7533 47.9983C58.0037 47.6489 57.2358 47.3362 56.4626 47.0405C55.73 46.76 55.551 46.5464 55.5462 45.7769C55.5421 45.1558 55.5457 44.534 55.5457 43.9175H51.8846C51.8681 43.9929 51.8539 44.0269 51.8533 44.0615C51.8504 44.6364 51.8504 45.2114 51.8474 45.7869C51.8433 46.5469 51.6749 46.7583 50.9811 47.0247C50.2085 47.321 49.4442 47.6394 48.6862 47.9721C48.0196 48.2649 47.7593 48.2437 47.2353 47.7192C46.7787 47.2623 46.3436 46.784 45.9025 46.3186C44.9839 47.2308 44.14 48.0692 43.2083 48.9943Z" fill="#5D6DFD"/>
<path d="M74.0612 38.4023V40.1583H33.3604V38.4023H74.0612Z" fill="#5D6DFD"/>
<path d="M33.327 44.7496C33.327 44.2168 33.3104 43.7343 33.3393 43.2542C33.3457 43.1471 33.5118 42.9609 33.6049 42.9603C35.9504 42.9545 38.296 42.9691 40.6416 42.9814C40.6552 42.9814 40.6686 43.0042 40.7146 43.0452V44.7491L33.327 44.7496Z" fill="#5D6DFD"/>
<path d="M33.3276 46.6699H38.8927C38.8927 47.1999 38.912 47.6981 38.8768 48.1928C38.8691 48.2965 38.6588 48.4669 38.5405 48.4681C36.9187 48.4862 35.2963 48.4862 33.6745 48.4681C33.5579 48.4669 33.3506 48.2924 33.3436 48.1876C33.3081 47.6928 33.3276 47.1946 33.3276 46.6699Z" fill="#5D6DFD"/>
<path d="M74.0682 69.6885V71.4942C73.143 71.4942 72.2301 71.4942 71.3168 71.4942C70.4034 71.4942 69.5148 71.4942 68.5708 71.4942V69.6885H74.0682Z" fill="#5D6DFD"/>
<path d="M33.3604 36.5144V34.7188H35.1772C35.1772 35.2287 35.193 35.7246 35.1642 36.2176C35.1583 36.3212 34.991 36.4951 34.8904 36.501C34.394 36.5303 33.8945 36.5144 33.3604 36.5144Z" fill="#5D6DFD"/>
<path d="M38.8722 34.7188V36.4676H37.0767V34.7188H38.8722Z" fill="#5D6DFD"/>
<path d="M42.5654 36.4855H40.7822V34.7168H42.5654V36.4855Z" fill="#5D6DFD"/>
<path d="M47.2227 56.7666C47.2145 53.2366 50.0995 50.3519 53.6599 50.3302C57.2404 50.3085 60.1695 53.181 60.1902 56.7338C60.2108 60.2791 57.2992 63.1884 53.7217 63.1966C50.1384 63.2053 47.2316 60.3288 47.2227 56.7666ZM53.6829 52.1758C51.1383 52.188 49.0583 54.2741 49.0861 56.7848C49.1142 59.3223 51.1995 61.3758 53.7277 61.3563C56.2547 61.337 58.3711 59.217 58.3369 56.7385C58.3022 54.2033 56.2216 52.1634 53.6829 52.1758Z" fill="#5D6DFD"/>
</g>
</g>
<defs>
<clipPath id="clip0_414_1008">
<rect width="100" height="100" fill="white"/>
</clipPath>
</defs>
</svg>
