<svg width="100" height="100" viewBox="0 0 100 100" fill="none" xmlns="http://www.w3.org/2000/svg">
<g clip-path="url(#clip0_414_1009)">
<mask id="mask0_414_1009" style="mask-type:luminance" maskUnits="userSpaceOnUse" x="22" y="23" width="56" height="54">
<path d="M77.7777 23.6113H22.2222V76.5733H77.7777V23.6113Z" fill="white"/>
</mask>
<g mask="url(#mask0_414_1009)">
<path d="M42.2758 68.02C41.9752 68.02 41.7476 68.02 41.5201 68.02C37.2393 68.02 32.9576 68.0181 28.6769 68.02C26.255 68.021 24.3443 67.0806 23.0644 64.9812C22.4544 63.983 22.2268 62.8778 22.2268 61.7207C22.2258 51.1138 22.2138 40.5059 22.2329 29.8988C22.2398 26.1971 24.8713 23.6145 28.562 23.6135C40.364 23.6106 52.1649 23.6106 63.9669 23.6135C67.7384 23.6135 70.333 26.2002 70.3351 29.9667C70.3401 38.8387 70.337 47.7096 70.337 56.5814C70.337 56.8121 70.337 57.0417 70.337 57.3402C70.5697 57.3521 70.7723 57.3702 70.9759 57.3712C72.7888 57.3731 74.6018 57.3681 76.4137 57.3742C77.398 57.3771 77.7744 57.7516 77.7754 58.7428C77.7794 64.2205 77.7794 69.6973 77.7754 75.1749C77.7754 76.1892 77.393 76.5725 76.3737 76.5725C65.4783 76.5755 54.5829 76.5755 43.6883 76.5725C42.6422 76.5725 42.2808 76.1942 42.2787 75.1249C42.2747 72.9846 42.2777 70.8432 42.2777 68.7028C42.2777 68.4963 42.2777 68.2887 42.2777 68.021L42.2758 68.02ZM24.473 37.0417C24.473 37.2963 24.473 37.487 24.473 37.6777C24.473 45.6631 24.4711 53.6475 24.474 61.633C24.475 64.2035 26.0473 65.7628 28.6259 65.7639C32.9456 65.7659 37.2662 65.7639 41.5859 65.7639H42.2747C42.2747 65.4753 42.2747 65.2488 42.2747 65.0221C42.2747 60.5857 42.2727 56.1502 42.2768 51.7138C42.2768 50.6835 42.6441 50.3191 43.6634 50.3121C44.3922 50.3071 45.12 50.3112 45.9145 50.3112C45.9145 49.0802 45.9055 47.9092 45.9176 46.7392C45.9255 45.9177 46.3538 45.4924 47.1734 45.4874C48.4652 45.4784 49.758 45.4844 51.0498 45.4844C51.545 45.4844 52.0391 45.4844 52.5902 45.4844C52.5902 44.4721 52.5952 43.5307 52.5881 42.5903C52.5852 42.1341 52.72 41.7567 53.1283 41.5121C53.9 41.0509 54.7894 41.5889 54.8094 42.5484C54.8294 43.5067 54.8134 44.4662 54.8134 45.4834C55.078 45.4834 55.2847 45.4834 55.4913 45.4834C57.1494 45.4834 58.8087 45.4774 60.4668 45.4863C61.2605 45.4903 61.6847 45.8967 61.7156 46.6884C61.7387 47.2853 61.7216 47.8844 61.7227 48.4823C61.7227 49.0732 61.7227 49.6632 61.7227 50.3112C62.5543 50.3112 63.303 50.3042 64.0508 50.3131C64.9681 50.3241 65.3545 50.7095 65.3575 51.6189C65.3634 53.316 65.3575 55.0131 65.3605 56.7113C65.3605 56.9149 65.3775 57.1185 65.3865 57.3292H68.0769V37.0417H24.473ZM68.0209 34.7356C68.055 34.6898 68.0979 34.6588 68.0979 34.6278C68.0958 32.8349 68.0948 31.043 68.0779 29.2499C68.0759 29.0243 68.0011 28.7938 67.9341 28.5741C67.404 26.8331 65.9375 25.8328 63.9059 25.8328C52.164 25.8307 40.4219 25.8328 28.6788 25.8328C28.563 25.8328 28.4473 25.8328 28.3315 25.8357C26.0852 25.9137 24.503 27.5159 24.475 29.7571C24.4611 30.9141 24.472 32.0712 24.472 33.2282C24.472 33.7224 24.472 34.2175 24.472 34.7356H68.0209ZM48.5381 74.3074C48.5381 74.0309 48.5381 73.8212 48.5381 73.6125C48.5381 71.5481 48.5351 69.4846 48.5391 67.42C48.5411 66.4019 48.9134 66.0295 49.9406 66.0274C52.5254 66.0224 55.11 66.0224 57.6945 66.0274C58.7398 66.0295 59.1022 66.4098 59.1031 67.477C59.1051 69.5414 59.1031 71.6049 59.1031 73.6695V74.2953H63.1073V52.5813H44.5498V74.3074H48.5381ZM65.3925 74.2864H75.5043V59.6303H65.3925V74.2864ZM59.4436 47.7455H48.1458C48.1458 48.4224 48.1827 49.0582 48.1348 49.6873C48.0938 50.2203 48.2995 50.3231 48.7906 50.3202C52.144 50.3002 55.4973 50.3092 58.8516 50.3092H59.4436V47.7455ZM56.8519 68.3145H54.8534V74.2914H56.8519V68.3145ZM50.7933 74.2855H52.5552V68.2985H50.7933V74.2855Z" fill="#5D6DFD"/>
<path d="M34.3739 42.2263C35.9163 42.2263 37.4596 42.2225 39.002 42.2275C39.9393 42.2304 40.3357 42.6268 40.3388 43.5691C40.3448 45.3431 40.3448 47.1181 40.3388 48.892C40.3357 49.8165 39.9164 50.2308 38.9891 50.2318C35.9232 50.2358 32.8564 50.2348 29.7906 50.2318C28.8293 50.2318 28.4329 49.8265 28.431 48.8491C28.4279 47.0941 28.4279 45.3391 28.431 43.5841C28.4329 42.6058 28.8143 42.2284 29.8036 42.2263C31.327 42.2224 32.8504 42.2263 34.3739 42.2263ZM30.6852 47.9676H38.0696V44.4756H30.6852V47.9676Z" fill="#5D6DFD"/>
<path d="M34.4021 57.0846C35.9445 57.0846 37.487 57.0777 39.0294 57.0877C39.7331 57.0915 40.1534 57.3971 40.2981 57.9611C40.4399 58.5172 40.1014 59.1142 39.5295 59.2639C39.2909 59.3259 39.0343 59.3368 38.7857 59.3368C35.8548 59.3418 32.9246 59.3397 29.9937 59.3397C29.8969 59.3397 29.801 59.3428 29.7042 59.3378C28.9205 59.3009 28.4303 58.8615 28.4344 58.2047C28.4382 57.5509 28.9405 57.0946 29.7171 57.0886C31.2785 57.0767 32.8409 57.0846 34.4021 57.0846Z" fill="#5D6DFD"/>
<path d="M32.5363 54.7681C31.5739 54.7681 30.6115 54.7761 29.6502 54.7661C28.9154 54.7581 28.4343 54.3108 28.4343 53.6639C28.4343 53.021 28.9235 52.5558 29.6502 52.5528C31.5749 52.5439 33.4986 52.5429 35.4234 52.5539C36.1292 52.5578 36.6343 53.062 36.6143 53.6929C36.5954 54.3168 36.1242 54.7561 35.4234 54.7652C34.461 54.7781 33.4977 54.7681 32.5363 54.7681Z" fill="#5D6DFD"/>
<path d="M53.8109 57.6028C51.9241 57.6028 50.0363 57.6028 48.1495 57.6018C47.938 57.6018 47.7242 57.6037 47.5166 57.5728C46.9177 57.485 46.5173 57.0478 46.5063 56.4916C46.4953 55.9266 46.9256 55.4494 47.5385 55.3646C47.7094 55.3407 47.8839 55.3476 48.0577 55.3476C51.8892 55.3476 55.7217 55.3476 59.5531 55.3476C60.5844 55.3476 61.1205 55.725 61.1324 56.4578C61.1455 57.2135 60.6034 57.6018 59.5302 57.6028C57.6234 57.6037 55.7177 57.6028 53.8109 57.6028Z" fill="#5D6DFD"/>
<path d="M53.8577 61.0776C55.8982 61.0776 57.9397 61.0686 59.9802 61.0826C60.675 61.0876 61.1372 61.5587 61.1322 62.1878C61.1272 62.7878 60.675 63.2439 60.0242 63.2989C59.8904 63.3098 59.7546 63.3039 59.6199 63.3039C58.946 63.3039 58.2721 63.3039 57.5982 63.3039C54.4406 63.3039 51.2829 63.3039 48.1254 63.3039C47.9717 63.3039 47.8168 63.3099 47.6632 63.2999C46.9883 63.2569 46.5021 62.7817 46.5061 62.1728C46.509 61.5537 46.9833 61.0855 47.6771 61.0805C49.7377 61.0676 51.7971 61.0765 53.8577 61.0776Z" fill="#5D6DFD"/>
<path d="M70.3626 64.5473C69.5529 64.5473 68.7433 64.5573 67.9337 64.5444C67.0872 64.5313 66.609 64.1161 66.6069 63.4243C66.605 62.7294 67.0911 62.3002 67.9247 62.2962C69.5629 62.2872 71.2012 62.2862 72.8394 62.2962C73.6431 62.3012 74.1253 62.7194 74.1442 63.3854C74.1642 64.0691 73.6681 64.5263 72.8483 64.5434C72.0199 64.5604 71.1922 64.5473 70.3626 64.5473Z" fill="#5D6DFD"/>
<path d="M70.364 69.6277C69.5544 69.6277 68.7447 69.6387 67.9361 69.6248C67.0866 69.6108 66.6123 69.1974 66.6123 68.5047C66.6123 67.8098 67.0995 67.3845 67.9341 67.3816C69.5723 67.3747 71.2105 67.3736 72.8487 67.3816C73.6415 67.3856 74.1336 67.8119 74.1505 68.4727C74.1686 69.1576 73.6773 69.6067 72.8508 69.6238C72.0222 69.6408 71.1926 69.6277 70.364 69.6277Z" fill="#5D6DFD"/>
<path d="M29.9827 31.832C30.8378 31.832 31.531 31.1388 31.531 30.2837C31.531 29.4285 30.8378 28.7354 29.9827 28.7354C29.1275 28.7354 28.4343 29.4285 28.4343 30.2837C28.4343 31.1388 29.1275 31.832 29.9827 31.832Z" fill="#5D6DFD"/>
<path d="M34.3769 31.832C35.2321 31.832 35.9254 31.1388 35.9254 30.2837C35.9254 29.4285 35.2321 28.7354 34.3769 28.7354C33.5218 28.7354 32.8286 29.4285 32.8286 30.2837C32.8286 31.1388 33.5218 31.832 34.3769 31.832Z" fill="#5D6DFD"/>
<path d="M38.7717 31.832C39.6269 31.832 40.3201 31.1388 40.3201 30.2837C40.3201 29.4285 39.6269 28.7354 38.7717 28.7354C37.9166 28.7354 37.2234 29.4285 37.2234 30.2837C37.2234 31.1388 37.9166 31.832 38.7717 31.832Z" fill="#5D6DFD"/>
</g>
</g>
<defs>
<clipPath id="clip0_414_1009">
<rect width="100" height="100" fill="white"/>
</clipPath>
</defs>
</svg>
