<svg width="100" height="100" viewBox="0 0 100 100" fill="none" xmlns="http://www.w3.org/2000/svg">
<g clip-path="url(#clip0_414_1011)">
<mask id="mask0_414_1011" style="mask-type:luminance" maskUnits="userSpaceOnUse" x="23" y="22" width="53" height="56">
<path d="M75.2142 22.2227H23.6113V77.7782H75.2142V22.2227Z" fill="white"/>
</mask>
<g mask="url(#mask0_414_1011)">
<path d="M54.7853 71.8244C55.2028 73.1167 55.5953 74.3475 56.0128 75.5717C56.0476 75.6761 56.253 75.7706 56.3872 75.7821C56.7351 75.8136 57.0912 75.7754 57.4391 75.8036C58.004 75.8483 58.3453 76.2326 58.3469 76.7843C58.3469 77.3343 58.0057 77.7104 57.4408 77.77C57.2983 77.7849 57.1525 77.7783 57.0068 77.7783C51.9441 77.7783 46.88 77.7783 41.8175 77.7783C41.6518 77.7783 41.4828 77.7915 41.3221 77.7617C40.7754 77.6624 40.4937 77.3178 40.5004 76.7661C40.5071 76.2426 40.7854 75.9213 41.2989 75.8103C41.3586 75.7969 41.4215 75.8003 41.4844 75.7954C42.3668 75.7357 42.9439 75.2846 43.2155 74.4419C43.4872 73.6004 43.7573 72.7572 44.0587 71.8244H43.3415C39.8693 71.8244 36.3971 71.8244 32.9265 71.8244C31.8414 71.8244 31.568 71.5545 31.568 70.476C31.568 64.5868 31.568 58.696 31.568 52.8068V52.0531C30.9535 51.957 30.3621 51.9022 29.7889 51.7664C25.8793 50.8421 23.1957 47.0982 23.6644 43.2465C24.163 39.1449 27.4812 36.1447 31.5565 36.1133C32.5255 36.1067 33.4947 36.1133 34.5151 36.1133C34.9541 31.5096 36.9504 27.7789 40.6826 25.0539C43.5022 22.9931 46.6944 22.072 50.175 22.2426C57.7108 22.6104 63.7789 28.5195 64.3487 36.1117C65.3096 36.1117 66.2771 36.1067 67.2429 36.1117C71.7703 36.1397 75.3204 39.7958 75.2111 44.3151C75.1133 48.3058 71.8597 51.6753 67.8209 51.9686C67.6603 51.9801 67.4996 51.9885 67.2793 52.0017V52.7604C67.2793 58.6496 67.2793 64.5404 67.2793 70.4296C67.2793 71.5578 67.0175 71.8228 65.9009 71.8228C62.4503 71.8228 58.9979 71.8228 55.5472 71.8228H54.7853V71.8244ZM65.25 69.8133V46.081H33.5841V69.8133H65.2516H65.25ZM67.2776 50.0535C67.8491 49.9575 68.3229 49.9143 68.7785 49.7951C71.6162 49.0463 73.5412 46.2749 73.2033 43.4454C72.8404 40.4039 70.3804 38.1508 67.3472 38.1013C66.0468 38.0797 64.7447 38.1029 63.4426 38.0929C62.6723 38.0863 62.3558 37.7665 62.3161 37.0095C62.2896 36.5158 62.2632 36.0206 62.2085 35.5285C61.415 28.3174 54.4208 23.0842 47.3123 24.3747C41.0355 25.5145 36.7035 30.5488 36.5279 36.9085C36.503 37.7864 36.1983 38.0913 35.3153 38.0946C34.0132 38.1013 32.7111 38.0781 31.4107 38.1045C28.9325 38.1558 26.7523 39.7776 25.934 42.1433C25.1339 44.4592 25.8728 47.0683 27.7894 48.6322C28.8728 49.5151 30.1086 49.9856 31.5647 49.9824C31.5647 48.4333 31.5647 46.949 31.5647 45.4647C31.5647 44.2985 31.8132 44.0483 32.9778 44.0483C43.9478 44.0483 54.9161 44.0483 65.8861 44.0483C67.0143 44.0483 67.276 44.3085 67.276 45.4267C67.276 46.9308 67.276 48.435 67.276 50.0535H67.2776ZM53.9751 75.7722C53.561 74.4982 53.1733 73.2839 52.7625 72.0763C52.7244 71.9653 52.5339 71.8361 52.413 71.8361C50.4301 71.8211 48.4471 71.8213 46.4641 71.8344C46.335 71.8344 46.1279 71.9421 46.0914 72.0465C45.674 73.269 45.283 74.5015 44.8705 75.7722H53.9751Z" fill="#5D6DFD"/>
<path d="M39.1179 57.9334C40.1649 58.8627 40.5375 59.9775 40.4945 61.2631C40.4779 61.7782 40.4829 62.2952 40.4945 62.812C40.5111 63.4895 40.7845 63.7927 41.4404 63.8855C42.1892 63.9914 42.5371 64.3692 42.4675 65.0003C42.4013 65.6099 41.9391 65.9231 41.1986 65.8617C39.711 65.7359 38.5696 64.5431 38.5166 63.0289C38.4917 62.3481 38.5182 61.6656 38.5066 60.9848C38.4884 59.8384 37.7479 59.0432 36.6097 58.9306C35.8727 58.8577 35.5281 58.533 35.5363 57.92C35.5446 57.3286 35.8842 57.0123 36.58 56.9443C37.7645 56.8284 38.49 56.0448 38.5066 54.8553C38.5166 54.1745 38.4884 53.492 38.5166 52.8111C38.5828 51.2539 39.8318 50.0298 41.3527 50.0032C42.0153 49.9916 42.4211 50.3196 42.4692 50.901C42.5172 51.4957 42.176 51.8884 41.5332 51.9811C40.7381 52.0955 40.5045 52.3556 40.4928 53.1524C40.4879 53.545 40.4746 53.9375 40.4945 54.3285C40.5641 55.7102 40.2593 56.9525 39.1179 57.9334Z" fill="#5D6DFD"/>
<path d="M59.7325 57.9454C58.7004 57.0343 58.3128 55.946 58.3459 54.6803C58.3609 54.1238 58.3609 53.5654 58.3427 53.0088C58.3227 52.376 58.0361 52.0778 57.4099 51.9867C56.6496 51.8774 56.31 51.5146 56.3713 50.8818C56.4309 50.2654 56.8847 49.9507 57.6286 50.0088C59.1146 50.1247 60.2642 51.3174 60.3239 52.8299C60.3504 53.5107 60.3239 54.1933 60.3338 54.8742C60.3504 56.0238 61.0875 56.8272 62.2174 56.9415C62.9678 57.0161 63.3057 57.3275 63.304 57.9389C63.3024 58.5485 62.9645 58.8549 62.2107 58.9311C61.1124 59.0404 60.3586 59.8422 60.3354 60.9439C60.3206 61.6463 60.3521 62.3488 60.3239 63.0495C60.261 64.5852 59.0649 65.7928 57.559 65.8657C56.855 65.9004 56.4259 65.579 56.3713 64.981C56.3149 64.3647 56.6578 63.9838 57.357 63.8877C58.0627 63.7899 58.3277 63.5017 58.3459 62.7927C58.3559 62.4414 58.3674 62.0886 58.3459 61.739C58.2499 60.2896 58.5811 58.994 59.7325 57.9438V57.9454Z" fill="#5D6DFD"/>
<path d="M49.3549 62.8946C47.7861 62.8946 46.2189 62.8979 44.6501 62.8929C43.8832 62.8896 43.4872 62.5583 43.474 61.9288C43.459 61.2728 43.8665 60.9133 44.6601 60.9117C47.8375 60.9083 51.0149 60.9083 54.1921 60.9117C54.9575 60.9117 55.3551 61.2479 55.37 61.8742C55.3849 62.5268 54.9724 62.8896 54.1839 62.8913C52.5753 62.8963 50.9651 62.8913 49.3565 62.8913L49.3549 62.8946Z" fill="#5D6DFD"/>
<path d="M46.8783 54.9591C46.0948 54.9591 45.3112 54.9706 44.5293 54.9557C43.8435 54.9424 43.4575 54.5531 43.4742 53.9352C43.4907 53.3455 43.865 52.9843 44.531 52.9793C46.1379 52.9678 47.7464 52.9678 49.355 52.9793C50.0193 52.9843 50.3954 53.3455 50.4103 53.9352C50.4268 54.5516 50.0375 54.9407 49.3533 54.9541C48.5283 54.9689 47.705 54.9574 46.88 54.9574L46.8783 54.9591Z" fill="#5D6DFD"/>
<path d="M51.8987 56.9448C52.7022 56.9448 53.5072 56.9331 54.3106 56.948C54.9965 56.9596 55.3858 57.349 55.3692 57.9652C55.3527 58.5549 54.9766 58.9177 54.314 58.9227C52.7072 58.9344 51.0986 58.9359 49.4899 58.9227C48.8041 58.9177 48.4165 58.5235 48.4331 57.9056C48.448 57.3141 48.824 56.9596 49.4883 56.948C50.2917 56.9331 51.0952 56.9448 51.9004 56.9448H51.8987Z" fill="#5D6DFD"/>
<path d="M53.8998 54.9474C53.6745 54.9474 53.4426 54.9789 53.2223 54.9409C52.6773 54.8498 52.3957 54.5002 52.404 53.9535C52.4123 53.4052 52.7039 53.0573 53.2522 52.9944C53.6183 52.953 53.9926 52.9662 54.3604 52.9827C55.0015 53.0092 55.3759 53.3902 55.3676 53.9849C55.3594 54.5548 54.9998 54.9177 54.3919 54.9574C54.2279 54.9689 54.0639 54.9591 53.8983 54.9591C53.8983 54.9557 53.8983 54.9524 53.8983 54.9474H53.8998Z" fill="#5D6DFD"/>
<path d="M44.893 58.9194C44.7074 58.9194 44.5202 58.9376 44.338 58.9161C43.788 58.8482 43.4501 58.4523 43.4749 57.9023C43.5014 57.3523 43.7946 57.0143 44.343 56.9597C44.7306 56.9216 45.1249 56.9298 45.5142 56.9547C46.0857 56.9911 46.427 57.3605 46.4402 57.9089C46.4552 58.4804 46.1006 58.8714 45.5076 58.9228C45.3038 58.9393 45.0967 58.9261 44.8913 58.9261V58.9211L44.893 58.9194Z" fill="#5D6DFD"/>
</g>
</g>
<defs>
<clipPath id="clip0_414_1011">
<rect width="100" height="100" fill="white"/>
</clipPath>
</defs>
</svg>
