<svg width="100" height="100" viewBox="0 0 100 100" fill="none" xmlns="http://www.w3.org/2000/svg">
<g clip-path="url(#clip0_414_1012)">
<mask id="mask0_414_1012" style="mask-type:luminance" maskUnits="userSpaceOnUse" x="22" y="22" width="56" height="56">
<path d="M77.1084 22.2227H22.2222V77.7782H77.1084V22.2227Z" fill="white"/>
</mask>
<g mask="url(#mask0_414_1012)">
<path d="M51.5069 50.0111C53.5765 50.0111 55.5942 50.0096 57.612 50.0111C59.5092 50.0126 60.6189 51.1433 60.6189 53.0798C60.6205 58.2923 60.6189 63.5048 60.6189 68.7173V69.4428C60.9317 69.4612 61.2066 69.4783 61.5056 69.4969V71.2989C61.3256 71.308 61.144 71.3236 60.9608 71.3236C59.4756 71.3251 57.9891 71.3297 56.504 71.3204C56.214 71.3189 56.0415 71.3669 55.8995 71.684C55.2051 73.2337 53.9916 74.0861 52.3127 74.0891C50.6094 74.0922 49.4051 73.2214 48.6633 71.6654C48.5885 71.5091 48.3442 71.3405 48.1795 71.339C43.2662 71.3221 38.3515 71.3221 33.4383 71.339C33.2856 71.339 33.0491 71.4937 32.9926 71.6329C32.3424 73.2337 31.1717 74.1139 29.473 74.0861C27.7727 74.0582 26.6324 73.1271 26.0448 71.5076C26.0251 71.455 25.9884 71.4071 25.9456 71.3297H22.2581C22.2444 71.1396 22.2245 70.9755 22.2245 70.81C22.223 68.2626 22.2169 65.7136 22.2337 63.1661C22.2352 62.8954 22.3191 62.5922 22.458 62.3618C23.9462 59.9148 25.4587 57.485 26.9484 55.0396C27.1316 54.7394 27.3301 54.6328 27.6765 54.6373C29.4852 54.6559 31.2938 54.6466 33.1941 54.6466C33.1941 54.0805 33.1926 53.53 33.1941 52.9793C33.2033 51.1728 34.3434 50.0158 36.1308 50.0143C40.3784 50.0111 44.6247 50.0143 48.8724 50.0143H49.6158V30.8951C50.8871 31.5339 52.0609 32.1232 53.2926 32.7419V22.258H60.6205V22.9139C60.6205 27.2572 60.6251 31.6004 60.6113 35.9451C60.6113 36.3225 60.6952 36.5483 61.057 36.6953C61.5087 36.8794 61.9376 37.1222 62.4459 37.3743V30.9075C64.2988 31.8416 66.074 32.7387 67.9284 33.6746V22.2441H75.2485V22.8969C75.2485 27.5494 75.2531 32.2021 75.2395 36.8546C75.2395 37.2583 75.3265 37.5197 75.7263 37.6296C76.8466 37.9373 77.1138 38.6565 77.1092 39.8275C77.0573 52.24 77.0771 64.6525 77.0771 77.0666V77.7796H22.2673V75.97H75.247V75.2879C75.247 63.5512 75.2439 51.813 75.2592 40.0765C75.2592 39.5939 75.096 39.3696 74.6899 39.1669C71.3992 37.5182 68.1192 35.8478 64.836 34.1834C64.6849 34.1076 64.5294 34.0396 64.3126 33.939V68.4976H62.4474V67.8419C62.4474 58.5955 62.4444 49.3476 62.4566 40.1012C62.4566 39.6418 62.3421 39.3897 61.9117 39.1762C58.6178 37.5336 55.3394 35.8586 52.0563 34.1958C51.8915 34.1122 51.7205 34.038 51.5053 33.9359V50.0126L51.5069 50.0111ZM35.021 69.4397C35.1645 69.4536 35.2378 69.4675 35.311 69.4675C39.5374 69.4675 43.7638 69.4629 47.9902 69.4798C48.3748 69.4798 48.4435 69.3066 48.5366 68.9941C49.3395 66.2673 52.5645 65.2496 54.7578 67.016C55.5363 67.6423 55.9683 68.4791 56.191 69.4319H58.7919V68.824C58.7919 63.6147 58.7919 58.4037 58.7919 53.1943C58.7919 52.1333 58.5263 51.8641 57.4762 51.8641C50.4323 51.8641 43.3884 51.8641 36.3444 51.8641C35.2883 51.8641 35.0226 52.1286 35.0226 53.1865C35.0226 58.396 35.0226 63.6069 35.0226 68.8164V69.4397H35.021ZM33.1513 62.0416V56.4982C31.5716 56.4982 30.0331 56.4889 28.4946 56.5121C28.3344 56.5151 28.1206 56.6744 28.0276 56.8229C26.9958 58.464 25.9838 60.1175 24.9673 61.7679C24.9215 61.8405 24.9016 61.9303 24.859 62.0416H33.1513ZM25.9716 69.4536C26.5653 67.7475 27.7101 66.7205 29.5233 66.7065C31.3366 66.6926 32.4798 67.7444 33.159 69.5509V63.9503H24.0958V69.4536H25.9731H25.9716ZM73.3864 36.4447V27.8108H69.7614C69.7614 30.0087 69.7569 32.168 69.7721 34.3272C69.7721 34.4618 69.8912 34.6583 70.0073 34.7186C71.1016 35.294 72.2081 35.8461 73.3849 36.4432L73.3864 36.4447ZM58.7506 35.5105V27.8H55.1363C55.1363 29.7133 55.1333 31.6004 55.1455 33.4858C55.1455 33.5879 55.254 33.7348 55.3501 33.7859C56.4627 34.3612 57.5846 34.9228 58.7506 35.5121V35.5105ZM50.2109 70.0862C50.1988 71.2787 51.1145 72.2346 52.2821 72.2484C53.433 72.2625 54.4067 71.2864 54.4023 70.1233C54.3992 68.9508 53.4376 67.9796 52.2883 67.9857C51.1527 67.9919 50.2216 68.9323 50.2094 70.0878L50.2109 70.0862ZM29.5508 68.5472C28.5556 68.5379 27.7269 69.3591 27.7116 70.3676C27.6963 71.401 28.5296 72.2532 29.5508 72.2469C30.5383 72.2423 31.3656 71.3978 31.3626 70.3955C31.3595 69.384 30.549 68.5548 29.5508 68.5457V68.5472ZM73.3926 24.1048H69.8073V25.8868H73.3926V24.1048ZM58.7613 25.8929V24.0987H55.173V25.8944H58.7613V25.8929Z" fill="#5D6DFD"/>
<path d="M36.8243 25.9395C36.9876 26.6185 37.1372 27.2557 37.2959 27.8899C37.4348 28.4467 38.0255 28.6818 38.52 28.391C39.0908 28.057 39.7105 27.415 40.2294 27.4876C40.7607 27.5604 41.1957 28.3383 41.6733 28.8071C42.0275 29.1551 42.3815 29.5046 42.7785 29.8945C42.435 30.4636 42.1098 30.9988 41.7864 31.5371C41.4016 32.1774 41.6184 32.725 42.3251 32.9028C42.8975 33.0467 43.4683 33.1921 44.0391 33.339C44.0712 33.3467 44.0987 33.3776 44.1429 33.4101V37.0125C43.4897 37.1749 42.8471 37.3311 42.2061 37.495C41.6901 37.6265 41.4307 38.2329 41.7008 38.6922C42.0412 39.2707 42.3937 39.8414 42.7708 40.4647C41.9771 41.2645 41.2033 42.0595 40.405 42.8267C40.3165 42.9117 40.0571 42.9071 39.9303 42.839C39.4618 42.5854 39.0161 42.2868 38.5597 42.007C38.0011 41.6635 37.4394 41.8986 37.2791 42.5436C37.1265 43.1607 36.9784 43.7779 36.8212 44.4229H33.2222C33.0696 43.8042 32.9123 43.1576 32.7521 42.5142C32.6009 41.9095 32.0378 41.6758 31.5036 41.9992C30.9509 42.3347 30.4 42.6767 29.8872 42.9906C29.0233 42.1121 28.193 41.269 27.32 40.3828C27.5962 39.925 27.9015 39.4176 28.2082 38.9103C28.6691 38.1463 28.4555 37.6343 27.5825 37.4178C27.03 37.2817 26.4743 37.1501 25.9004 37.0125V33.3668C26.5293 33.2075 27.1689 33.0513 27.8068 32.8843C28.3669 32.7374 28.6143 32.1496 28.3212 31.6546C27.9823 31.0792 27.6343 30.507 27.3261 29.9918C28.2005 29.1025 29.0309 28.2596 29.8964 27.3825C30.4214 27.7074 30.9861 28.0631 31.5554 28.4064C32.0164 28.6849 32.6071 28.4343 32.7398 27.9085C32.9032 27.2572 33.0573 26.6045 33.2176 25.9395H36.8197H36.8243ZM42.2793 34.8192C42.1251 34.7775 41.9465 34.6971 41.7619 34.6863C40.7821 34.629 40.3576 34.0397 39.9791 33.1626C39.5625 32.196 39.4861 31.4103 40.1975 30.6075C40.3851 30.3956 40.4691 30.1868 40.1975 29.9176C39.9455 29.6686 39.7487 29.7413 39.5625 29.9207C38.7337 30.7189 37.914 30.5579 36.9403 30.1249C36.1084 29.7553 35.5621 29.3329 35.5223 28.3849C35.4994 27.8279 35.2216 27.6378 34.6661 27.8264C34.6325 27.9501 34.5653 28.094 34.5578 28.2425C34.5012 29.2928 33.9151 29.7753 32.9764 30.1914C32.0133 30.6183 31.2776 30.6028 30.5069 29.9378C30.2901 29.7506 30.0901 29.6624 29.8261 29.9378C29.5819 30.1914 29.6459 30.3893 29.8261 30.5811C30.6168 31.4195 30.4443 32.2532 30.0291 33.2385C29.6704 34.0876 29.2491 34.6399 28.3136 34.6785C27.7611 34.7017 27.5764 34.9785 27.7596 35.5431C27.8801 35.5756 28.0236 35.6436 28.1686 35.6514C29.205 35.7071 29.6841 36.301 30.0901 37.2538C30.5039 38.2236 30.5144 38.9753 29.8459 39.7579C29.6643 39.9714 29.5697 40.174 29.8414 40.4478C30.1222 40.7308 30.3222 40.5963 30.5236 40.4183C31.3219 39.707 32.0912 39.7765 33.0466 40.2174C33.8861 40.604 34.4783 40.9985 34.518 41.9806C34.5409 42.5313 34.8126 42.7339 35.3789 42.5421C35.414 42.4045 35.4857 42.242 35.4948 42.075C35.5498 41.0356 36.1603 40.5885 37.0639 40.1849C38.0133 39.7626 38.7612 39.7425 39.5334 40.4276C39.7396 40.6101 39.9471 40.7154 40.2141 40.4339C40.4539 40.1801 40.3989 39.9838 40.2172 39.7904C39.4297 38.9536 39.5961 38.12 40.0112 37.1332C40.3698 36.2808 40.7972 35.7411 41.7298 35.6963C42.2716 35.6699 42.4701 35.3915 42.2808 34.8192H42.2793Z" fill="#5D6DFD"/>
<path d="M40.9171 46.6656C40.6393 46.1274 40.3768 45.6185 40.0945 45.0678C43.231 43.2767 45.1984 40.6288 45.8288 37.0466C46.2791 34.4898 45.841 32.0506 44.5985 29.7769C42.0527 25.1244 36.5809 22.9976 31.602 24.6108C26.7804 26.173 22.5403 31.9115 24.5321 38.6134C23.9857 38.7959 23.4378 38.9799 22.8928 39.1624C20.9804 33.8123 23.1677 26.4051 29.7567 23.3873C36.2191 20.4284 43.7209 23.2945 46.6636 29.8666C49.6186 36.4634 46.5782 43.7609 40.9171 46.6656Z" fill="#5D6DFD"/>
<path d="M54.248 48.1246V40.79H59.6664V48.1246H54.248ZM56.0887 42.6243V46.2577H57.8471V42.6243H56.0887Z" fill="#5D6DFD"/>
<path d="M67.0571 40.7705H72.4725V48.1113H67.0571V40.7705ZM70.6502 42.6281H68.8812V46.263H70.6502V42.6281Z" fill="#5D6DFD"/>
<path d="M67.0627 61.1553H72.4765V68.4961H67.0627V61.1553ZM68.8729 66.6462H70.6511V63.0161H68.8729V66.6462Z" fill="#5D6DFD"/>
<path d="M67.0627 50.9639H72.478V58.3046H67.0627V50.9639ZM68.8775 56.464H70.6419V52.8339H68.8775V56.464Z" fill="#5D6DFD"/>
<path d="M32.4745 46.0574C32.3386 46.6374 32.2089 47.1927 32.0517 47.8624C31.055 47.4881 30.1117 47.1324 29.0906 46.7488C29.4035 46.1409 29.6691 45.6228 29.9377 45.1016C30.7939 45.4232 31.6045 45.728 32.476 46.0559L32.4745 46.0574Z" fill="#5D6DFD"/>
<path d="M26.1302 44.5913C25.4601 43.7606 24.8222 42.9688 24.1536 42.1397C24.7336 41.7654 25.2098 41.4576 25.6968 41.1436C26.2569 41.8381 26.8048 42.5156 27.3879 43.2379C27.0033 43.6524 26.6048 44.0794 26.1302 44.5898V44.5913Z" fill="#5D6DFD"/>
<path d="M35.0532 46.3564C35.8789 46.259 36.6803 46.1646 37.5579 46.0625C37.6907 46.6225 37.8235 47.1871 37.9823 47.8583C36.9854 47.9789 36.0407 48.0935 35.0532 48.2125V46.3564Z" fill="#5D6DFD"/>
<path d="M45.0401 67.5915H43.2834V53.7451H45.0401V67.5915Z" fill="#5D6DFD"/>
<path d="M39.5528 67.5919H37.793V53.7656H39.5528V67.5919Z" fill="#5D6DFD"/>
<path d="M54.2588 53.7441H56.0187V64.7909H54.2588V53.7441Z" fill="#5D6DFD"/>
<path d="M48.7683 53.7471H50.5236V64.7985H48.7683V53.7471Z" fill="#5D6DFD"/>
<path d="M35.0254 38.89C33.0046 38.89 31.3607 37.2241 31.3638 35.1762C31.3684 33.13 33.0214 31.4672 35.0407 31.4796C37.057 31.4919 38.6871 33.1701 38.6749 35.2226C38.6627 37.2365 37.0188 38.89 35.0254 38.8915V38.89ZM36.8463 35.218C36.8616 34.2048 36.0649 33.3619 35.0682 33.3357C34.0502 33.3078 33.1985 34.1461 33.1954 35.1793C33.1924 36.1893 34.0028 37.0215 35.001 37.0354C35.9885 37.0478 36.8311 36.2187 36.8463 35.218Z" fill="#407BFF"/>
</g>
</g>
<defs>
<clipPath id="clip0_414_1012">
<rect width="100" height="100" fill="white"/>
</clipPath>
</defs>
</svg>
