<svg width="178" height="178" viewBox="0 0 178 178" fill="none" xmlns="http://www.w3.org/2000/svg">
<g filter="url(#filter0_b_414_1035)">
<circle cx="89" cy="89" r="89" fill="#1A2D47" fill-opacity="0.3"/>
</g>
<g clip-path="url(#clip0_414_1035)">
<mask id="mask0_414_1035" style="mask-type:luminance" maskUnits="userSpaceOnUse" x="61" y="61" width="55" height="56">
<path d="M115.917 61.2222H61.2222V116.778H115.917V61.2222Z" fill="white"/>
</mask>
<g mask="url(#mask0_414_1035)">
<path d="M115.915 87.0366C115.912 86.2148 115.546 85.8441 114.727 85.8355C114.501 85.8326 114.274 85.8326 114.048 85.8326H113.102C112.27 81.3048 110.578 77.3869 108.075 74.1843C105.664 71.1012 102.422 68.5836 98.4309 66.6931H100.368C101.435 66.6931 102.696 66.6931 103.955 66.7104C104.046 66.7104 104.226 66.8618 104.313 67.0088C104.832 67.8913 105.723 68.4177 106.696 68.4177C106.923 68.4177 107.149 68.3888 107.371 68.3326C108.614 68.014 109.448 66.9454 109.442 65.6706C109.438 64.4191 108.614 63.3649 107.396 63.0463C107.165 62.9858 106.929 62.9555 106.692 62.9555C105.699 62.9555 104.799 63.4933 104.342 64.3599C104.195 64.6412 104.053 64.6858 103.766 64.6858C101.932 64.6801 100.098 64.6786 98.2637 64.6786H92.9341C92.1468 62.494 90.7177 61.3015 88.8013 61.2265C88.7349 61.2236 88.6672 61.2222 88.6009 61.2222C87.7329 61.2222 86.9252 61.4515 86.2029 61.9056C85.2137 62.5258 84.5445 63.4587 84.2115 64.6786H80.879C78.4147 64.6786 75.7744 64.6786 73.1745 64.6643C73.1009 64.6643 72.9337 64.5373 72.8515 64.3945C72.3251 63.4933 71.4311 62.954 70.4593 62.954C70.2256 62.954 69.9891 62.9843 69.7569 63.0448C68.5356 63.362 67.7108 64.4162 67.7036 65.6663C67.6977 66.9411 68.5284 68.0111 69.7729 68.3312C70.0036 68.3904 70.2386 68.4206 70.4693 68.4206C71.4586 68.4206 72.3468 67.8698 72.8429 66.9483C72.9509 66.7465 73.0505 66.6887 73.297 66.6887C73.9791 66.6945 74.6612 66.6959 75.3433 66.6959H77.5611L78.7118 66.6945C74.7116 68.5922 71.4642 71.1156 69.0504 74.203C66.547 77.4056 64.8599 81.3177 64.0337 85.8341H63.0776C62.8541 85.8326 62.6336 85.8341 62.4115 85.8341C61.6068 85.8427 61.2319 86.2076 61.2276 86.9833C61.2204 88.6762 61.2204 90.3287 61.2276 91.8948C61.2319 92.6359 61.6169 93.0166 62.3726 93.0267C62.6033 93.0295 62.834 93.0311 63.0617 93.0311C63.2449 93.0311 63.8563 93.0281 63.9804 93.0281C65.1758 98.8105 67.5463 103.506 71.0244 106.982C74.5026 110.459 79.1948 112.825 84.9713 114.016C84.9713 114.123 84.9743 114.23 84.9758 114.338C84.9815 114.675 84.9887 115.024 84.9627 115.367C84.918 115.98 85.117 116.432 85.5712 116.747L85.6087 116.773H91.5281L91.5656 116.747C92.0198 116.43 92.2188 115.979 92.1741 115.367C92.1481 115.011 92.1554 114.657 92.1612 114.315C92.1626 114.214 92.164 114.116 92.1655 114.021C97.9508 112.817 102.646 110.443 106.121 106.968C109.595 103.493 111.961 98.8033 113.155 93.0281H114.043C114.264 93.0281 114.487 93.0281 114.71 93.0281C115.537 93.0209 115.906 92.6533 115.909 91.8386C115.915 90.2999 115.915 88.7281 115.909 87.0352L115.915 87.0366ZM113.875 87.8759V90.9748H110.771V87.8759H113.875ZM92.1698 111.827C92.1698 111.748 92.1698 111.667 92.1698 111.588C92.1712 111.295 92.1727 110.994 92.1669 110.695C92.1497 109.971 91.7661 109.586 91.058 109.584C90.2361 109.579 89.4156 109.576 88.5937 109.576C87.7718 109.576 86.9252 109.579 86.0918 109.584C85.3823 109.588 84.9959 109.969 84.9743 110.687C84.9656 110.946 84.9627 111.207 84.9584 111.467C84.9555 111.604 84.9541 111.739 84.9512 111.876C80.1711 111.098 75.9949 108.981 72.5327 105.588C69.134 102.254 66.6509 97.3426 66.1765 93.0311C66.2573 93.0311 66.3366 93.0311 66.4159 93.0311C66.5486 93.0311 66.6812 93.0324 66.8138 93.0324C66.9797 93.0324 67.1441 93.0324 67.3099 93.0267C68.0323 93.0094 68.4159 92.6244 68.4188 91.9134C68.4274 90.2681 68.4288 88.5969 68.4188 86.9473C68.4144 86.2379 68.0309 85.8529 67.3099 85.8341C67.072 85.8283 66.8326 85.8269 66.5947 85.8254C66.4404 85.8254 66.2861 85.8254 66.1318 85.8226C66.1288 85.8226 66.1274 85.8211 66.1245 85.8197C66.9148 81.0956 68.9812 76.9845 72.2688 73.5988C75.5552 70.2144 79.6072 68.0269 84.3152 67.0954C85.1531 69.1084 86.5836 70.1279 88.5677 70.1279H88.5937C90.572 70.1193 91.9938 69.0983 92.8216 67.0954C97.3494 67.9894 101.275 70.0472 104.489 73.2123C107.976 76.6456 110.172 80.8909 111.02 85.8326C110.924 85.8326 110.467 85.8297 110.336 85.8297C110.169 85.8297 110.004 85.8297 109.84 85.8341C109.113 85.8499 108.728 86.232 108.724 86.9386C108.715 88.532 108.714 90.1556 108.724 91.9048C108.728 92.6201 109.109 93.008 109.824 93.0252C109.99 93.0295 110.154 93.0311 110.32 93.0311C110.453 93.0311 110.586 93.0311 110.72 93.0295C110.799 93.0295 110.878 93.0295 110.957 93.0295C109.811 102.411 101.608 110.619 92.1698 111.827ZM90.1165 111.638V114.737H87.0176V111.638H90.1165ZM86.1279 65.6476C86.138 64.3441 87.2512 63.2424 88.5591 63.2424H88.5793C89.2368 63.2481 89.8526 63.5106 90.314 63.9806C90.774 64.4494 91.022 65.068 91.0133 65.7212C90.9974 67.0493 89.9001 68.1279 88.5605 68.1279C87.9116 68.1249 87.3002 67.8683 86.8402 67.4026C86.3744 66.9324 86.122 66.308 86.1265 65.6462L86.1279 65.6476ZM66.3712 87.8917V90.9906H63.2709V87.8917H66.3712ZM106.708 64.9713V64.8272L106.717 64.9713C107.105 64.9756 107.42 65.2958 107.422 65.6851C107.422 66.073 107.107 66.3945 106.705 66.4018C106.513 66.4018 106.332 66.324 106.193 66.1812C106.056 66.0398 105.984 65.8568 105.99 65.6649C106.001 65.2813 106.323 64.9699 106.706 64.9699L106.708 64.9713ZM70.4376 64.9699V64.8256L70.4405 64.9699C70.8226 64.9713 71.1499 65.2958 71.1543 65.6765C71.1572 65.8654 71.0822 66.047 70.9437 66.1855C70.8052 66.3254 70.6265 66.4018 70.4361 66.4018H70.413C70.0309 66.3888 69.7151 66.0543 69.7223 65.6722C69.7295 65.2915 70.0569 64.9699 70.4376 64.9699Z" fill="#5D6DFD"/>
<path d="M93.3948 77.2653C92.6941 75.6272 91.9917 73.989 91.2924 72.351C91.0674 71.8247 90.7041 71.581 90.1489 71.581H90.1171C89.6313 71.5896 89.0645 71.5983 88.5109 71.5983C88.0148 71.5983 87.5706 71.5911 87.1568 71.5767C87.1309 71.5767 87.1049 71.5767 87.0789 71.5767C86.4488 71.5767 86.0507 71.8535 85.7868 72.4736C83.3903 78.1031 80.8567 84.0182 78.2553 90.0543C78.0492 90.533 78.0564 90.9642 78.277 91.4531C79.4306 94.001 80.3766 96.1279 81.2503 98.1468C81.3499 98.3775 81.3671 98.7105 81.2923 98.9557C80.985 99.955 80.6461 100.963 80.3174 101.939C80.1992 102.291 80.0795 102.643 79.9627 102.996C79.7652 103.59 79.7666 103.998 79.9699 104.281C80.1703 104.559 80.5481 104.689 81.1581 104.689C82.2541 104.689 92.7806 104.689 92.7806 104.689C93.8721 104.689 94.9623 104.689 96.0538 104.689C96.5931 104.689 96.9667 104.549 97.1642 104.274C97.3632 103.997 97.3775 103.595 97.2046 103.075C97.0648 102.654 96.922 102.235 96.7806 101.815C96.4677 100.891 96.1432 99.9349 95.852 98.9874C95.7713 98.7279 95.79 98.3732 95.8952 98.1281C96.3596 97.0508 96.8441 95.9593 97.3127 94.9037C97.826 93.7472 98.3567 92.5518 98.8628 91.3694C98.9999 91.0522 99.0589 90.5446 98.9089 90.1912C97.082 85.8783 95.2074 81.5004 93.3948 77.2667V77.2653ZM87.5432 73.6503V85.9389C86.1646 86.3224 85.1654 87.1228 84.5713 88.3167C84.0954 89.2728 83.9829 90.2936 84.2339 91.3535C84.701 93.3247 86.5353 94.7537 88.5945 94.7537C88.6679 94.7537 88.7416 94.7524 88.8166 94.7479C90.9607 94.6442 92.72 92.9874 92.9998 90.8099C93.2348 88.9786 92.2686 86.6901 89.6038 85.9374V73.6862C89.6702 73.7699 89.7307 73.8521 89.7668 73.9372C91.1943 77.2494 92.6392 80.6193 94.0379 83.8826C94.3148 84.5286 94.5917 85.1761 94.8685 85.8235C95.4986 87.2972 96.1504 88.8214 96.7993 90.3168C96.9306 90.621 96.9335 90.8358 96.8095 91.1099C95.9731 92.9469 95.092 94.9268 94.1143 97.1633C93.9991 97.4272 93.8938 97.4993 93.6168 97.4993C91.9456 97.4921 90.2441 97.4878 88.5599 97.4878C86.8756 97.4878 85.2043 97.4921 83.5216 97.4979C83.2475 97.4979 83.1409 97.4257 83.027 97.1662C82.6361 96.2722 82.2396 95.381 81.8431 94.4885C81.3441 93.3651 80.8264 92.2029 80.3318 91.0565C80.2496 90.8676 80.2496 90.5676 80.3318 90.3744C82.6534 84.9165 84.9852 79.4844 87.3688 73.9386C87.4106 73.8406 87.4754 73.7483 87.5461 73.6503H87.5432ZM82.3809 102.114C82.6678 101.243 82.9375 100.421 83.2374 99.5917C83.2821 99.5585 83.4566 99.5124 83.6109 99.5124C85.5923 99.5065 87.5735 99.5051 89.5563 99.5051H92.88C93.402 99.5051 93.6645 99.5051 93.8086 99.6075C93.9528 99.7099 94.0393 99.9679 94.1966 100.438C94.3739 100.967 94.5499 101.497 94.7329 102.047L94.9349 102.656H82.2021C82.2627 102.474 82.3218 102.294 82.3809 102.114ZM90.2945 88.5719C90.756 89.0349 91.0098 89.6476 91.0098 90.2981C91.0098 91.6318 89.921 92.7262 88.5873 92.7364H88.5685C87.2245 92.7364 86.1273 91.6376 86.1228 90.2865C86.1214 89.6462 86.3738 89.0362 86.8352 88.5719C87.2967 88.1076 87.9038 87.851 88.5439 87.8494L88.5498 87.7053V87.8494C89.2088 87.8494 89.8302 88.1061 90.2945 88.5719Z" fill="#5D6DFD"/>
</g>
</g>
<defs>
<filter id="filter0_b_414_1035" x="-40" y="-40" width="258" height="258" filterUnits="userSpaceOnUse" color-interpolation-filters="sRGB">
<feFlood flood-opacity="0" result="BackgroundImageFix"/>
<feGaussianBlur in="BackgroundImageFix" stdDeviation="20"/>
<feComposite in2="SourceAlpha" operator="in" result="effect1_backgroundBlur_414_1035"/>
<feBlend mode="normal" in="SourceGraphic" in2="effect1_backgroundBlur_414_1035" result="shape"/>
</filter>
<clipPath id="clip0_414_1035">
<rect width="100" height="100" fill="white" transform="translate(39 39)"/>
</clipPath>
</defs>
</svg>
