<svg width="178" height="178" viewBox="0 0 178 178" fill="none" xmlns="http://www.w3.org/2000/svg">
<g filter="url(#filter0_b_414_1052)">
<circle cx="89" cy="89" r="89" fill="#1A2D47" fill-opacity="0.3"/>
</g>
<g clip-path="url(#clip0_414_1052)">
<mask id="mask0_414_1052" style="mask-type:luminance" maskUnits="userSpaceOnUse" x="61" y="61" width="56" height="56">
<path d="M116.778 61.2222H61.2222V116.768H116.778V61.2222Z" fill="white"/>
</mask>
<g mask="url(#mask0_414_1052)">
<path d="M83.953 102.237C83.6345 105.473 80.4758 107.566 77.1485 106.107C77.0434 106.267 76.9305 106.437 76.8191 106.611C75.1973 109.118 73.6109 111.653 71.9412 114.128C70.5217 116.232 68.4778 117.11 65.9823 116.647C63.5812 116.2 62.0474 114.692 61.4166 112.341C60.7658 109.913 61.7846 107.419 63.9384 106.014C66.3766 104.424 68.8226 102.85 71.2655 101.269C71.4727 101.134 71.6798 100.997 71.8808 100.864C70.4569 97.6709 72.3802 94.4256 75.7678 94.0313C72.8858 88.4899 72.3694 82.7477 74.4613 76.86C76.0924 72.2664 79.0658 68.6964 83.2263 66.1562C91.6512 61.0121 102.451 62.5242 109.302 69.7787C115.898 76.761 116.683 87.7788 111.251 95.7259C105.659 103.906 94.1374 107.696 83.953 102.238V102.237ZM94.0508 65.4527C83.8309 65.4387 75.5667 73.6842 75.5281 83.935C75.4895 94.1286 83.7566 102.424 94.0013 102.472C104.218 102.52 112.563 94.1906 112.553 83.9552C112.543 73.7198 104.291 65.4666 94.0508 65.4527ZM73.3852 102.649C70.5805 104.469 67.782 106.238 65.0345 108.083C63.4266 109.162 63.0756 111.314 64.1378 112.893C65.5758 115.028 68.6045 114.986 70.061 112.778C71.8005 110.144 73.4981 107.483 75.2127 104.831C75.2621 104.755 75.2916 104.666 75.3256 104.594C74.6777 103.945 74.0531 103.32 73.3837 102.649H73.3852ZM78.9821 104.302C80.233 104.257 80.9458 103.855 81.3633 103.028C81.7884 102.183 81.776 101.287 81.1376 100.593C79.9531 99.3052 78.7146 98.0589 77.4206 96.8824C76.5238 96.066 75.106 96.2639 74.3037 97.1714C73.4934 98.0884 73.5321 99.4273 74.401 100.302C75.5003 101.409 76.5764 102.541 77.7221 103.596C78.1334 103.974 78.7194 104.16 78.9806 104.302H78.9821Z" fill="#5D6DFD"/>
<path d="M106.938 64.69C106.001 64.6854 105.216 63.9 105.211 62.963C105.206 62.0029 106.023 61.2019 106.981 61.2221C107.92 61.2422 108.691 62.04 108.679 62.9784C108.667 63.9169 107.875 64.6947 106.938 64.6915V64.69Z" fill="#5D6DFD"/>
<path d="M65.857 75.6874C65.857 76.6259 65.0746 77.4129 64.1362 77.4206C63.1775 77.4284 62.372 76.6166 62.3889 75.6565C62.4045 74.7195 63.2007 73.9434 64.1377 73.9527C65.0762 73.9604 65.857 74.749 65.857 75.6874Z" fill="#407BFF"/>
<path d="M93.0472 109.831C93.9841 109.826 94.7773 110.606 94.7897 111.543C94.8021 112.503 93.995 113.311 93.0348 113.299C92.0979 113.287 91.3187 112.495 91.3218 111.558C91.3248 110.621 92.1103 109.836 93.0472 109.831Z" fill="#407BFF"/>
<path d="M71.6573 62.3819C72.2743 62.3865 72.7907 62.8983 72.8015 63.5152C72.8123 64.1537 72.2773 64.6933 71.6389 64.6887C71.0003 64.6824 70.4746 64.1352 70.4947 63.4966C70.5148 62.8796 71.0404 62.3771 71.6558 62.3819H71.6573Z" fill="#407BFF"/>
<path d="M115.632 71.6325C114.993 71.6355 114.46 71.0959 114.472 70.4573C114.485 69.8405 115.001 69.3302 115.618 69.3272C116.258 69.3225 116.79 69.8637 116.778 70.5022C116.765 71.1191 116.247 71.6293 115.63 71.634L115.632 71.6325Z" fill="#407BFF"/>
<path d="M65.8802 90.1507C65.2416 90.1631 64.702 89.6297 64.7051 88.9911C64.7081 88.3742 65.2184 87.8578 65.8354 87.8454C66.4738 87.8331 67.0151 88.3665 67.0104 89.005C67.0058 89.622 66.4955 90.1399 65.8787 90.1522L65.8802 90.1507Z" fill="#407BFF"/>
<path d="M114.461 111.007C114.448 111.646 113.893 112.168 113.258 112.139C112.643 112.111 112.145 111.579 112.155 110.964C112.168 110.325 112.721 109.804 113.358 109.834C113.974 109.861 114.473 110.393 114.461 111.007Z" fill="#407BFF"/>
<path d="M93.9422 71.3877C94.5111 70.8883 95.3058 70.528 96.2274 70.4862C96.971 70.4523 97.5122 70.8944 97.5617 71.5532C97.6111 72.2055 97.1426 72.705 96.3943 72.7947C95.5594 72.8951 95.1467 73.2554 95.0075 74.01C98.1275 74.8262 99.5051 76.8965 99.3289 79.8914C99.9226 80.2037 100.595 80.349 100.87 80.7604C101.163 81.1994 101.076 81.889 101.156 82.4689C102.11 82.2384 102.987 81.1593 103.128 80.0305C103.151 79.8389 103.152 79.6455 103.185 79.4554C103.296 78.7766 103.794 78.3576 104.416 78.407C105.047 78.4582 105.464 78.9405 105.472 79.6286C105.496 81.8257 104.038 83.9283 101.939 84.7245C101.356 84.9452 101.071 85.3704 101.084 86.0001C101.087 86.1332 101.102 86.2645 101.115 86.4222C102.469 86.7779 103.601 87.4644 104.423 88.6084C105.032 89.4573 105.397 90.3973 105.456 91.4457C105.51 92.4089 105.148 92.9547 104.417 93.0211C103.706 93.0846 103.234 92.565 103.151 91.6219C103.041 90.3834 102.407 89.5037 101.313 88.9409C101.246 88.9069 101.169 88.8946 101.044 88.8558C100.668 90.9169 99.6675 92.5697 97.8987 93.7046C96.6789 94.4869 95.3338 94.8332 93.8881 94.7791C90.7494 94.6616 88.6807 92.7984 87.3665 88.913C86.3444 89.1465 85.4354 90.2458 85.2993 91.4132C85.2824 91.5662 85.2807 91.7208 85.2607 91.8739C85.1647 92.599 84.6808 93.0566 84.0515 93.0243C83.3851 92.9902 82.9539 92.4691 82.9615 91.7147C82.9894 89.4062 84.534 87.2865 86.7851 86.6047C87.3557 86.4315 87.3525 86.13 87.3572 85.6894C87.3603 85.258 87.3464 84.9797 86.8038 84.8143C84.554 84.1309 83.0311 82.0823 82.9646 79.7786C82.9414 78.9683 83.3496 78.4443 84.0361 78.4025C84.7118 78.3623 85.2096 78.8354 85.2638 79.6471C85.3457 80.8855 85.9115 81.7993 86.9876 82.4054C87.0681 82.4502 87.1593 82.4765 87.266 82.5183C87.3449 81.9107 87.3247 81.2984 87.5181 80.7634C87.7592 80.094 88.4642 80.1558 89.0672 80.1465C89.1043 79.474 89.0796 78.8523 89.1847 78.254C89.4971 76.4759 90.5004 75.188 92.144 74.4552C92.6574 74.2264 92.6574 73.979 92.4393 73.5847C92.1781 73.1101 91.7699 72.8596 91.2349 72.7962C90.3768 72.6926 89.9176 72.2133 89.9918 71.5176C90.0692 70.8016 90.686 70.3255 91.521 70.5157C92.3079 70.695 93.0532 71.0568 93.9422 71.3861V71.3877ZM95.3693 92.2604C97.2369 91.9111 98.7182 90.0355 98.7522 88.0333C98.7722 86.8783 98.7615 85.7219 98.7646 84.5654C98.7646 83.8819 98.7646 83.1986 98.7646 82.5183H89.6703C89.6703 84.0814 89.6562 85.6168 89.6764 87.1521C89.6857 87.8029 89.6842 88.4725 89.8325 89.0986C90.2099 90.6943 91.671 92.0826 93.0547 92.2341C93.0547 92.0394 93.0547 91.8491 93.0547 91.659C93.0547 89.7325 93.0517 87.8045 93.0563 85.878C93.0578 85.1189 93.4521 84.6365 94.089 84.5777C94.8467 84.5082 95.3631 85.0137 95.3661 85.8626C95.3739 87.9808 95.3693 90.099 95.3693 92.2604ZM91.4575 80.0754H96.9664C97.1257 78.7086 96.9185 77.515 95.6878 76.7482C94.7183 76.1436 93.6994 76.1544 92.7346 76.7482C91.5008 77.5089 91.2951 78.707 91.4575 80.0739V80.0754Z" fill="#407BFF"/>
</g>
</g>
<defs>
<filter id="filter0_b_414_1052" x="-40" y="-40" width="258" height="258" filterUnits="userSpaceOnUse" color-interpolation-filters="sRGB">
<feFlood flood-opacity="0" result="BackgroundImageFix"/>
<feGaussianBlur in="BackgroundImageFix" stdDeviation="20"/>
<feComposite in2="SourceAlpha" operator="in" result="effect1_backgroundBlur_414_1052"/>
<feBlend mode="normal" in="SourceGraphic" in2="effect1_backgroundBlur_414_1052" result="shape"/>
</filter>
<clipPath id="clip0_414_1052">
<rect width="100" height="100" fill="white" transform="translate(39 39)"/>
</clipPath>
</defs>
</svg>
