<svg width="178" height="178" viewBox="0 0 178 178" fill="none" xmlns="http://www.w3.org/2000/svg">
<g filter="url(#filter0_b_414_1049)">
<circle cx="89" cy="89" r="89" fill="#1A2D47" fill-opacity="0.3"/>
</g>
<g clip-path="url(#clip0_414_1049)">
<mask id="mask0_414_1049" style="mask-type:luminance" maskUnits="userSpaceOnUse" x="61" y="61" width="56" height="56">
<path d="M116.778 61.2222H61.2222V116.561H116.778V61.2222Z" fill="white"/>
</mask>
<g mask="url(#mask0_414_1049)">
<path d="M69.6145 116.561C68.329 116.561 67.0448 116.56 65.7593 116.554C63.7904 116.545 62.0586 115.299 61.4504 113.457C61.3886 113.269 61.337 113.077 61.284 112.872C61.2634 112.796 61.2427 112.718 61.2222 112.641V65.1644C61.2487 65.0995 61.2811 65.0201 61.3031 64.9287C61.8643 62.5755 63.5474 61.2251 65.9227 61.2251C73.7673 61.2237 81.6134 61.2222 89.4594 61.2222C97.3055 61.2222 104.551 61.2222 112.096 61.2251C114.806 61.2251 116.773 63.1851 116.775 65.8859C116.781 81.3026 116.779 96.7812 116.77 111.893C116.77 112.344 116.714 112.793 116.608 113.195C116.065 115.268 114.295 116.557 111.987 116.557C106.12 116.557 82.9534 116.557 82.9534 116.557H75.1265C74.2076 116.557 73.2902 116.557 72.3713 116.558C71.4538 116.558 70.5349 116.56 69.6161 116.56L69.6145 116.561ZM63.6461 111.601C63.6461 113.354 64.428 114.134 66.1834 114.134H111.808C113.567 114.134 114.352 113.355 114.352 111.607V76.9113H63.6461V111.6V111.601ZM65.9919 63.6476C64.5031 63.6476 63.6476 64.4987 63.6461 65.9845C63.6447 67.7649 63.6461 69.5438 63.6461 71.3243V74.4226H114.352V71.2404C114.352 69.4865 114.352 67.7311 114.352 65.9772C114.351 64.4973 113.492 63.649 111.998 63.649H89.0486L65.9919 63.6476Z" fill="#5D6DFD"/>
<path d="M84.0413 108.293C83.8779 108.293 83.7115 108.256 83.5494 108.182C82.8897 107.888 82.6762 107.2 83.0061 106.43C86.2473 98.8591 89.543 91.1721 92.8004 83.5807C93.033 83.0374 93.4645 82.7134 93.9534 82.7134C94.0286 82.7134 94.1066 82.7207 94.1831 82.7355C94.7456 82.846 95.1373 83.3541 95.1698 84.0107C95.1638 84.0343 95.1565 84.0593 95.1491 84.0874C95.1138 84.2243 95.0652 84.4113 94.9945 84.5748C91.7769 92.0969 88.4915 99.7677 85.2281 107.374C84.9823 107.948 84.5376 108.29 84.0398 108.29L84.0413 108.293Z" fill="#5D6DFD"/>
<path d="M79.2178 103.264C78.8585 103.264 78.5081 103.173 78.3254 103.03C75.4818 100.819 72.6853 98.5661 70.0656 96.4485C69.7549 96.1967 69.5825 95.861 69.5825 95.5031C69.5825 95.1438 69.7549 94.8081 70.0671 94.5563C72.491 92.5977 75.0989 90.511 78.2739 87.9885C78.5315 87.7838 78.8202 87.6763 79.1089 87.6763C79.4593 87.6763 79.7818 87.8367 80.016 88.1268C80.4652 88.6835 80.3606 89.411 79.7597 89.8954C78.3711 91.0175 76.9529 92.15 75.5804 93.2442C74.9679 93.7331 74.3567 94.2204 73.7456 94.7108C73.6307 94.8022 73.5189 94.8964 73.3907 95.0025L72.7767 95.5104L73.756 96.2999C74.1211 96.5943 74.4702 96.8771 74.8221 97.1583C75.417 97.6354 76.0135 98.1111 76.6084 98.5868C77.6613 99.4277 78.7142 100.268 79.7642 101.112C80.2103 101.47 80.365 101.871 80.2546 102.374C80.1868 102.681 79.985 103.202 79.3946 103.256C79.3386 103.262 79.2797 103.264 79.2193 103.264H79.2178Z" fill="#407BFF"/>
<path d="M98.8682 103.325C98.5192 103.325 98.2099 103.169 97.9757 102.872C97.5222 102.296 97.6458 101.589 98.2924 101.069C99.6339 99.9911 100.978 98.9161 102.323 97.8411L104.265 96.2875C104.371 96.2021 104.476 96.1152 104.603 96.0107L105.227 95.4953C105.227 95.4953 101.871 92.8048 100.974 92.0876C100.668 91.8418 100.36 91.5973 100.054 91.3529C99.4572 90.8772 98.8608 90.4015 98.2688 89.9215C97.942 89.6564 97.7417 89.3207 97.7078 88.979C97.6768 88.6771 97.774 88.3797 97.9861 88.1204C98.2217 87.8333 98.5279 87.6816 98.8726 87.6816C99.1774 87.6816 99.4911 87.8023 99.7768 88.0307C102.79 90.4296 105.42 92.5323 107.816 94.4586C108.202 94.7677 108.405 95.1286 108.405 95.4997C108.405 95.8737 108.188 96.2537 107.794 96.5689C105.25 98.6114 102.635 100.702 99.7958 102.963C99.497 103.201 99.1745 103.327 98.8622 103.327L98.8682 103.325Z" fill="#407BFF"/>
<path d="M101.043 70.2609C100.395 70.2609 99.7468 70.2609 99.0989 70.2579C98.2772 70.255 97.7206 69.7734 97.7132 69.0577C97.7103 68.7293 97.8192 68.4452 98.0297 68.2331C98.2815 67.9784 98.6704 67.8384 99.1225 67.837C100.708 67.837 102.294 67.8354 103.882 67.8354C105.469 67.8354 107.055 67.8354 108.641 67.837C109.096 67.837 109.485 67.9768 109.737 68.2316C109.946 68.4436 110.055 68.7278 110.054 69.0563C110.048 69.797 109.497 70.258 108.616 70.2593C107.989 70.2593 107.362 70.2593 106.734 70.2593H103.885H101.044L101.043 70.2609Z" fill="#407BFF"/>
<path d="M69.1543 70.2578C68.5049 70.2549 67.9526 69.7027 67.9497 69.0532C67.9482 68.7366 68.0749 68.4332 68.3075 68.2006C68.5401 67.9664 68.8421 67.8384 69.1601 67.8384H69.1851C69.8361 67.8531 70.3781 68.4127 70.3707 69.0635C70.3618 69.7114 69.8081 70.2593 69.1617 70.2593H69.1572L69.1543 70.2578Z" fill="#407BFF"/>
<path d="M75.7576 70.2579C75.1081 70.249 74.5603 69.6923 74.5632 69.0415C74.5662 68.3921 75.1184 67.8398 75.7678 67.8369C76.4202 67.8369 76.9739 68.3847 76.9827 69.0326C76.9871 69.3522 76.8605 69.6571 76.6278 69.8926C76.3952 70.1283 76.0917 70.2579 75.7723 70.2579H75.7576Z" fill="#407BFF"/>
<path d="M82.3693 70.2579C81.7199 70.249 81.1736 69.6909 81.1765 69.04C81.1794 68.3891 81.7317 67.8384 82.3826 67.8369C83.035 67.8369 83.5886 68.3847 83.596 69.0326C83.599 69.3522 83.4737 69.6571 83.2411 69.8926C83.0085 70.1283 82.7051 70.2564 82.3855 70.2564H82.3693V70.2579Z" fill="#407BFF"/>
</g>
</g>
<defs>
<filter id="filter0_b_414_1049" x="-40" y="-40" width="258" height="258" filterUnits="userSpaceOnUse" color-interpolation-filters="sRGB">
<feFlood flood-opacity="0" result="BackgroundImageFix"/>
<feGaussianBlur in="BackgroundImageFix" stdDeviation="20"/>
<feComposite in2="SourceAlpha" operator="in" result="effect1_backgroundBlur_414_1049"/>
<feBlend mode="normal" in="SourceGraphic" in2="effect1_backgroundBlur_414_1049" result="shape"/>
</filter>
<clipPath id="clip0_414_1049">
<rect width="100" height="100" fill="white" transform="translate(39 39)"/>
</clipPath>
</defs>
</svg>
