<svg width="178" height="178" viewBox="0 0 178 178" fill="none" xmlns="http://www.w3.org/2000/svg">
<g filter="url(#filter0_b_414_1050)">
<circle cx="89" cy="89" r="89" fill="#1A2D47" fill-opacity="0.3"/>
</g>
<g clip-path="url(#clip0_414_1050)">
<mask id="mask0_414_1050" style="mask-type:luminance" maskUnits="userSpaceOnUse" x="61" y="62" width="56" height="53">
<path d="M116.778 62.6113H61.2222V114.683H116.778V62.6113Z" fill="white"/>
</mask>
<g mask="url(#mask0_414_1050)">
<path d="M61.2236 64.3448C61.757 62.9897 62.7933 62.6071 64.1861 62.6114C74.5476 62.6433 84.9091 62.6287 95.2706 62.6287C97.1374 62.6287 97.9824 63.4753 97.9824 65.3478C97.9824 69.0915 97.9824 72.8353 97.9824 76.5789C97.9824 76.7934 97.9824 77.0094 97.9824 77.2891C98.223 77.3007 98.4302 77.3196 98.6374 77.3196C100.899 77.3209 103.158 77.3196 105.419 77.3225C107.164 77.3254 108.053 78.2139 108.054 79.9632C108.057 84.2853 108.054 88.6086 108.054 92.9307C108.054 93.1422 108.054 93.3539 108.054 93.6278C108.316 93.6278 108.511 93.6278 108.705 93.6278C110.567 93.6278 112.43 93.6219 114.292 93.6293C115.846 93.6365 116.776 94.5815 116.778 96.1439C116.781 101.479 116.781 106.814 116.778 112.149C116.778 113.72 115.82 114.675 114.236 114.678C111.072 114.684 107.906 114.683 104.742 114.678C103.151 114.675 102.213 113.742 102.206 112.152C102.199 110.398 102.204 108.643 102.204 106.889C102.204 106.694 102.204 106.497 102.204 106.255H94.4662C94.7677 107.263 95.0561 108.259 95.3765 109.243C95.4054 109.333 95.6373 109.394 95.7779 109.403C96.3359 109.436 96.9041 109.391 97.4534 109.471C98.7259 109.656 99.6086 110.693 99.6448 111.981C99.6579 112.414 99.6579 112.849 99.6448 113.283C99.6216 114.081 99.1331 114.594 98.3374 114.671C98.1766 114.687 98.0129 114.68 97.849 114.68C91.0138 114.68 84.1787 114.68 77.3434 114.68C75.9723 114.68 75.5274 114.238 75.5347 112.862C75.5376 112.394 75.5099 111.912 75.6027 111.459C75.8434 110.297 76.8173 109.508 78.0348 109.417C78.1436 109.408 78.2522 109.411 78.3594 109.411C79.3093 109.405 79.9219 108.94 80.1972 108.018C80.3668 107.449 80.5306 106.878 80.7262 106.21C80.4813 106.21 80.2958 106.21 80.1088 106.21C76.6738 106.21 73.2374 106.21 69.8024 106.21C68.0298 106.21 67.1341 105.315 67.1327 103.541C67.1298 100.395 67.1327 97.2483 67.1327 94.1003C67.1327 93.8858 67.1327 93.6712 67.1327 93.3973C66.9181 93.3829 66.7472 93.3611 66.5747 93.3597C65.7254 93.3568 64.8716 93.3147 64.0252 93.3669C62.6381 93.4525 61.6888 92.9147 61.2222 91.5841L61.2236 64.3448ZM62.8512 71.8468V72.4859C62.8512 78.5443 62.8512 84.6026 62.8512 90.6609C62.8512 91.619 62.957 91.7291 63.9036 91.7291C74.3723 91.7291 84.8424 91.7291 95.3112 91.7291C96.2112 91.7291 96.3548 91.5857 96.3548 90.6986C96.3548 84.6229 96.3548 78.5457 96.3548 72.47V71.8468C96.0648 71.8468 95.8504 71.8468 95.6373 71.8468C91.0631 71.8468 86.4874 71.8468 81.9133 71.8468C81.7322 71.8468 81.5495 71.8569 81.3712 71.8351C80.9552 71.783 80.6611 71.5018 80.6958 71.1221C80.7219 70.8365 80.9568 70.5148 81.1901 70.3221C81.3524 70.1887 81.6727 70.2234 81.922 70.2234C86.5149 70.2191 91.108 70.2205 95.6997 70.2205H96.3533C96.3533 68.5016 96.3533 66.8754 96.3533 65.2507C96.3533 64.4361 96.1779 64.2593 95.3706 64.2579C92.5502 64.2564 89.7297 64.2579 86.9077 64.2579C79.2233 64.2579 71.5387 64.2579 63.8543 64.2579C63.0063 64.2579 62.8498 64.4158 62.8498 65.2709C62.8498 66.4653 62.8498 67.658 62.8498 68.8523C62.8498 69.2973 62.8498 69.7423 62.8498 70.2205C63.1368 70.2205 63.3527 70.2205 63.5673 70.2205C68.1415 70.2205 72.717 70.2205 77.2912 70.2234C77.5231 70.2234 77.7666 70.2293 77.9855 70.2973C78.3797 70.4221 78.5566 70.7293 78.5116 71.138C78.4652 71.5496 78.2188 71.7887 77.8072 71.838C77.629 71.8598 77.4463 71.8482 77.2652 71.8482C72.6909 71.8482 68.1154 71.8482 63.5412 71.8482C63.3295 71.8482 63.118 71.8468 62.8512 71.8468ZM68.7965 93.3568V100.425H102.203C102.203 100.192 102.203 99.9978 102.203 99.8036C102.203 98.5557 102.193 97.3091 102.206 96.0612C102.22 94.5597 103.149 93.6451 104.655 93.6293C105.226 93.6234 105.797 93.6293 106.399 93.6293C106.41 93.38 106.426 93.2032 106.426 93.0264C106.426 88.6869 106.428 84.349 106.426 80.0096C106.426 79.1022 106.271 78.953 105.338 78.9515C103.097 78.9515 100.855 78.9515 98.6143 78.9515C98.4215 78.9515 98.2288 78.9689 97.9824 78.9805C97.9824 79.2341 97.9824 79.4472 97.9824 79.6603C97.9824 83.3851 97.978 87.1086 97.9852 90.8334C97.9868 91.6553 97.762 92.3611 97.0983 92.8915C96.5679 93.3162 95.949 93.364 95.3054 93.3626C86.7194 93.3582 78.1333 93.3597 69.5473 93.3597C69.3154 93.3597 69.082 93.3597 68.798 93.3597L68.7965 93.3568ZM103.831 104.118C103.831 106.759 103.829 109.4 103.831 112.039C103.831 112.842 104.031 113.049 104.807 113.051C107.935 113.054 111.064 113.054 114.192 113.051C114.93 113.051 115.149 112.82 115.149 112.067C115.149 106.785 115.149 101.505 115.149 96.2236C115.149 95.4569 114.953 95.2554 114.194 95.2554C111.066 95.2525 107.937 95.2525 104.809 95.2554C104 95.2554 103.832 95.4279 103.831 96.2511C103.828 98.873 103.831 101.496 103.831 104.118ZM68.7604 102.115C68.7604 102.566 68.7604 102.96 68.7604 103.356C68.7604 104.457 68.8806 104.581 69.9604 104.581C75.0593 104.581 80.1566 104.581 85.2555 104.581C85.4541 104.581 85.657 104.569 85.8512 104.602C86.257 104.672 86.4861 104.93 86.5106 105.343C86.544 105.868 86.1933 106.195 85.5599 106.204C84.6555 106.217 83.7511 106.194 82.8481 106.22C82.6829 106.224 82.4191 106.357 82.3741 106.489C82.0583 107.427 81.7887 108.381 81.4915 109.368H93.6849C93.4415 108.542 93.1763 107.774 92.998 106.985C92.8604 106.378 92.5994 106.133 91.9429 106.191C91.1356 106.262 90.3167 106.224 89.5036 106.198C88.9529 106.181 88.6383 105.831 88.6615 105.342C88.6833 104.875 88.9905 104.607 89.5384 104.582C89.7008 104.575 89.863 104.579 90.0268 104.579C93.859 104.579 97.6924 104.579 101.525 104.579H102.168V102.114L68.7604 102.115ZM97.9795 113.029C98.1606 111.353 97.8809 111.037 96.2692 111.037C90.392 111.037 84.5149 111.037 78.6391 111.037C78.4233 111.037 78.2015 111.03 77.9913 111.068C77.5594 111.145 77.2506 111.407 77.1912 111.842C77.1391 112.225 77.1811 112.62 77.1811 113.029H97.9795Z" fill="#5D6DFD"/>
<path d="M76.4311 81.8005C76.4311 83.7151 76.434 85.6311 76.4311 87.5458C76.4283 88.6575 75.9196 89.1719 74.8093 89.1748C72.2265 89.1807 69.6423 89.1791 67.0596 89.1748C65.9407 89.1734 65.4218 88.6661 65.4204 87.5616C65.4146 83.7136 65.4146 79.8641 65.4204 76.0161C65.4218 74.9247 65.9262 74.4305 67.0161 74.429C69.6351 74.4261 72.2555 74.4247 74.8746 74.429C75.9239 74.4305 76.4268 74.9378 76.4297 75.9987C76.4355 77.9322 76.4311 79.8655 76.4311 81.799V81.8005ZM67.0814 76.0812V87.5051H74.7701V76.0812H67.0814Z" fill="#5D6DFD"/>
<path d="M86.3696 80.7929C84.4899 80.7929 82.61 80.7958 80.7301 80.7929C79.4721 80.7899 79.0097 80.3159 79.0083 79.0463C79.0083 78.0158 79.0039 76.9854 79.0083 75.9548C79.0142 74.9722 79.5373 74.433 80.504 74.4316C84.426 74.4258 88.348 74.4272 92.27 74.4316C93.2454 74.4316 93.7686 74.9663 93.7744 75.9462C93.7817 77.0491 93.7817 78.152 93.7744 79.2536C93.7686 80.2522 93.2497 80.7798 92.2221 80.787C90.2699 80.8015 88.319 80.7913 86.3667 80.7913L86.3696 80.7929ZM80.6779 76.0824V79.1173H92.1207V76.0824H80.6779Z" fill="#407BFF"/>
<path d="M86.3635 85.3028C84.2316 85.3028 82.101 85.2984 79.9689 85.3057C79.4718 85.3071 79.1079 85.1332 79.0254 84.6172C78.9514 84.1607 79.1804 83.8447 79.6225 83.7216C79.8095 83.6693 80.0153 83.6765 80.2124 83.6765C84.3316 83.6736 88.4506 83.6752 92.5682 83.6752C92.677 83.6752 92.7856 83.6707 92.8929 83.6781C93.4393 83.7157 93.777 84.0375 93.7711 84.5114C93.7639 84.9839 93.422 85.2984 92.8653 85.2999C90.6971 85.3057 88.5317 85.3028 86.3635 85.3028Z" fill="#407BFF"/>
<path d="M70.5047 68.0481C69.1872 68.0481 67.8683 68.051 66.5508 68.0481C65.8842 68.0467 65.5494 67.7801 65.5407 67.2612C65.5319 66.7409 65.8812 66.4249 66.5146 66.4234C69.1685 66.4191 71.8236 66.422 74.4775 66.4292C75.1151 66.4308 75.4674 66.7438 75.463 67.2583C75.4572 67.7758 75.1196 68.051 74.46 68.0526C73.1426 68.0569 71.8236 68.0526 70.5062 68.0526V68.0467L70.5047 68.0481Z" fill="#407BFF"/>
<path d="M89.6323 87.5483C90.699 87.5483 91.7642 87.5425 92.8311 87.5512C93.4252 87.5555 93.7774 87.8672 93.7745 88.3584C93.7716 88.8483 93.4195 89.1701 92.8238 89.173C90.6729 89.1818 88.5236 89.1818 86.3727 89.173C85.7872 89.1701 85.4248 88.8354 85.4248 88.3512C85.4248 87.8701 85.7901 87.5555 86.3799 87.5512C87.464 87.544 88.5481 87.5497 89.6323 87.5497V87.5483Z" fill="#407BFF"/>
<path d="M80.8111 87.5531C81.1532 87.5531 81.4967 87.5385 81.8387 87.556C82.2996 87.5792 82.5793 87.8285 82.6142 88.2936C82.6489 88.7603 82.404 89.1024 81.9575 89.1357C81.2053 89.1922 80.4444 89.1922 79.6922 89.1386C79.2487 89.1068 78.9878 88.7733 79.0197 88.3082C79.0501 87.8501 79.324 87.5849 79.7864 87.5589C80.1271 87.54 80.4706 87.5545 80.814 87.5545L80.8111 87.5531Z" fill="#407BFF"/>
<path d="M84.7904 68.0484C84.3483 68.0412 84.0078 67.6976 84.0035 67.2556C83.999 66.8005 84.3787 66.4193 84.8253 66.4309C85.2469 66.4425 85.6151 66.815 85.621 67.2368C85.6267 67.6861 85.2485 68.0556 84.7904 68.0484Z" fill="#407BFF"/>
<path d="M89.6415 67.2727C89.6269 67.7264 89.24 68.0743 88.7776 68.0466C88.3427 68.0221 88.008 67.6554 88.024 67.2205C88.0398 66.7915 88.408 66.4307 88.8298 66.4307C89.2733 66.4307 89.6559 66.8264 89.6415 67.2727Z" fill="#407BFF"/>
<path d="M92.8388 66.4323C93.262 66.4222 93.6388 66.7744 93.662 67.2035C93.6867 67.66 93.3302 68.0412 92.8707 68.0498C92.4316 68.0571 92.0677 67.7237 92.0445 67.2919C92.0213 66.8469 92.3938 66.444 92.8388 66.4339V66.4323Z" fill="#407BFF"/>
<path d="M110.285 110.578C110.297 111.038 109.94 111.412 109.485 111.419C109.037 111.426 108.65 111.047 108.65 110.603C108.65 110.174 108.995 109.822 109.436 109.804C109.913 109.786 110.275 110.115 110.287 110.58L110.285 110.578Z" fill="#407BFF"/>
</g>
</g>
<defs>
<filter id="filter0_b_414_1050" x="-40" y="-40" width="258" height="258" filterUnits="userSpaceOnUse" color-interpolation-filters="sRGB">
<feFlood flood-opacity="0" result="BackgroundImageFix"/>
<feGaussianBlur in="BackgroundImageFix" stdDeviation="20"/>
<feComposite in2="SourceAlpha" operator="in" result="effect1_backgroundBlur_414_1050"/>
<feBlend mode="normal" in="SourceGraphic" in2="effect1_backgroundBlur_414_1050" result="shape"/>
</filter>
<clipPath id="clip0_414_1050">
<rect width="100" height="100" fill="white" transform="translate(39 39)"/>
</clipPath>
</defs>
</svg>
