<svg width="178" height="178" viewBox="0 0 178 178" fill="none" xmlns="http://www.w3.org/2000/svg">
<g filter="url(#filter0_b_414_1051)">
<circle cx="89" cy="89" r="89" fill="#1A2D47" fill-opacity="0.3"/>
</g>
<g clip-path="url(#clip0_414_1051)">
<mask id="mask0_414_1051" style="mask-type:luminance" maskUnits="userSpaceOnUse" x="61" y="61" width="56" height="56">
<path d="M116.778 61.2222H61.2222V116.771H116.778V61.2222Z" fill="white"/>
</mask>
<g mask="url(#mask0_414_1051)">
<path d="M61.2222 95.833C61.283 95.7071 61.3497 95.5839 61.4019 95.4564C61.8454 94.3694 62.6394 93.755 63.8176 93.6536C63.9798 93.6392 64.1422 93.6376 64.3045 93.6362C65.6116 93.6275 66.0927 93.2493 66.2869 91.9494C66.3274 91.6755 66.1608 91.3248 65.9913 91.0771C65.7594 90.7379 65.4131 90.4815 65.1508 90.1612C64.3451 89.1758 64.2843 87.7107 65.129 86.7644C66.1015 85.6747 67.1361 84.6298 68.2244 83.656C69.2026 82.7807 70.6488 82.843 71.6647 83.6807C71.9704 83.9328 72.2443 84.224 72.5283 84.5024C72.8587 84.8269 73.237 84.9182 73.6702 84.7458C73.9383 84.64 74.2065 84.5312 74.4702 84.4154C74.8919 84.2298 75.1136 83.9096 75.1106 83.4401C75.1079 83.0967 75.1005 82.7518 75.1194 82.4097C75.2049 80.9346 76.2918 79.8201 77.767 79.7724C79.0856 79.7289 80.4073 79.7289 81.7245 79.7724C83.1795 79.8217 84.2548 80.9215 84.3445 82.3692C84.3533 82.5142 84.3576 82.6576 84.3591 82.8025C84.3706 84.1444 84.688 84.5573 86.0313 84.795C86.3024 84.8429 86.6588 84.6893 86.9052 84.5211C87.2588 84.2805 87.5283 83.9183 87.8674 83.6503C88.9022 82.8315 90.3324 82.8126 91.3077 83.6967C92.3511 84.6414 93.3495 85.6428 94.2987 86.6833C95.1958 87.6672 95.1711 89.1294 94.3262 90.1669C94.0654 90.4887 93.7611 90.7757 93.4727 91.0742C93.164 91.3929 93.0887 91.7582 93.2452 92.1711C93.322 92.374 93.4249 92.5668 93.4901 92.7725C93.6973 93.4247 94.148 93.6565 94.8131 93.6448C95.3131 93.6362 95.8348 93.6551 96.3116 93.7855C97.4187 94.0883 98.1854 95.0636 98.2201 96.2143C98.2606 97.5504 98.2679 98.8893 98.2244 100.225C98.1766 101.701 97.0637 102.785 95.587 102.876C95.4609 102.883 95.3334 102.883 95.2073 102.883C93.8394 102.89 93.4669 103.164 93.2047 104.532C93.1511 104.813 93.3205 105.189 93.4944 105.451C93.7205 105.792 94.0741 106.045 94.3336 106.367C95.1305 107.357 95.2044 108.778 94.3712 109.72C93.3799 110.84 92.3105 111.901 91.1933 112.898C90.2874 113.705 88.834 113.644 87.8819 112.887C87.5443 112.617 87.2429 112.301 86.9298 112.001C86.5966 111.681 86.2256 111.581 85.7908 111.774C85.543 111.884 85.2952 111.991 85.0416 112.088C84.5779 112.265 84.3677 112.61 84.3591 113.091C84.3533 113.381 84.3634 113.669 84.3533 113.959C84.3055 115.294 83.6388 116.199 82.384 116.647C82.3043 116.676 82.2331 116.728 82.1593 116.77H77.3858C77.3062 116.733 77.2279 116.688 77.1452 116.66C75.8584 116.241 75.1368 115.27 75.1093 113.912C75.1034 113.605 75.1672 113.282 75.0874 112.997C75.0079 112.708 74.8543 112.362 74.6223 112.21C73.4297 111.427 73.063 111.485 72.0516 112.477C72.0124 112.514 71.9762 112.553 71.9356 112.591C70.7024 113.742 69.1301 113.765 67.907 112.611C67.0405 111.794 66.2087 110.937 65.374 110.087C64.6508 109.351 64.3161 108.436 64.6262 107.461C64.8247 106.841 65.2652 106.262 65.7044 105.761C66.3999 104.966 66.4594 104.889 66.0449 103.902C66.0029 103.802 65.9565 103.705 65.9188 103.603C65.7348 103.098 65.374 102.867 64.8377 102.885C64.4958 102.895 64.1494 102.903 63.8088 102.87C62.4119 102.735 61.6323 101.879 61.2222 100.607C61.2222 99.0154 61.2222 97.4243 61.2222 95.833ZM93.1945 88.4846C93.0263 88.1787 92.9481 87.9237 92.7815 87.7512C91.9526 86.8933 91.112 86.0457 90.2527 85.2182C89.8006 84.7835 89.3311 84.8023 88.8543 85.2269C88.5718 85.479 88.3037 85.75 88.0341 86.0167C86.4372 87.6021 82.878 86.0153 82.6056 84.1922C82.5606 83.8893 82.5318 83.5836 82.5115 83.2778C82.4955 83.043 82.5158 82.8068 82.5043 82.5735C82.4709 81.9648 82.1593 81.6214 81.5594 81.6112C80.3479 81.591 79.1363 81.5925 77.9249 81.6112C77.3337 81.62 77.0076 81.9678 76.9641 82.5692C76.9481 82.7851 76.9598 83.0025 76.9583 83.2198C76.954 85.308 74.9426 86.9832 72.8602 86.663C71.9516 86.5239 71.3473 85.9543 70.7444 85.3443C70.1576 84.753 69.6938 84.7486 69.1113 85.3196C68.3244 86.0921 67.5433 86.8717 66.7738 87.6614C66.2522 88.1961 66.2637 88.6729 66.7811 89.2207C67.0173 89.47 67.2709 89.7033 67.4955 89.9626C67.9766 90.5192 68.2751 91.1828 68.1548 91.9073C67.7838 94.1536 66.7854 95.6215 64.4943 95.4897C64.3683 95.4825 64.2408 95.4853 64.1147 95.4897C63.4524 95.5172 63.0916 95.8375 63.0799 96.4867C63.0597 97.6619 63.0611 98.8372 63.0799 100.012C63.0901 100.663 63.4495 101.002 64.1016 101.034C64.4262 101.05 64.7537 101.027 65.0783 101.043C66.1362 101.095 66.9477 101.573 67.4491 102.508C67.6868 102.951 67.8868 103.422 68.0374 103.902C68.3476 104.89 68.1462 105.796 67.4665 106.581C67.2072 106.881 66.9013 107.144 66.6477 107.447C66.3029 107.858 66.2941 108.333 66.6651 108.719C67.5172 109.604 68.3868 110.474 69.2736 111.326C69.6736 111.71 70.159 111.69 70.5894 111.32C70.8358 111.108 71.0691 110.879 71.2865 110.637C72.9341 108.809 76.6019 110.496 76.8555 112.271C76.9236 112.75 76.9454 113.239 76.9583 113.724C76.983 114.576 77.3004 114.915 78.1423 114.921C79.0277 114.928 79.9145 114.923 80.7999 114.923C82.368 114.923 82.4998 114.794 82.5129 113.237C82.5302 111.135 84.7736 109.412 86.8386 109.891C87.6661 110.084 88.2109 110.651 88.779 111.21C89.2818 111.706 89.7847 111.747 90.2556 111.295C91.1165 110.469 91.9598 109.625 92.7858 108.764C93.2249 108.306 93.2002 107.842 92.7743 107.367C92.5684 107.138 92.3526 106.919 92.1249 106.713C90.3005 105.063 91.9816 101.411 93.7597 101.14C94.0437 101.096 94.3306 101.059 94.6176 101.041C94.9059 101.024 95.1972 101.053 95.4841 101.028C96.0479 100.977 96.384 100.644 96.3927 100.076C96.4101 98.8647 96.4116 97.6532 96.3927 96.4432C96.3826 95.8418 96.042 95.5287 95.4348 95.494C95.219 95.481 95.0016 95.4897 94.7841 95.4897C92.6974 95.4796 91.0149 93.4551 91.344 91.3785C91.4773 90.5365 91.9772 89.9496 92.5468 89.3758C92.8018 89.1193 92.9829 88.7873 93.2002 88.486L93.1945 88.4846Z" fill="#5D6DFD"/>
<path d="M91.8019 61.2281C92.6699 61.2281 93.538 61.2194 94.406 61.2281C96.1362 61.247 97.297 62.3831 97.3376 64.1119C97.3578 64.98 97.3594 65.848 97.3362 66.7145C97.3216 67.2826 97.5608 67.6304 98.081 67.8347C98.836 68.1318 99.5881 68.4419 100.329 68.7709C100.823 68.9912 101.23 68.9201 101.607 68.5361C102.201 67.929 102.804 67.329 103.41 66.7334C104.725 65.4437 106.316 65.4365 107.632 66.7291C108.857 67.9333 110.074 69.1462 111.28 70.3693C112.571 71.6793 112.561 73.2748 111.268 74.5906C110.686 75.1833 110.103 75.7774 109.503 76.3543C109.081 76.7599 109.009 77.1845 109.255 77.7208C109.587 78.4409 109.875 79.1815 110.165 79.9205C110.36 80.4162 110.683 80.6712 111.233 80.6595C112.083 80.6422 112.933 80.648 113.782 80.6568C115.61 80.6755 116.763 81.8276 116.772 83.6491C116.779 85.349 116.778 87.0488 116.772 88.7472C116.766 90.6094 115.64 91.7469 113.769 91.7773C112.956 91.7904 112.142 91.7962 111.329 91.7745C110.723 91.7586 110.352 92.0005 110.141 92.5802C109.875 93.3091 109.573 94.025 109.245 94.7279C108.994 95.2669 109.087 95.6915 109.503 96.0944C110.1 96.6726 110.686 97.2652 111.268 97.858C112.556 99.1723 112.559 100.766 111.262 102.079C110.055 103.301 108.841 104.515 107.616 105.721C106.33 106.989 104.731 106.993 103.434 105.731C102.501 104.824 101.585 103.898 100.668 102.973C100.165 102.466 100.12 101.888 100.53 101.497C100.931 101.114 101.466 101.163 101.965 101.655C102.853 102.53 103.731 103.418 104.615 104.296C105.302 104.979 105.734 104.983 106.406 104.312C107.573 103.152 108.736 101.988 109.897 100.823C110.533 100.184 110.533 99.7491 109.906 99.1115C109.322 98.5187 108.726 97.9377 108.145 97.3436C107.176 96.3509 106.993 95.3002 107.54 94.0177C107.851 93.2873 108.152 92.5527 108.448 91.8165C108.938 90.5963 109.828 89.9486 111.148 89.9283C112.016 89.9138 112.884 89.9326 113.752 89.9195C114.6 89.9065 114.92 89.5733 114.923 88.7168C114.927 87.0531 114.927 85.3895 114.923 83.7259C114.92 82.8493 114.587 82.5159 113.707 82.5073C112.858 82.5 112.007 82.5116 111.158 82.5029C109.861 82.4898 108.971 81.8726 108.477 80.6755C108.154 79.8916 107.835 79.1061 107.503 78.3265C106.993 77.128 107.208 76.0658 108.103 75.1398C108.706 74.5152 109.332 73.9138 109.939 73.2937C110.523 72.6966 110.529 72.2488 109.945 71.659C108.75 70.4519 107.547 69.2491 106.34 68.0536C105.747 67.4666 105.302 67.4695 104.705 68.0506C104.109 68.6318 103.53 69.2273 102.937 69.8113C101.918 70.8156 100.871 71.0069 99.5708 70.4504C98.8417 70.1375 98.1056 69.8404 97.3695 69.5418C96.1159 69.0318 95.5044 68.1477 95.4885 66.7855C95.4784 65.9363 95.4942 65.0858 95.4841 64.2365C95.4726 63.4222 95.1305 63.0758 94.3234 63.0729C92.6235 63.0656 90.9237 63.0656 89.2238 63.0729C88.4167 63.0758 88.0848 63.4134 88.0733 64.2394C88.0602 65.0712 88.0791 65.903 88.0674 66.7348C88.0458 68.1941 87.4342 69.0477 86.0778 69.5809C85.3387 69.8708 84.6098 70.1838 83.878 70.4954C82.7013 70.9954 81.6492 70.7954 80.7305 69.9244C80.0885 69.3143 79.477 68.6723 78.8437 68.0536C78.2495 67.4725 77.8003 67.4695 77.2105 68.0549C76.0034 69.252 74.8006 70.4533 73.6051 71.6605C73.0298 72.2401 73.0341 72.7052 73.6138 73.2965C74.476 74.1733 75.3513 75.0369 76.2178 75.9094C76.357 76.05 76.499 76.1948 76.6005 76.3629C76.8395 76.757 76.7613 77.1411 76.4497 77.4512C76.1367 77.7627 75.7426 77.8309 75.3615 77.5831C75.1223 77.428 74.918 77.2149 74.7137 77.0122C73.892 76.1977 73.0674 75.3848 72.2602 74.5558C71.0024 73.2631 71.0038 71.659 72.2719 70.3736C73.4776 69.1491 74.6934 67.9362 75.9165 66.7291C77.2278 65.435 78.8277 65.4393 80.1392 66.7291C80.7334 67.3116 81.3247 67.8956 81.9042 68.4926C82.3072 68.9086 82.7331 69.0027 83.2708 68.7491C83.907 68.4491 84.5605 68.1869 85.2155 67.9304C86.1097 67.5797 86.2083 67.4493 86.2155 66.5015C86.2227 65.5987 86.1835 64.6901 86.2603 63.7916C86.3894 62.2686 87.5009 61.2658 89.0355 61.2325C89.9572 61.2122 90.8802 61.2281 91.8019 61.2281Z" fill="#5D6DFD"/>
<path d="M91.812 74.208C97.6288 74.2544 102.553 78.2931 103.583 84.0086C104.309 88.0313 103.221 91.5876 100.411 94.5887C99.9706 95.0597 99.43 95.1234 99.0257 94.7727C98.5996 94.4031 98.5895 93.838 99.062 93.3425C100.536 91.7962 101.488 89.9906 101.859 87.8836C102.614 83.6043 100.523 79.3452 96.6042 77.1861C92.9177 75.1543 88.0963 75.7673 84.9618 78.6641C84.8154 78.7988 84.672 78.938 84.5111 79.054C84.0764 79.3669 83.5635 79.3206 83.2432 78.9554C82.9229 78.5887 82.92 78.0468 83.3171 77.6875C83.9054 77.1555 84.5054 76.6237 85.1632 76.1876C87.1718 74.8572 89.3948 74.1979 91.8104 74.2095L91.812 74.208Z" fill="#407BFF"/>
<path d="M79.7408 89.9365C84.397 89.9857 88.1213 93.7129 88.0589 98.2936C87.9865 103.541 84.1897 106.503 79.7351 106.56C75.0081 106.62 71.3635 102.787 71.4171 98.0066C71.4663 93.5897 75.2833 89.8886 79.7408 89.9365ZM86.1968 98.2327C86.1795 94.633 83.271 91.7522 79.6944 91.7898C76.0644 91.829 73.2386 94.7157 73.2589 98.3632C73.2792 101.895 76.2021 104.742 79.7931 104.729C83.3363 104.716 86.2142 101.798 86.1968 98.2327Z" fill="#407BFF"/>
</g>
</g>
<defs>
<filter id="filter0_b_414_1051" x="-40" y="-40" width="258" height="258" filterUnits="userSpaceOnUse" color-interpolation-filters="sRGB">
<feFlood flood-opacity="0" result="BackgroundImageFix"/>
<feGaussianBlur in="BackgroundImageFix" stdDeviation="20"/>
<feComposite in2="SourceAlpha" operator="in" result="effect1_backgroundBlur_414_1051"/>
<feBlend mode="normal" in="SourceGraphic" in2="effect1_backgroundBlur_414_1051" result="shape"/>
</filter>
<clipPath id="clip0_414_1051">
<rect width="100" height="100" fill="white" transform="translate(39 39)"/>
</clipPath>
</defs>
</svg>
