<svg width="141" height="26" viewBox="0 0 141 26" fill="none" xmlns="http://www.w3.org/2000/svg">
<g clip-path="url(#clip0_413_996)">
<path fill-rule="evenodd" clip-rule="evenodd" d="M41.1651 10.8846C39.6192 11.0778 38.6532 11.5287 38.0091 12.173C37.4936 12.6881 37.2362 13.3321 37.2362 13.9762C37.2362 15.1356 38.0735 15.9729 39.104 15.9729C39.7479 15.9729 40.392 15.715 40.7142 15.3289C40.8429 15.1999 40.9718 14.9424 40.9718 14.6848L41.165 10.8846H41.1651ZM43.8057 17.7761C42.5176 17.7761 41.358 16.9389 41.0362 15.651C40.392 16.8101 39.1684 17.7761 37.5582 17.7761C35.7548 17.7761 34.209 16.3592 34.209 14.5559C34.209 12.0439 36.5922 10.2407 41.1005 10.1762V9.53216C41.165 7.72884 40.1345 6.63367 38.331 6.63367C37.0426 6.63367 35.6904 7.47129 34.7887 8.56595C34.7244 8.63044 34.338 8.24418 34.338 8.17957C35.4971 5.86117 37.6226 4.57293 39.8124 4.57293C42.324 4.57293 44.1276 6.37638 44.0631 9.40333L43.8703 14.4272C43.8703 15.5866 44.3854 16.1017 44.965 16.1017C45.6089 16.1017 46.0598 15.5864 46.3174 14.8776C46.3174 14.8134 46.7037 15.0066 46.7037 15.071C46.7037 16.8101 45.4157 17.7761 43.8055 17.7761H43.8057ZM59.8428 17.3253H56.4294C56.3649 17.3253 56.3649 16.6814 56.4294 16.6814C57.8463 16.488 58.0395 16.3592 58.0395 13.5898V9.72548C58.0395 7.98638 57.0091 6.76276 55.5276 6.76276C54.4972 6.76276 53.531 7.27798 53.0801 7.92216C52.7581 8.30867 52.5649 9.01707 52.5649 9.9188V13.5898C52.5649 16.3593 52.8867 16.488 54.304 16.6814C54.304 16.6814 54.3682 17.3253 54.304 17.3253H47.7341C47.6699 17.3253 47.6699 16.6814 47.6699 16.6814C49.2156 16.4234 49.409 16.3592 49.409 13.5898V8.88811C49.409 6.0541 49.0868 5.9254 47.412 5.66784C47.2834 5.66784 47.3478 5.02366 47.412 5.02366H52.3071V7.85768H52.3717C53.4666 5.79642 55.1413 4.5728 57.2021 4.5728C59.5209 4.5728 61.3242 6.37626 61.3242 9.33897V13.5254C61.3242 16.295 61.5817 16.4237 63.1276 16.617C63.2563 16.617 63.1919 17.2609 63.1276 17.2609C62.1615 17.3253 60.7444 17.3253 59.8427 17.3253H59.8428ZM70.2123 17.7761C66.348 17.7761 63.8361 14.7491 63.8361 11.2711C63.8361 7.53552 66.3481 4.57267 70.4702 4.57267C72.4024 4.57267 73.3683 5.21685 73.9482 5.21685C74.2057 5.21685 74.4634 5.02366 74.5921 4.70163C74.5921 4.63715 75.3651 4.63715 75.3651 4.70163V9.33884C75.3651 9.40333 74.5922 9.40333 74.5922 9.33884C73.5618 7.21337 72.1448 5.41017 70.4705 5.41017C68.4091 5.41017 67.1855 7.60001 67.1855 10.6269C67.1855 13.8472 68.86 15.9729 71.1788 15.9729C72.7244 15.9729 74.4636 14.8779 75.1719 13.6541C75.2363 13.5252 75.7516 13.7831 75.7516 13.9121C74.9145 16.1017 72.7244 17.7761 70.2125 17.7761H70.2123ZM85.8633 9.59652V8.69479C85.8633 6.69815 84.8972 5.53888 83.6734 5.53888C82.1275 5.53888 80.9684 7.21337 80.7106 9.59652H85.8634H85.8633ZM80.7106 11.0777C80.7106 13.8472 82.2566 15.9727 84.8971 15.9727C86.4429 15.9727 87.9884 14.9423 88.826 13.6539C88.826 13.5897 89.3411 13.7829 89.3411 13.9118C88.6329 16.1017 86.314 17.776 83.7378 17.776C79.6803 17.776 77.2973 14.8133 77.2973 11.271C77.2973 7.72871 79.8091 4.5728 84.06 4.5728C87.2802 4.5728 89.4058 6.69815 89.599 9.59652V10.4982H80.8397C80.7107 10.6269 80.7107 10.949 80.7107 11.0779L80.7106 11.0777ZM96.0397 17.7761C94.0429 17.7761 92.3039 17.2612 91.7244 16.8744C91.66 16.8101 91.4668 15.1356 91.4668 13.461C91.4668 13.3967 92.2396 13.332 92.2396 13.461C93.27 15.7151 94.7514 17.0032 96.3617 17.0032C97.7142 17.0032 98.6803 16.295 98.6803 15.1999C98.6803 13.9119 97.1345 13.3321 95.5889 12.6237C93.7209 11.9153 91.5958 10.9491 91.5958 8.56621C91.5958 6.69815 93.2059 4.76599 96.233 4.76599C97.5214 4.76599 98.3584 5.28121 98.9382 5.28121C99.1957 5.28121 99.4533 5.08814 99.6463 4.76599C99.6463 4.70163 100.419 4.70163 100.419 4.76599V9.01707C100.419 9.08143 99.6463 9.08143 99.6463 9.01707C98.6159 7.08479 97.3923 5.7322 95.9108 5.7322C94.5581 5.7322 93.9138 6.63392 93.9138 7.34259C93.9138 8.63056 95.3954 9.14578 96.941 9.78996C98.8088 10.5627 100.999 11.5291 100.999 13.9763C100.999 16.0372 99.0668 17.776 96.0395 17.776L96.0397 17.7761ZM102.416 6.37612C102.223 6.37612 102.158 5.86078 102.351 5.73207C103.704 4.50819 105.958 2.44732 107.182 1.15908C107.246 1.0946 107.697 1.15908 107.697 1.28805V5.08776H112.077C112.206 5.08776 112.206 6.31151 112.077 6.31151H107.697V13.4607C107.697 15.0708 108.663 15.7792 109.694 15.7792C110.467 15.7792 111.304 15.1354 111.691 14.3623C111.691 14.2981 112.206 14.5556 112.206 14.6202C111.691 16.3593 110.016 17.7115 108.148 17.7115C106.151 17.7115 104.541 16.4234 104.541 13.9116V6.37599H102.416V6.37612ZM122.769 8.43737C122.382 8.43737 121.416 7.27798 120.707 7.27798C120.385 7.27798 119.999 7.47117 119.677 7.79319C119.162 8.30841 118.711 9.53229 118.711 10.5627V13.6543C118.711 16.4882 119.162 16.5525 120.643 16.7456C120.643 16.7456 120.708 17.3895 120.643 17.3895H113.816C113.752 17.3895 113.752 16.7457 113.816 16.7457C115.362 16.488 115.555 16.4236 115.555 13.6544V8.95234C115.555 6.18281 115.233 5.98961 113.559 5.73207C113.43 5.73207 113.494 5.08789 113.559 5.08789H118.518V8.30816H118.647C118.776 7.92177 119.033 7.47091 119.226 7.02005C120.128 5.53862 121.223 4.6369 122.382 4.6369C123.477 4.6369 124.379 5.47427 124.379 6.37599C124.443 7.40643 123.091 8.43686 122.769 8.43686V8.43737ZM136.1 10.1117L131.914 20.8677C130.433 24.6677 129.08 25.4407 127.277 25.4407C126.246 25.4407 125.087 24.9253 125.087 24.6034C125.023 24.0881 125.731 22.2204 126.117 22.2204C126.246 22.2204 127.792 22.9286 128.565 22.9286C129.66 22.9286 130.368 22.2204 130.948 20.6745L131.721 18.6134C131.463 17.5829 128.371 10.8203 127.985 9.91842C127.212 8.11496 126.697 6.69815 126.182 6.1828C125.86 5.86065 125.538 5.73207 124.636 5.6031C124.572 5.6031 124.572 4.95893 124.636 4.95893C125.473 4.95893 127.212 5.02328 128.179 5.02328C129.145 5.02328 130.819 4.9588 131.656 4.9588C131.721 4.9588 131.721 5.60298 131.656 5.60298C129.724 5.86039 129.917 6.50446 130.948 9.08092L133.202 14.5554L135.006 9.85368C135.65 8.24354 135.972 7.27747 135.972 6.69777C135.972 5.9891 135.521 5.73156 134.168 5.66733C134.104 5.66733 134.104 4.95867 134.168 4.95867C135.07 4.95867 136.229 5.02302 137.002 5.02302C137.582 5.02302 138.162 4.95854 139.257 4.95854C139.321 4.95854 139.385 5.6672 139.257 5.6672C138.548 5.73143 138.226 5.92462 137.84 6.311C137.324 6.82635 136.938 7.85678 136.101 10.111L136.1 10.1117Z" fill="#9BA2B2"/>
<path fill-rule="evenodd" clip-rule="evenodd" d="M19.5879 4.25096C17.3337 1.80345 15.0796 2.19009 14.6931 2.25432C14.8863 2.31867 15.0796 6.56963 17.4626 8.82382C19.0728 10.305 22.3575 9.78977 22.3575 9.78977C22.3575 9.78977 21.7778 6.63398 19.588 4.25096H19.5879ZM22.2933 12.5596C21.5846 12.5596 18.6864 12.8172 16.7542 15.2001C14.7576 17.7121 14.8219 19.7088 14.3711 20.1595C14.7576 20.2885 18.8152 20.6747 20.5542 18.0341C22.2287 15.5864 22.2933 12.9458 22.2933 12.5594V12.5596ZM4.64552 10.8202C5.09626 10.8848 6.64216 12.8815 9.4117 13.139C12.4388 13.4613 13.4692 11.9155 13.5338 11.9155C13.5338 11.7222 11.0863 9.08162 8.38126 9.08162C6.5132 9.14584 4.64552 10.8203 4.64552 10.8203V10.8202ZM15.6591 12.173C15.5947 12.2374 13.083 15.5866 7.15738 14.6849C2.3912 13.912 0.652232 11.2712 0.330078 11.2068C0.716587 10.6915 4.32349 7.79325 8.50971 7.85761C12.632 7.98657 15.6589 10.3051 15.6589 10.3051H18.2995C16.1743 9.66106 13.5981 8.50179 12.4387 5.92545C11.4082 3.54255 11.6014 2.12548 11.1506 0.128964C11.1506 0.128964 15.9166 -0.257545 19.5879 2.12548C22.9371 4.31531 24.8048 10.1119 24.8693 10.3051H26.9301L26.4795 0L29.0557 0.0643543C28.605 2.76953 29.1847 22.0917 29.0557 22.0917C28.7982 22.1559 26.6082 22.2845 26.4152 21.7694C26.4152 21.7694 26.9304 12.3016 26.9949 12.1083H24.998C24.998 12.2373 24.8048 17.5829 20.7473 20.4169C16.6894 23.2508 10.8285 22.4134 10.8285 22.4134C11.5372 21.3185 10.8285 20.1592 12.8894 17.0033C15.2726 13.3965 18.4285 12.1083 18.3642 12.1083C18.171 12.1729 15.7237 12.1729 15.6591 12.1729" fill="#9BA2B2"/>
</g>
<defs>
<clipPath id="clip0_413_996">
<rect width="139" height="26" fill="white" transform="translate(0.330078)"/>
</clipPath>
</defs>
</svg>
